<svg xmlns="http://www.w3.org/2000/svg" xmlns:xlink="http://www.w3.org/1999/xlink" version="1.1" width="595.2756pt" height="841.8898pt" viewBox="0 0 595.2756 841.8898">
<g id="layer_1" data-name="">
<path transform="matrix(1,0,0,-1,0,841.8898)" stroke-width=".7498" stroke-linecap="butt" stroke-miterlimit="22.925585" stroke-linejoin="miter" fill="none" stroke="#ffffff" d="M225.2951 523.0151C225.2951 512.176 227.8182 506.569 232.3684 499.7741 171.0961 467.3531 182.7609 345.7077 298.2711 339.4397 323.2103 338.0865 351.0111 350.0629 370.8105 365.3736 413.5431 398.4185 412.8168 474.8692 365.7492 499.7741 370.2991 506.569 372.8228 512.176 372.8228 523.0151 372.8228 544.265 320.2364 546.2555 298.0483 546.2555 274.8546 546.2555 225.2951 542.9015 225.2951 523.0151Z"/>
<path transform="matrix(1,0,0,-1,0,841.8898)" d="M371.6926 521.1901 371.8329 521.043C371.8236 521.0524 371.6337 521.1573 371.6926 521.1901ZM344.0273 490.5133C343.2331 492.3754 345.803 508.9008 343.4715 517.297 342.4263 521.0597 342.292 520.8795 341.0606 522.3643 339.7516 523.942 340.5441 523.8981 337.7897 524.3238 333.4297 524.9976 339.7484 522.5479 334.9497 511.5325 333.6559 508.5629 327.8361 492.0418 329.3745 488.0798 330.0001 486.4683 333.2149 484.4874 334.8232 483.9344 333.6517 481.4878 331.361 479.9494 332.6304 475.2009 333.0269 473.718 333.1406 472.9388 333.4292 471.5022 333.8073 469.6194 335.8063 466.6028 337.4209 465.4253 338.7883 467.0169 340.2204 472.9317 345.505 478.9191L349.3437 482.5327C345.5677 482.8706 342.1579 480.0061 340.4401 478.0287 337.7316 474.9111 337.4589 472.7353 336.6726 467.6465 335.4514 468.6094 335.0271 469.8411 334.7666 471.4869 333.2914 480.8049 335.8947 479.2768 338.0854 483.8513 337.214 485.2369 334.4581 487.4593 332.7931 488.4593 333.1647 490.8628 332.7041 491.4156 333.0227 493.4772 334.6577 504.0567 338.891 510.2563 339.6538 515.1926 341.3551 513.8507 340.2162 515.4511 340.5711 513.4405L340.2043 490.663C339.8465 488.4114 339.8343 487.1707 342.6313 487.1656 348.5319 487.1554 350.1471 491.5791 352.1619 496.3037 354.0572 500.7464 365.4666 520.0418 371.6291 520.7788 370.3586 518.1256 365.1925 514.4462 363.5016 503.5059 363.0591 500.6426 361.9616 495.8617 363.0889 493.1195 363.7984 491.3935 362.7454 492.3816 364.3875 491.5777 361.8275 497.5815 368.4402 509.2999 370.584 513.2716 371.7658 515.4608 373.2185 517.6766 375.3655 519.241 376.4616 520.0401 377.2431 520.7434 378.6194 521.0793 381.6425 521.8172 380.3029 520.7584 382.3302 522.915 380.302 525.3647 379.4196 525.8401 375.1092 525.2545L371.7128 524.5157C362.4732 521.1723 355.5706 509.7132 351.3827 502.3826 350.2346 500.3728 349.2536 498.0183 348.2748 496.0879 347.6852 494.9254 347.1908 493.8803 346.718 492.9435 345.1011 489.7395 344.9619 490.625 344.0273 490.5133" fill="#a53a32" fill-rule="evenodd"/>
<path transform="matrix(1,0,0,-1,0,841.8898)" d="M371.3284 479.9784C384.3213 477.9692 399.2204 489.361 402.277 489.5121 400.9929 486.8328 395.4308 480.1093 391.2574 478.1483 389.6759 477.4059 387.7109 476.9405 386.5337 475.9427 386.7973 474.4911 387.0595 474.7521 388.0803 473.4102 409.0765 442.6061 400.2437 405.3903 382.8591 377.89L388.186 385.4988C404.0481 407.687 413.6085 450.8838 391.2678 474.7907 394.6924 475.9387 397.7022 478.7436 400.1409 481.2384 401.4839 482.6137 402.9126 484.1748 403.7406 485.5833 405.1383 487.9619 405.9743 488.7201 406.262 490.5808 403.992 491.6925 406.0616 492.2972 403.8514 492.6382 401.18 493.0503 393.4363 490.7614 390.7395 490.1675 388.2515 489.619 379.9111 488.3871 377.0549 488.7777L376.9279 487.9565C379.1353 487.6526 382.1034 487.7504 384.4579 487.6889L391.6383 487.7878C389.3443 485.8441 372.4869 480.8733 371.3284 479.9784" fill="#a53a32" fill-rule="evenodd"/>
<path transform="matrix(1,0,0,-1,0,841.8898)" d="M332.6641 424.0491C337.0632 423.3694 341.6519 424.5718 345.2213 426.1465 346.6006 426.7551 347.1333 427.0601 348.0111 427.9941 346.4997 427.9187 346.678 427.7679 344.886 427.4549 340.8616 426.7519 331.4928 425.6955 328.218 428.747 323.3194 433.3116 331.8432 436.3963 333.8759 449.5499 334.8456 455.8249 334.614 453.9951 331.6073 459.9629 331.2343 460.7036 331.0764 461.7303 330.9066 462.5867L328.6517 472.2548C327.4279 471.7928 327.113 471.3001 326.2014 470.5279 322.026 472.8518 310.4529 477.4952 308.6235 480.4033 313.384 479.6677 317.4868 479.0339 321.3439 479.4599 324.1624 479.7714 329.2109 480.8815 330.3043 482.9485 327.8203 482.8246 325.4587 480.4135 315.9445 481.7772 314.0393 482.0502 302.3334 485.7134 304.7227 479.8009 305.8801 476.9371 319.4938 471.1289 322.9004 470.1957 331.8333 467.7489 324.7146 471.246 328.0178 460.618 329.7008 455.2038 333.434 455.3782 328.5505 442.7181 327.0441 438.8134 321.6271 434.3825 323.8877 429.3703 324.9975 426.9098 328.3923 424.7093 332.6641 424.0491" fill="#a53a32" fill-rule="evenodd"/>
<path transform="matrix(1,0,0,-1,0,841.8898)" d="M369.8436 427.989C370.6526 431.0212 375.6288 431.1037 377.6635 432.6761 375.0789 432.9074 372.1139 432.1789 370.148 431.494 368.934 431.0708 367.8454 430.5983 366.8754 430.1535 359.3531 426.7074 375.5455 426.0336 374.1823 417.2119 373.7361 414.3254 370.3561 419.1877 369.3195 420.1756 367.4716 421.9362 362.8148 425.283 363.6473 419.682 362.0752 420.2674 361.6795 421.0614 359.8603 422.1096 358.3826 422.9609 357.1515 423.6338 355.0297 423.9618 344.8468 425.5353 340.1116 416.7825 330.9378 423.4737 331.3406 421.2587 333.9289 419.6426 337.3597 419.1126 347.4179 417.558 345.5283 422.4821 355.6511 420.918 359.1765 420.3731 362.5316 416.4477 362.9835 412.92 363.5685 408.3551 367.4611 409.7511 367.3911 413.6131 367.3871 413.835 367.0778 416.1776 368.1275 416.8843 370.2498 415.3363 370.3915 413.2633 372.7593 411.5361 375.2461 412.1297 376.0115 412.8537 376.9506 414.8019 377.8064 416.5775 378.0913 418.2381 377.5482 420.1911 376.8114 422.8407 373.1034 426.8682 369.8436 427.989" fill="#a53a32" fill-rule="evenodd"/>
<path transform="matrix(1,0,0,-1,0,841.8898)" d="M358.3636 459.6622C358.4398 460.1563 359.5482 461.4786 359.9685 461.7995 360.8419 462.4659 361.4797 462.513 362.8369 462.6541 366.1356 462.9971 365.8329 462.1697 367.8075 460.7291 365.9241 456.7961 363.009 456.4332 358.6425 457.9345 358.4704 459.1559 358.2179 458.7199 358.3636 459.6622ZM355.8251 460.8967 355.5768 455.0479C358.7074 454.6125 362.2606 455.22 364.6636 455.9071 368.8801 457.1124 377.3976 462.6162 363.5181 464.7611 358.5971 465.5214 355.877 463.0703 355.8251 460.8967" fill="#a53a32" fill-rule="evenodd"/>
<path transform="matrix(1,0,0,-1,0,841.8898)" d="M365.2381 493.5521C367.2729 492.4196 368.8396 492.774 371.5262 492.1268 373.0156 491.7682 375.5803 490.7242 376.7122 490.0944 376.0421 492.3788 370.3595 494.445 367.6249 494.8676 366.0511 495.1108 365.6795 494.4555 365.2381 493.5521" fill="#a53a32" fill-rule="evenodd"/>
<path transform="matrix(1,0,0,-1,0,841.8898)" d="M335.5982 432.4391C337.8067 432.2415 337.9499 432.7379 339.4831 433.618 341.3083 434.6657 341.2962 434.4769 341.0955 436.2216 338.5644 436.4481 338.5108 435.8574 336.5649 433.8133 335.7071 432.9122 336.0869 433.4596 335.5982 432.4391" fill="#a53a32" fill-rule="evenodd"/>
<path transform="matrix(1,0,0,-1,0,841.8898)" d="M332.9717 436.6349C332.3974 432.9187 332.4954 434.9449 333.0601 433.6736 335.1586 434.4664 335.5449 435.6261 335.8278 437.457 336.0711 439.0294 336.0146 437.5814 335.4854 438.7731 333.7943 438.6889 333.2296 438.3026 332.9717 436.6349" fill="#a53a32" fill-rule="evenodd"/>
<path transform="matrix(1,0,0,-1,0,841.8898)" d="M359.8356 458.5924C362.8071 458.1853 365.1185 458.9722 365.6752 461.0588 362.7037 461.4659 360.3926 460.679 359.8356 458.5924" fill="#a53a32" fill-rule="evenodd"/>
<path transform="matrix(1,0,0,-1,0,841.8898)" d="M244.8218 472.2452C246.4002 479.6583 250.9903 479.1288 253.8244 476.8058 252.089 471.1774 248.0941 469.5627 244.8218 472.2452ZM183.8693 469.3292C189.3883 464.8054 194.9632 466.6776 202.3563 467.458 205.3678 467.7758 210.2882 468.1755 212.5253 470.5733 211.2982 471.5793 211.2015 471.9229 209.7547 472.3027L207.3365 472.3055C201.9538 471.6403 192.0674 468.5797 187.5838 472.2548 190.7203 475.95 195.4536 477.1925 198.6653 478.9687 200.2045 479.8199 199.4873 479.5702 201.1221 480.2726 202.2979 480.778 201.0813 479.9353 203.1636 481.1508 206.3117 482.9876 206.096 483.9333 206.9169 485.405 204.3295 487.5262 203.506 488.0631 202.6369 490.6193 204.6685 492.7969 207.8572 493.1147 210.3752 493.3154 213.8468 493.5915 215.2349 492.342 218.5268 496.3578 216.7155 499.0578 214.4514 501.4916 215.5258 503.9348 226.7359 494.746 228.6485 501.6495 227.181 505.8003 226.6469 507.3109 225.7855 509.4935 224.9957 510.6713L226.2501 512.2015C227.5705 510.8581 226.9548 510.7711 228.9804 509.1106 232.5594 506.177 234.938 505.08 238.4504 502.2009 240.9528 503.2806 243.491 504.0955 243.0717 509.4711 242.5884 515.6717 239.9811 514.4856 240.5166 517.5652 247.0192 514.8663 249.0704 504.7214 253.1843 509.7399 255.5847 512.6683 253.9154 512.8449 255.3732 515.6215 257.8093 511.99 256.388 506.8933 257.2016 505.222 259.0699 501.3856 262.1115 507.4512 263.9976 510.2359L263.1124 507.4846C257.1262 494.1292 264.2485 501.391 267.2374 492.7238 268.6229 488.7062 267.1061 482.5273 261.6338 481.9187 254.8871 481.1686 250.3216 485.8591 240.3317 484.0004 237.0124 483.3828 228.378 480.6068 230.8995 478.5398 232.7975 476.9838 234.2551 478.2059 236.5534 478.8978 238.6035 479.5152 240.7141 480.4155 242.6077 479.177 239.6744 475.09 237.3752 471.5257 240.6895 468.8093 250.1453 461.058 257.1911 474.446 258.2271 475.7553 262.7955 475.8843 261.8702 476.1198 266.7104 474.3513 271.1064 472.7455 267.1033 472.4745 261.2823 470.0086 259.5881 469.2909 258.9644 469.1007 257.2061 468.4717 254.88 467.6394 255.2871 468.1548 253.0865 465.4704 256.055 461.0455 260.1227 456.1733 259.7576 450.8836 259.2077 442.9123 249.899 440.7914 246.7899 443.3397 244.3173 445.3665 244.4871 451.2027 244.275 452.6833 244.1262 453.7233 244.3782 453.2193 243.8872 454.2477 241.274 441.974 252.1701 436.2565 258.9165 444.4869 262.8091 449.2355 262.5982 456.0449 260.1709 459.6636 263.3542 463.0757 268.1297 465.0282 271.313 468.4405 266.9443 468.3172 261.2285 461.5313 257.4896 464.4198 260.0084 467.1198 264.6425 467.6244 267.6974 468.8487 273.8891 471.3304 274.5369 469.965 277.9296 474.1041 275.5295 477.682 269.5975 476.8396 265.9997 479.6186 272.8157 485.4334 272.848 491.7923 269.3894 496.9483 269.0793 497.4103 268.0829 498.706 267.7575 499.0618 265.1258 501.9401 267.4066 497.6714 264.253 502.3723 265.604 504.7946 266.6747 506.863 267.9318 509.4249 270.6395 514.9446 267.4145 519.8757 261.3257 512.4478 259.5762 515.056 259.3074 523.7014 251.5113 521.3455 249.8289 518.3291 250.5773 519.2666 250.5776 516.8897 250.5781 513.5678 251.3367 514.6656 242.2627 522.1037 241.861 522.4331 240.0775 523.2107 239.8371 523.2631 236.3868 524.014 233.6947 520.619 236.9004 514.6622 237.5212 513.5085 238.1207 512.5382 238.6074 511.3346 239.1208 510.0659 239.5329 508.9779 238.5981 507.1972 233.7761 511.1498 225.5377 520.1629 221.5026 515.2402 219.1178 512.3307 223.3695 507.3364 222.7819 503.9569 220.8827 505.5137 219.9302 505.5503 217.6418 507.3435 214.4146 509.8717 213.2067 509.1333 211.172 506.651 209.1047 504.129 211.4504 500.1917 212.1316 498.1884 208.9494 495.61 204.6294 498.6692 199.4638 492.3675 197.621 490.119 199.3884 486.5516 201.2596 484.9254 197.4467 480.8384 189.5528 480.2763 184.8288 474.5132 183.4197 472.7942 182.5971 470.372 183.8693 469.3292" fill="#a53a32" fill-rule="evenodd"/>
<path transform="matrix(1,0,0,-1,0,841.8898)" d="M197.2256 455.4989C191.2861 429.6172 202.9737 382.7738 225.4093 367.6861 207.1446 390.1819 197.4745 425.2241 201.723 456.8899 200.1725 455.5604 199.0879 456.2436 197.2256 455.4989ZM245.0064 350.5785C249.1092 348.4755 252.6701 347.2679 255.2814 346.9813L251.3752 348.6549 245.2983 350.4781C245.1991 350.5076 245.1027 350.5422 245.0064 350.5785" fill="#a53a32" fill-rule="evenodd"/>
<path transform="matrix(1,0,0,-1,0,841.8898)" d="M192.0915 466.4931C193.4413 467.5847 201.062 468.3912 199.9721 465.1688 198.7373 461.842 197.8478 458.3426 197.1386 455.0587 198.5151 455.8156 200.0789 455.5817 201.1958 454.6772 201.9583 457.4183 202.3503 459.3472 203.0593 462.155 206.8449 472.5581 203.1809 471.4265 193.4773 470.3726 191.5152 469.7101 192.0461 470.3672 190.2078 468.8796Z" fill="#a53a32" fill-rule="evenodd"/>
<path transform="matrix(1,0,0,-1,0,841.8898)" d="M250.0608 472.2148 252.5698 475.2754C250.8625 475.9055 247.7307 474.3031 246.0515 472.9428 247.6599 471.8906 248.4995 472.1706 250.0608 472.2148" fill="#a53a32" fill-rule="evenodd"/>
<path transform="matrix(1,0,0,-1,0,841.8898)" d="M443.7153 548.716C450.2429 548.1726 468.9173 539.1975 474.5594 536.3918 514.9511 516.297 535.5249 477.123 525.4209 433.707 522.5627 421.4279 518.0658 410.9131 511.0353 401.224 501.1991 387.6704 488.5764 377.3506 473.3459 369.8439 454.2097 360.4099 423.4153 356.4955 401.944 362.8208 399.6292 363.5025 396.6559 365.29 396.832 363.2128L397.986 361.2387C398.0018 361.2257 401.4414 358.9574 401.7297 358.7726 404.403 357.0449 406.8955 355.0054 410.0581 353.4843 416.0526 350.6014 423.4065 348.0083 430.147 346.4379 432.7807 335.1365 432.8215 314.2565 430.3202 303.0962 426.0694 284.1335 414.6279 271.2399 398.4418 263.4386 382.8385 255.9189 329.3867 257.5868 308.0392 257.635 298.3839 257.6568 292.9181 256.343 284.6449 256.3617 270.379 256.3954 173.3873 245.9443 160.0333 236.6663 284.1265 247.9212 357.0086 252.1868 469.6166 202.0754 469.6166 250.4313 473.3167 300.6068 473.3167 348.9058 487.1443 350.0566 508.818 365.1355 518.9457 374.813 530.9697 386.3052 537.4466 397.2543 545.2781 412.6161 557.7888 437.1554 555.2147 470.2107 544.5221 495.3487 529.9149 529.6876 490.1961 556.7661 451.914 551.6178 445.4079 550.7422 446.5922 552.6434 443.7153 548.716" fill="#a65b44" fill-rule="evenodd"/>
<path transform="matrix(1,0,0,-1,0,841.8898)" d="M41.6273 451.277C41.6273 421.4047 46.9488 404.6445 63.2806 382.892 78.16 363.0728 91.7634 358.2714 109.4644 348.9058 109.4644 331.5033 111.7619 318.6459 113.0584 303.1634 113.593 296.7695 114.3986 293.1466 114.3986 287.2349L165.6782 298.8587C174.9665 300.9461 211.8504 306.9697 220.4702 306.9697 220.2953 314.8495 218.9361 313.7292 211.3727 312.5129L166.2012 306.9697C153.7211 306.9697 145.7393 313.0651 139.3384 319.5751 134.9158 324.0737 126.1168 337.7775 125.4991 345.2057 128.9285 343.5593 127.8867 343.9718 132.8995 343.9718L109.6319 360.1723C102.8407 365.207 95.146 373.0139 89.4209 379.4309 84.9849 384.4015 77.1491 396.985 74.09 403.5679 63.049 427.3206 63.8036 455.0414 75.3106 478.0307 87.9642 503.31 109.8927 523.2226 138.3797 529.6671 163.802 535.4186 187.7933 533.4956 211.8549 524.0659 215.4923 522.6412 220.0708 519.8791 222.9364 519.1143 219.223 533.0251 181.0749 551.1821 158.8008 551.1821 131.7124 551.1821 110.6226 547.4979 88.4812 532.6957L73.9675 521.3098C72.8325 520.2609 71.7823 519.4335 70.7292 518.3816L62.0467 508.5615C51.0934 493.9926 41.6273 471.7389 41.6273 451.277" fill="#a65b44" fill-rule="evenodd"/>
<path transform="matrix(1,0,0,-1,0,841.8898)" d="M195.8026 547.482C205.1813 553.7622 234.582 614.0854 301.8742 614.0854 322.2748 614.0854 325.063 615.3701 345.3384 609.4471 367.6983 602.915 386.2689 585.6114 399.6918 567.5956 416.8363 544.5802 426.145 506.4273 421.6918 475.6649 420.4624 467.1748 419.5548 467.4328 425.2141 466.0778 429.9415 469.542 436.0309 485.4645 437.8283 492.9318 440.879 505.6087 441.0215 514.7456 439.9248 528.8907 439.16 538.7502 434.8174 553.0294 430.986 560.6541 422.3299 577.8802 411.0676 593.9938 396.4867 606.3267 356.7362 639.9502 313.6229 648.0658 263.4724 631.5199 240.6302 623.984 219.5728 605.9886 208.5364 585.3172 203.9315 576.6931 196.7451 558.8127 195.8026 547.482" fill="#a65b44" fill-rule="evenodd"/>
<path transform="matrix(1,0,0,-1,0,841.8898)" stroke-width="1.4998" stroke-linecap="butt" stroke-miterlimit="22.925585" stroke-linejoin="miter" fill="none" stroke="#a65b44" d="M298.1296 563.9057C331.617 563.9057 358.7641 555.683 358.7641 545.5389 358.7641 535.3948 331.617 527.1721 298.1296 527.1721 264.6422 527.1721 237.4951 535.3948 237.4951 545.5389 237.4951 555.683 264.6422 563.9057 298.1296 563.9057Z"/>
<path transform="matrix(1,0,0,-1,0,841.8898)" stroke-width="1.9998" stroke-linecap="butt" stroke-miterlimit="22.925585" stroke-linejoin="miter" fill="none" stroke="#a65b44" d="M298.1296 562.2735C330.9659 562.2735 357.5846 554.7813 357.5846 545.5389 357.5846 536.2965 330.9659 528.8046 298.1296 528.8046 265.2934 528.8046 238.6746 536.2965 238.6746 545.5389 238.6746 554.7813 265.2934 562.2735 298.1296 562.2735Z"/>
<path transform="matrix(1,0,0,-1,0,841.8898)" d="M312.567 601.7029C304.5407 576.8697 320.7149 576.2687 311.4247 553.2797 311.4496 570.378 308.1694 567.2231 305.9249 577.9706 303.266 590.6931 311.8156 602.9099 312.567 601.7029" fill="#a65b44" fill-rule="evenodd"/>
<path transform="matrix(1,0,0,-1,0,841.8898)" d="M303.9273 613.3178C287.1865 576.0077 315.5193 573.1163 296.7562 538.8024 298.624 565.1597 292.5281 560.6946 289.734 577.5367 286.4228 597.4739 302.737 615.2703 303.9273 613.3178" fill="#a65b44" fill-rule="evenodd"/>
<path transform="matrix(1,0,0,-1,0,841.8898)" d="M289.9522 607.6077C275.4377 570.299 298.4315 567.4073 286.2062 533.0923 287.5385 559.4496 279.7662 554.9871 277.7729 571.8268 275.4128 591.764 289.103 609.5602 289.9522 607.6077" fill="#a65b44" fill-rule="evenodd"/>
<path transform="matrix(1,0,0,-1,0,841.8898)" d="M283.9459 417.9535 285.0616 415.7569C286.7017 411.1858 283.8892 404.5904 282.0047 401.1684 280.8456 399.064 278.5241 396.0071 276.8542 394.1345L270.9264 387.754C266.6506 383.2597 262.5038 378.5998 262.5038 372.4991 260.962 373.3671 259.7068 377.2006 259.7068 379.5523 259.7068 381.7862 260.4963 382.2225 260.6394 383.6667 259.3774 383.6432 259.3426 383.275 258.5991 382.6389 258.0007 382.127 257.6415 381.8628 257.1432 381.3157 254.2816 378.174 252.3013 376.5234 250.0512 371.9954 246.9878 365.8309 246.4223 361.2373 246.4223 354.67 245.4267 354.8648 244.6254 355.3971 243.6106 355.6823 241.5478 356.2614 242.869 354.8194 243.1108 354.2406 245.1864 349.2774 243.4958 341.7032 251.3285 331.3647 252.966 329.2038 258.5546 323.8946 261.1054 323.322V322.9302C258.5109 322.3477 256.9575 317.4673 259.8863 315.0479 260.5011 314.5399 260.3741 314.8809 260.8724 314.3095L253.8822 311.565C253.6608 311.4575 253.489 311.3663 253.3408 311.2724 253.0502 311.0882 252.8484 310.8926 252.536 310.5417 250.4049 308.1464 250.6156 304.3451 251.9447 301.7106 252.4779 300.6536 253.1959 299.5863 253.9769 298.7167 255.2289 297.322 257.9751 294.9131 260.6394 294.9131 263.7607 294.9131 277.7581 303.2957 278.8183 303.5336 277.971 300.4761 279.9853 297.9641 282.0226 296.4311 286.8985 292.7616 302.5908 291.6026 302.5908 303.7294L305.5615 300.9368C306.6335 300.0455 307.5661 299.3275 308.7196 298.4973 312.1506 296.0271 314.839 295.3049 319.1386 295.3049 327.3494 295.3049 333.3285 303.2101 327.5612 309.2426 326.5948 310.2534 324.8906 312.1965 323.3336 312.546V312.9378C325.6435 313.0997 326.8738 315.5715 326.9931 317.4834 327.2017 320.8229 324.5374 321.9077 324.2659 322.5385 327.6975 324.0649 330.7972 326.2473 333.1959 328.746 333.9799 329.5627 334.8522 330.4366 335.5036 331.3125 339.2266 336.3194 339.1554 339.5993 339.9809 344.6297L339.6898 350.9824C339.1605 354.0764 338.3444 356.8212 337.1746 359.644 335.7972 362.9673 332.6562 367.1283 332.6562 370.3439 332.6562 376.1243 335.1711 376.3636 335.6861 377.985 334.925 378.4133 335.524 378.2055 334.554 378.4102 333.3742 378.6588 332.0116 378.4929 330.6923 378.2645 329.1772 378.0026 327.3769 377.5859 326.0974 377.229 321.124 375.8428 320.5919 374.5593 318.6726 373.4785 318.6726 388.2906 311.9658 399.0166 300.3222 408.7973L294.4009 413.028C293.3561 413.6905 292.3988 414.2679 291.3058 414.9323 289.5403 416.0061 286.13 417.9535 283.9459 417.9535Z" fill="#f05d37" fill-rule="evenodd"/>
<path transform="matrix(1,0,0,-1,0,841.8898)" stroke-width=".216" stroke-linecap="butt" stroke-miterlimit="22.925585" stroke-linejoin="miter" fill="none" stroke="#fbe805" d="M283.9459 417.9535 285.0616 415.7569C286.7017 411.1858 283.8892 404.5904 282.0047 401.1684 280.8456 399.064 278.5241 396.0071 276.8542 394.1345L270.9264 387.754C266.6506 383.2597 262.5038 378.5998 262.5038 372.4991 260.962 373.3671 259.7068 377.2006 259.7068 379.5523 259.7068 381.7862 260.4963 382.2225 260.6394 383.6667 259.3774 383.6432 259.3426 383.275 258.5991 382.6389 258.0007 382.127 257.6415 381.8628 257.1432 381.3157 254.2816 378.174 252.3013 376.5234 250.0512 371.9954 246.9878 365.8309 246.4223 361.2373 246.4223 354.67 245.4267 354.8648 244.6254 355.3971 243.6106 355.6823 241.5478 356.2614 242.869 354.8194 243.1108 354.2406 245.1864 349.2774 243.4958 341.7032 251.3285 331.3647 252.966 329.2038 258.5546 323.8946 261.1054 323.322V322.9302C258.5109 322.3477 256.9575 317.4673 259.8863 315.0479 260.5011 314.5399 260.3741 314.8809 260.8724 314.3095L253.8822 311.565C253.6608 311.4575 253.489 311.3663 253.3408 311.2724 253.0502 311.0882 252.8484 310.8926 252.536 310.5417 250.4049 308.1464 250.6156 304.3451 251.9447 301.7106 252.4779 300.6536 253.1959 299.5863 253.9769 298.7167 255.2289 297.322 257.9751 294.9131 260.6394 294.9131 263.7607 294.9131 277.7581 303.2957 278.8183 303.5336 277.971 300.4761 279.9853 297.9641 282.0226 296.4311 286.8985 292.7616 302.5908 291.6026 302.5908 303.7294L305.5615 300.9368C306.6335 300.0455 307.5661 299.3275 308.7196 298.4973 312.1506 296.0271 314.839 295.3049 319.1386 295.3049 327.3494 295.3049 333.3285 303.2101 327.5612 309.2426 326.5948 310.2534 324.8906 312.1965 323.3336 312.546V312.9378C325.6435 313.0997 326.8738 315.5715 326.9931 317.4834 327.2017 320.8229 324.5374 321.9077 324.2659 322.5385 327.6975 324.0649 330.7972 326.2473 333.1959 328.746 333.9799 329.5627 334.8522 330.4366 335.5036 331.3125 339.2266 336.3194 339.1554 339.5993 339.9809 344.6297L339.6898 350.9824C339.1605 354.0764 338.3444 356.8212 337.1746 359.644 335.7972 362.9673 332.6562 367.1283 332.6562 370.3439 332.6562 376.1243 335.1711 376.3636 335.6861 377.985 334.925 378.4133 335.524 378.2055 334.554 378.4102 333.3742 378.6588 332.0116 378.4929 330.6923 378.2645 329.1772 378.0026 327.3769 377.5859 326.0974 377.229 321.124 375.8428 320.5919 374.5593 318.6726 373.4785 318.6726 388.2906 311.9658 399.0166 300.3222 408.7973L294.4009 413.028C293.3561 413.6905 292.3988 414.2679 291.3058 414.9323 289.5403 416.0061 286.13 417.9535 283.9459 417.9535Z"/>
<path transform="matrix(1,0,0,-1,0,841.8898)" d="M260.4064 362.8987C261.14 362.4466 260.9929 362.1742 261.4127 361.3941 261.7191 360.8249 261.9437 360.5295 262.3669 360.0405 263.2952 358.9682 266.775 355.7659 268.122 355.9311 269.3041 356.0766 265.9969 359.7216 269.2259 366.4565 270.6826 369.4946 273.3035 371.9656 276.078 374.019 278.0099 375.4488 283.6474 380.2663 285.1112 381.9033 286.2726 383.2021 287.1884 384.4142 287.9444 385.9872 288.5454 387.2364 290.1713 391.5391 289.0732 393.463 290.2754 393.1931 293.2004 391.3058 294.3034 390.6108 301.8257 385.8704 304.816 379.9658 306.6129 372.3534 307.0658 370.4343 307.4868 368.46 308.2133 366.6455 308.9803 364.7299 311.8309 358.2184 314.9433 358.0007 315.193 360.5241 317.8743 361.7935 319.8376 362.8987 319.7769 362.2861 319.6046 362.2025 319.6046 361.5273 319.6046 358.8129 321.4018 354.6391 322.2179 351.9689 324.3016 345.1518 325.535 340.306 322.3074 333.7849 320.1914 329.5094 314.6134 325.1546 309.5084 322.9929 308.399 322.5229 307.1044 321.9996 305.854 321.7547 306.375 322.4089 307.1441 322.7343 307.8972 323.3676 311.9641 326.7862 316.1086 333.686 316.1086 338.4082 316.1086 342.0519 316.158 346.0269 314.2443 349.38 313.6065 348.9874 312.7972 346.2593 312.2816 345.348 312.0021 344.8545 312.1223 345.0756 311.9134 344.8738 311.9134 348.1707 311.2404 351.7452 309.9742 354.0192 307.4734 358.5112 303.9432 360.222 301.5601 362.8159 299.8789 364.6468 292.6395 369.2772 294.5769 374.3379 294.9069 375.2002 295.1158 374.9275 295.3658 375.8298 293.8671 375.8298 293.5738 375.7048 292.6071 375.2101 291.7851 374.7892 291.2516 374.5145 290.5041 374.0389 289.7858 373.5819 289.2543 373.2466 288.5335 372.7568 285.3201 370.5732 282.6669 368.5501 280.0471 365.5882 278.0991 363.386 276.5497 360.8186 275.6928 357.6895 275.3195 356.3277 274.9005 354.1893 274.8487 352.7169 274.7883 351.0085 274.843 348.6523 275.3223 347.8127 274.5876 347.9774 274.2367 348.3969 273.6592 348.7657 273.0824 349.1342 272.6067 349.3834 272.0268 349.7445 271.3195 350.1853 271.0857 350.2451 270.2965 350.6426 269.9096 350.8376 269.6131 351.104 268.9333 351.1806 268.0311 351.282 268.0795 350.6309 267.9775 350.2644L267.863 341.346C268.185 336.0203 271.0922 329.8394 274.7537 325.7827 275.7231 324.7089 276.5619 323.873 277.708 322.9764 279.3115 321.7226 280.2254 321.6203 281.382 320.775 279.9556 320.8748 276.9562 321.7921 275.6551 322.23L270.7373 324.1698C261.7362 328.1584 256.9102 341.1176 256.9102 349.38 256.9102 351.879 257.5083 354.6731 258.0171 356.6786 258.9775 360.4654 260.034 361.5557 260.4064 362.8987" fill="#f59600" fill-rule="evenodd"/>
<path transform="matrix(1,0,0,-1,0,841.8898)" d="M291.1708 347.6166V350.1638C291.1708 350.839 290.9982 350.9223 290.9378 351.5352L294.3612 349.5152C295.5648 348.6966 296.153 348.1662 297.1026 347.1174 299.7204 344.2249 300.0271 341.4861 300.0271 338.0162 300.0271 335.1078 298.7413 333.121 299.3281 332.5303 300.0594 332.6947 300.1663 332.898 300.6584 333.3713 300.7182 333.4289 300.9716 333.6763 300.9827 333.6863L301.214 333.8838C302.271 334.7478 303.3975 335.287 304.6884 335.8613 304.1898 334.2912 303.2498 334.0043 303.2901 329.9834 303.3916 319.8433 291.8449 317.4676 286.0838 320.417 283.6086 321.6841 284.271 321.429 282.7199 322.8792 280.175 325.2583 279.5083 328.7472 279.6951 331.8049 279.7143 332.1193 279.7438 332.3809 279.7489 332.7185 279.7852 335.0531 280.4499 336.1754 280.4499 338.2123 282.0234 337.3265 282.8276 335.6422 284.1789 334.8814 286.8724 336.3979 291.1708 343.6571 291.1708 347.6166" fill="#ffed00" fill-rule="evenodd"/>
<path transform="matrix(1,0,0,-1,0,841.8898)" d="M276.0216 351.5352C276.0216 359.7049 279.1752 363.5059 284.1222 368.2361L290.0755 372.6363C290.7652 373.1054 292.7021 374.279 293.5015 374.4584 292.9365 372.4203 292.9552 371.3502 293.8961 369.5 295.649 366.0528 300.0342 362.3941 303.232 359.7151 309.7429 354.2593 310.1893 350.8098 310.7347 343.6869 310.8121 342.6744 310.5051 343.1554 311.2143 342.7186 312.4131 342.1193 313.3256 345.9178 314.2443 347.0289 314.2843 345.5133 314.9433 344.2921 314.9433 342.5227 314.9433 338.5023 315.0176 336.3474 313.215 332.4161 310.8376 327.2321 305.8719 321.5146 299.0951 320.1871 306.0017 325.2339 303.588 328.8889 304.7876 333.6228 304.9685 334.3365 305.496 335.374 305.8554 335.8599 306.6783 336.9725 307.1957 336.5175 307.4851 337.4286 301.6602 336.2879 302.3623 335.2487 300.7264 334.8814 301.0501 335.4491 301.1924 337.1066 301.1924 338.0162 301.1924 340.9843 301.1479 342.7639 299.5668 345.4662 298.8774 346.6443 297.7435 347.9377 296.6261 348.872 296.4781 348.9956 296.3126 349.1101 296.1371 349.2445 294.5401 350.4648 293.5857 351.1655 291.5592 352.0593 287.9524 353.6504 290.2385 351.4456 290.2385 348.988 290.2385 346.7203 289.1923 343.207 288.2976 341.6071 287.5703 340.306 285.4664 336.782 284.1789 336.0572 283.6531 336.3531 283.6006 336.5456 283.176 336.9773 282.5439 337.6196 280.7753 339.2101 279.9836 339.3879 279.786 339.042 279.3161 336.4739 279.148 335.7802 278.4974 333.0952 278.5853 332.6026 278.5853 329.9834 278.5853 324.6242 281.4574 323.1204 283.0136 321.1668 282.1538 321.3351 280.3686 322.2697 279.7149 322.704 276.8151 324.6316 276.8905 324.8481 274.788 327.183 272.7757 329.4181 270.9394 332.977 270.0981 335.7797 268.5342 340.9892 268.7967 342.8527 268.7967 348.0086 268.7967 349.0963 269.0297 349.1702 269.0297 350.1638 269.9382 349.9855 272.0971 348.7513 272.814 348.251 274.2704 347.235 275.3872 346.2659 276.4877 346.2452 276.4877 348.012 276.0216 349.5084 276.0216 351.5352" fill="#ffed00" fill-rule="evenodd"/>
<path transform="matrix(1,0,0,-1,0,841.8898)" d="M254.183 330.1209 254.1135 330.1795C254.0903 330.16 254.1784 330.1248 254.183 330.1209" fill="#f05d37" fill-rule="evenodd"/>
<path transform="matrix(1,0,0,-1,0,841.8898)" d="M264.3684 327.0444C264.3452 327.0251 264.4333 326.99 264.4379 326.986Z" fill="#f05d37" fill-rule="evenodd"/>
<path transform="matrix(1,0,0,-1,0,841.8898)" d="M273.924 321.3626C273.9008 321.3434 273.9889 321.3082 273.9934 321.3043Z" fill="#f05d37" fill-rule="evenodd"/>
<path transform="matrix(1,0,0,-1,0,841.8898)" d="M271.1273 322.5385C271.1041 322.5189 271.192 322.4837 271.1968 322.4801Z" fill="#f05d37" fill-rule="evenodd"/>
<path transform="matrix(1,0,0,-1,0,841.8898)" d="M265.9054 324.6936C266.1358 324.7251 265.7667 325.1948 265.7667 324.6936 265.7667 324.1466 265.9025 324.6931 265.9054 324.6936" fill="#f05d37" fill-rule="evenodd"/>
<path transform="matrix(1,0,0,-1,0,841.8898)" d="M268.0974 324.1057C268.0741 324.0862 268.1623 324.051 268.1668 324.0473Z" fill="#f05d37" fill-rule="evenodd"/>
<path transform="matrix(1,0,0,-1,0,841.8898)" d="M266.7849 324.6664C266.8039 324.6554 266.8666 324.6216 266.8842 324.6117L267.0735 324.5301C267.082 324.5539 267.1418 324.4779 267.2039 324.4649L266.466 324.8895C266.5193 324.8419 266.6452 324.7543 266.6809 324.7316 266.7008 324.7191 266.764 324.6789 266.7849 324.6664" fill="#f05d37" fill-rule="evenodd"/>
<path transform="matrix(1,0,0,-1,0,841.8898)" d="M265.3007 326.0648C265.2452 325.9709 264.8588 324.6829 265.5337 325.4771L265.4354 325.7714C265.4331 325.8258 265.5694 325.8388 265.5726 325.9018Z" fill="#f05d37" fill-rule="evenodd"/>
<path transform="matrix(1,0,0,-1,0,841.8898)" d="M264.3684 326.0648C264.3452 326.0455 264.4333 326.0103 264.4379 326.0066Z" fill="#f05d37" fill-rule="evenodd"/>
<path transform="matrix(1,0,0,-1,0,841.8898)" d="M264.1351 326.0648C264.0651 326.0894 263.0245 326.4109 263.3973 326.0322L263.7856 325.8692 263.9412 325.8363Z" fill="#f05d37" fill-rule="evenodd"/>
<path transform="matrix(1,0,0,-1,0,841.8898)" d="M265.9997 325.2813C266.3872 323.8838 266.8224 324.0187 267.5727 323.8274 268.7391 323.53 268.4883 323.6865 269.0629 322.9685 269.0824 322.9435 269.1476 322.8202 269.1624 322.8503 269.1765 322.8803 269.2253 322.7703 269.2627 322.7343 269.1354 324.0187 268.488 323.7789 268.4024 323.8075 267.6246 324.0669 268.0654 324.0865 267.3981 324.4975 267.637 323.5496 267.5823 324.2217 267.3981 323.9096 266.904 324.6951 267.2844 324.2191 267.0097 324.3231L266.7764 324.3144C266.7764 324.3144 266.2894 325.4437 265.5337 325.8692 265.7254 325.1075 265.7254 325.6509 265.5337 324.8895 264.6193 325.7736 265.1579 325.7195 263.9789 325.669L263.7383 325.6523C263.3581 325.6727 263.5381 325.6044 263.3652 325.8975 263.2564 326.082 263.5758 326.4537 262.7368 326.0648 263.7278 325.4547 262.9057 325.3218 264.1952 325.3844 264.9056 325.4187 265.0348 325.4567 265.3007 324.4975L265.8997 325.1696C265.9144 325.2328 265.9635 325.2461 265.9997 325.2813" fill="#f05d37" fill-rule="evenodd"/>
<path transform="matrix(1,0,0,-1,0,841.8898)" d="M261.3385 326.4568C262.6495 326.0015 262.2767 325.9936 262.5038 326.2609 261.4975 326.8273 261.542 326.6932 261.3385 326.4568" fill="#f05d37" fill-rule="evenodd"/>
<path transform="matrix(1,0,0,-1,0,841.8898)" d="M264.8344 324.6936C265.5828 323.5045 265.5142 324.239 266.8805 323.6318L267.1053 323.5365C267.6719 323.2783 268.2984 323.1065 268.7511 322.6873 269.0957 322.3681 269.0949 322.3199 269.5734 322.3375L270.1378 322.3647C270.1511 322.3661 270.2132 322.3794 270.2259 322.3811L272.0968 321.8255C272.1107 321.8207 272.1861 321.7623 272.1957 321.7893 272.2054 321.8153 272.2677 321.7337 272.3315 321.7221L271.9117 322.1235C271.8876 322.1303 271.8247 322.1507 271.8006 322.1572L270.1057 322.7264C269.8248 322.8146 270.212 322.4463 269.8892 322.8797 269.5663 323.3134 269.8328 322.9469 269.7287 323.322 269.7007 323.2837 269.6825 323.2191 269.6737 323.1952L269.585 322.952C269.5771 322.9265 269.5626 322.8613 269.5561 322.8381 269.5501 322.8168 269.5371 322.7491 269.5329 322.7321L269.2945 322.5909C269.2777 322.5977 269.2111 322.6181 269.1924 322.6275 269.1729 322.6371 269.1102 322.662 269.0901 322.6748 268.5872 322.9883 268.8707 323.1683 268.2595 323.3191 268.2473 323.3222 268.1923 323.3384 268.1799 323.3426L267.1055 323.7534C267.0795 323.7608 267.012 323.7735 266.9862 323.782L265.9173 324.3223C264.2865 324.4071 265.6023 325.0854 264.5237 325.0851 264.5133 325.0851 264.4566 325.0851 264.4461 325.0851 264.1263 325.0851 264.6105 325.0854 264.2907 325.0854H263.4361C262.5888 325.6384 263.3335 325.7711 261.9808 326.1163 261.9553 326.1229 261.8887 326.1407 261.8631 326.1472L260.9334 326.4335C260.9107 326.4443 260.8523 326.4797 260.8308 326.4905 260.2959 326.7581 260.5294 326.7298 259.9401 326.4568L262.6634 325.6611C263.1606 325.4236 263.1892 324.6936 263.7468 324.6936Z" fill="#f05d37" fill-rule="evenodd"/>
<path transform="matrix(1,0,0,-1,0,841.8898)" d="M266.6991 322.9302C266.7229 322.9231 266.7671 322.9384 266.7745 322.9384 267.2385 322.9418 267.4463 322.7003 268.0016 322.4529L268.753 322.1184C269.6703 321.4862 269.7191 322.1229 271.0689 321.7465L271.5352 321.6033C271.5605 321.5959 271.6262 321.5744 271.6515 321.5676 271.6994 321.5543 271.8366 321.5151 271.8848 321.5052L272.7181 321.4023C273.9441 321.1775 273.6204 321.3799 273.691 321.5585 272.4911 321.7723 272.6427 321.4865 271.6515 321.7629L270.6029 322.0478C270.2188 322.092 269.3619 321.9724 269.0957 322.0997L267.4732 322.9696C267.4602 322.9764 267.41 323.0104 267.3969 323.0192L266.2957 323.7072C266.0292 323.8455 266.1667 323.78 265.9456 323.814 263.8845 324.1312 265.8231 324.3186 264.0574 324.3016 262.8808 324.2903 263.742 324.1976 262.967 325.0905 262.5015 325.6265 262.8621 325.2311 262.4474 325.4227L261.6511 325.7059C261.6378 325.7107 261.5828 325.7331 261.5686 325.7391L260.8186 326.0511C260.7707 326.0642 260.6306 326.0923 260.5825 326.1056 259.8075 326.317 260.0328 326.3689 259.5283 326.6495L258.7748 326.6527C260.5493 326.0367 260.0773 326.0109 260.9521 325.7053 260.9643 325.7011 261.0184 325.6892 261.0298 325.6858L261.7483 325.4054C261.7727 325.3935 261.8365 325.3646 261.8609 325.3527L262.586 325.0712C263.0906 325.0259 262.8337 324.2367 263.6062 324.0065 264.1507 323.8444 263.6864 324.3413 265.2426 323.7171 266.4309 323.24 265.642 324.6094 266.6991 322.9302" fill="#f05d37" fill-rule="evenodd"/>
<path transform="matrix(1,0,0,-1,0,841.8898)" d="M265.3007 322.9302C265.3248 322.9228 265.3707 322.9299 265.3781 322.9299L265.9963 322.9557C266.4196 322.8891 266.3586 322.5506 267.0846 322.306L267.6827 322.0291C267.7076 322.0206 267.7745 322.0019 267.7997 321.9942L268.2714 321.8766C268.2972 321.8683 268.3627 321.8491 268.3882 321.8397 268.4149 321.8304 268.4786 321.8066 268.5053 321.7955 269.3259 321.4593 269.1615 321.4494 270.1366 321.4664L271.5335 321.1929C271.5565 321.1824 271.6157 321.1483 271.6373 321.1379L272.8508 320.8524C273.1961 320.6886 272.9126 320.773 273.1618 320.7019 273.7604 320.5307 274.7789 320.5865 275.3223 320.775 275.2903 320.7898 275.2393 320.8144 275.2268 320.8198 274.6003 321.0917 274.7631 320.9769 274.2347 320.9715L271.0689 321.5503C270.6248 321.6742 270.951 321.6489 270.3696 321.6654L267.7844 322.31C266.0958 322.9047 266.9165 322.8262 266.2328 323.322L264.7828 323.7664C264.7579 323.7769 264.6916 323.7976 264.6658 323.8047 264.4917 323.8529 263.7612 323.7715 263.6048 323.8095 263.1883 323.9096 262.9213 324.6857 262.6594 324.6826 262.1852 324.6763 262.3912 324.8629 261.887 325.0757L259.7692 326.0991C258.9327 326.7193 259.763 326.0676 259.0489 326.4174 258.3609 326.7541 258.8372 327.2014 258.0758 326.8485L259.3046 326.1501C260.0546 325.8386 260.1797 325.4457 260.7778 325.1945 260.7953 325.1871 260.8529 325.1571 260.8696 325.1509 260.8841 325.1452 260.9405 325.1251 260.9544 325.1205L262.4975 324.3056C262.5557 324.2854 262.5744 324.3651 262.9261 324.0743 264.3117 322.9294 264.3412 324.4541 265.3007 322.9302" fill="#f05d37" fill-rule="evenodd"/>
<path transform="matrix(1,0,0,-1,0,841.8898)" d="M275.4451 320.5823C275.4363 320.5777 275.396 320.544 275.3864 320.5397L272.1112 320.6826C271.8748 320.7283 272.0047 320.7076 271.686 320.8493L271.1242 321.042C270.4252 321.3454 269.7883 321.0789 269.0878 321.3136L267.4553 321.899C266.5843 322.1249 266.4825 322.494 265.5879 322.6294 264.7894 322.7505 265.1462 323.3248 264.6017 323.322 264.5915 323.3217 264.5345 323.3217 264.524 323.3214L263.9849 323.3146C263.9721 323.3157 263.914 323.3217 263.9007 323.3242 263.886 323.3268 263.8256 323.3378 263.81 323.3421L259.907 325.457C259.4971 325.8102 259.9149 325.569 259.5112 325.8454L258.0171 326.7984C257.9865 326.8276 257.9355 326.8769 257.9085 326.9038 257.6098 327.1997 257.6801 327.3653 257.3765 327.0444L259.0662 325.8227C259.0892 325.8111 259.1521 325.7915 259.1745 325.7804L262.7566 323.6803C263.2915 323.3863 263.8466 323.0175 264.4546 322.9427 264.4651 322.9413 264.5184 322.9432 264.5283 322.9418L264.8083 322.8369C265.2372 322.5455 264.4418 322.7842 265.4561 322.42 265.5017 322.4035 265.6327 322.3749 265.6732 322.367 265.6896 322.3638 265.7523 322.3585 265.7673 322.3565L266.8567 321.8488C266.9071 321.8321 267.0574 321.8074 267.1067 321.7946L267.4534 321.7017C267.4766 321.6943 267.5392 321.6711 267.5622 321.6634L270.6551 320.9851C270.6656 320.9834 270.7211 320.9769 270.7322 320.974L274.3886 320.2055C274.4019 320.2036 274.4597 320.1928 274.4728 320.1911 274.4844 320.1897 274.5405 320.1834 274.5522 320.1826L274.7812 320.1837C274.8127 320.184 274.9028 320.1857 274.9346 320.1863 274.945 320.1863 275.0012 320.1866 275.0119 320.1868 275.099 320.1874 275.0797 320.1871 275.1673 320.1874L275.4003 320.1868C275.4108 320.1868 275.4669 320.1868 275.4777 320.1868 275.4791 320.1868 275.6319 320.1874 275.6333 320.1874L276.6379 320.1636C276.8723 320.0751 276.4797 320.2002 276.9072 320.0097 277.1249 319.9124 277.0503 319.9235 277.23 319.8949L278.0359 320.082C277.5161 320.2152 277.6598 319.8614 276.9503 320.2322L275.5046 320.6285C275.4952 320.6242 275.4544 320.5871 275.4451 320.5823" fill="#f05d37" fill-rule="evenodd"/>
<path transform="matrix(1,0,0,-1,0,841.8898)" d="M265.0674 326.0648C265.1443 326.2107 265.5879 325.8431 264.9458 326.5223 264.2437 327.2647 264.954 326.5067 264.5371 326.7592 264.1635 326.9854 264.1431 327.3857 263.6107 327.6743 263.5722 327.6952 263.465 327.725 263.4384 327.7457 263.2003 327.93 263.5481 328.0249 262.9749 328.5655 262.9573 328.5819 262.9001 328.6179 262.8831 328.6318L261.4972 330.5112C261.2307 330.8964 261.3815 330.7759 261.051 331.1311L260.3129 332.1414C259.7522 332.8033 260.4694 331.7675 260.1323 332.2936 260.1264 332.3027 260.1065 332.3435 260.1014 332.354L259.6569 333.3606C259.6456 333.3849 259.6252 333.4382 259.6153 333.4623L258.2178 336.3724C257.7325 337.5496 256.4442 340.6759 256.4442 341.9348H256.6772C256.6772 340.8985 257.6061 338.5154 257.9871 337.5499 260.0308 332.3713 263.1087 327.9214 268.0415 324.4507 268.6082 324.0522 269.3687 323.6176 269.9691 323.3282 270.3555 323.142 270.5862 323.0711 271.0295 322.8483 273.4396 321.637 278.3086 319.7954 281.615 319.7954V319.5995C276.1016 319.5995 272.6232 319.8606 268.4126 321.0401 264.8772 322.0302 261.7455 323.6933 258.9367 325.6135 257.5171 326.5838 256.28 327.4937 255.1119 328.6675L253.4468 330.4026C252.8776 331.0421 252.4725 331.5478 251.9198 332.2539 250.1416 334.5253 248.1755 337.9935 247.3546 340.9551 247.7866 340.5373 247.9374 339.7405 248.1939 339.1138 248.4723 338.4351 248.7243 337.932 249.0653 337.2993 249.7351 336.0549 250.223 334.5182 251.3319 333.5567L251.6695 333.1219C251.8948 332.5428 252.4201 332.3112 252.6471 331.9452 252.6508 331.9393 252.6778 331.9027 252.6817 331.8968L252.8617 331.5869C253.0809 331.1637 254.2861 329.6928 254.4809 330.332 254.4911 330.3655 254.5534 330.3975 254.6184 330.408L254.8125 330.1795C254.3168 329.8737 254.5095 330.1645 254.3465 329.5916 254.5662 329.4677 254.6334 329.4485 254.9047 329.2648 254.9432 329.2384 254.9951 329.1976 255.0331 329.171L255.6802 328.7336C255.9161 328.5808 255.6411 328.8994 255.8398 328.61 255.858 328.5836 255.9212 328.3554 255.9946 328.2358L256.9102 327.2406C257.3439 327.3613 257.182 327.7256 257.599 327.5291 257.9145 327.3806 257.2974 327.4509 257.9012 327.2301L258.7742 327.1793C260.7792 326.3462 260.4257 327.57 260.8724 327.0444 260.7134 326.7612 260.6049 327.3962 260.8724 326.4568 261.2877 326.6906 261.7917 326.9529 262.2736 326.7343 262.4771 326.6422 262.1134 326.5268 262.6364 326.4324 262.6469 326.4307 262.7065 326.4321 262.7175 326.4316L264.7015 326.1115C264.7208 326.1073 264.7891 326.0925 264.8055 326.0894 264.8205 326.0863 264.8883 326.0772 264.8999 326.0752Z" fill="#f05d37" fill-rule="evenodd"/>
<path transform="matrix(1,0,0,-1,0,841.8898)" d="M307.0191 320.1871C307.2039 320.6336 307.1055 320.1588 307.3158 320.3294Z" fill="#f05d37" fill-rule="evenodd"/>
<path transform="matrix(1,0,0,-1,0,841.8898)" d="M321.5086 322.9489C322.1337 323.2508 321.2626 322.9917 321.2362 322.9302 320.9975 322.3777 321.5066 322.9481 321.5086 322.9489" fill="#f05d37" fill-rule="evenodd"/>
<path transform="matrix(1,0,0,-1,0,841.8898)" d="M325.8975 324.8895C326.4676 325.6053 326.535 325.2637 327.0628 325.8692L326.6062 325.8907C326.5974 325.8884 326.5469 325.8757 326.5381 325.8711L325.6254 325.0528Z" fill="#f05d37" fill-rule="evenodd"/>
<path transform="matrix(1,0,0,-1,0,841.8898)" d="M327.8013 326.2796C328.4266 326.5815 327.5555 326.3224 327.5289 326.2609 327.2902 325.7087 327.7993 326.2788 327.8013 326.2796" fill="#f05d37" fill-rule="evenodd"/>
<path transform="matrix(1,0,0,-1,0,841.8898)" d="M327.7619 327.6323C327.7029 325.4071 326.8477 327.0124 326.0186 325.9811L325.9185 325.474C326.4772 326.1966 326.0744 326.0486 326.6484 326.1668 328.5119 326.5506 327.0268 326.245 327.8356 326.6079 328.6945 326.9925 327.5688 326.5166 328.0788 326.6563 328.6746 326.8193 329.2705 327.6876 329.2801 327.727 329.2948 327.7896 329.4323 327.7956 329.4323 327.8611L329.1605 328.0243C328.661 327.3976 328.7775 327.8869 328.6942 327.0444 328.6593 327.0866 328.6216 327.1578 328.6035 327.1785 328.5873 327.1969 328.5349 327.2771 328.5162 327.2947 328.0938 327.6947 328.9487 327.8605 328.3203 327.399 328.1675 327.2868 328.2358 327.1394 328.2279 326.8485Z" fill="#f05d37" fill-rule="evenodd"/>
<path transform="matrix(1,0,0,-1,0,841.8898)" d="M326.3635 327.6323C326.346 326.969 326.3655 327.003 326.0398 326.533L325.4757 325.8315C325.292 325.5812 325.4278 325.7263 325.2118 325.4655 324.498 324.6024 324.5879 325.1988 324.4989 324.3016 324.5315 324.341 324.5644 324.4014 324.5828 324.4269 324.6009 324.4527 324.6457 324.5196 324.6687 324.5508L325.9718 326.228C326.6728 327.1039 326.4146 326.6666 326.679 326.6782 328.324 326.7505 326.7822 326.7456 327.7332 327.6147 328.2168 328.0572 327.672 327.3415 329.2231 328.0445 329.8266 328.318 328.9904 327.8871 329.5576 328.1973L330.0925 328.2202C329.4984 327.8857 329.3646 327.8843 329.1605 327.2406 329.9746 327.6989 330.0985 327.8809 330.5585 328.612 330.5344 328.6193 330.4888 328.614 330.4814 328.6145 329.8088 328.6423 330.2637 328.7282 329.3419 328.3021 329.3158 328.29 329.2523 328.2627 329.2254 328.2503 327.867 327.6244 328.4164 328.1417 327.801 327.8974 327.2723 327.687 327.312 327.4614 327.2956 326.8485Z" fill="#f05d37" fill-rule="evenodd"/>
<path transform="matrix(1,0,0,-1,0,841.8898)" d="M323.5669 323.9096C324.0187 324.0819 323.735 323.8875 324.013 324.1222L325.8799 326.6725C326.1121 327.0671 325.9959 326.9784 326.1317 327.2576 326.611 328.246 326.0639 327.6099 326.9976 327.7477L329.2379 328.5692C329.2509 328.5757 329.3042 328.5947 329.3167 328.5998 330.4094 329.063 330.0245 329.0834 330.5911 328.7891 330.8783 328.64 330.6552 328.3727 331.0248 328.8078L330.9562 328.9541C330.6308 329.3563 329.4794 329.008 329.1256 328.7713 327.541 327.7108 328.9742 328.6536 327.7032 328.2012 327.1822 328.0158 327.8205 328.1814 327.3494 328.0459L327.1181 328.0003C325.4477 327.7984 326.6864 328.1241 325.0947 325.9559 324.8079 325.5653 324.9933 325.7507 324.6525 325.3482Z" fill="#f05d37" fill-rule="evenodd"/>
<path transform="matrix(1,0,0,-1,0,841.8898)" d="M331.4908 329.3957C331.8168 329.9173 332.3052 329.3793 332.4231 330.5713 332.3894 330.5305 332.3563 330.4664 332.337 330.4414L332.1567 330.2082C331.4126 329.3955 333.0805 331.0339 331.8735 329.9624 331.4237 329.5633 331.598 330.4264 331.4908 329.3957" fill="#f05d37" fill-rule="evenodd"/>
<path transform="matrix(1,0,0,-1,0,841.8898)" d="M326.5965 328.8078C326.2805 327.8129 326.3295 328.8353 325.2552 326.8006L324.3739 325.5823C323.9617 325.0397 323.3775 324.5851 323.1006 323.7137 323.8319 323.9178 323.1422 323.5938 323.8277 324.6542L325.6095 327.0912C325.8278 327.5841 325.8255 327.8925 326.4117 328.1717 326.9914 328.4484 326.4993 328.2015 327.0098 328.214 327.3352 328.2219 326.9183 328.091 327.3579 328.2528L328.6128 328.6395C328.6284 328.6466 328.682 328.6786 328.6984 328.6874 330.1659 329.4899 329.8286 328.8149 329.8595 329.9834L330.5585 329.1996 331.0248 329.9834C331.056 328.7965 330.874 329.4091 331.4908 329.1996 331.1751 329.7532 331.3213 329.7631 331.4908 330.3754 331.9311 330.4902 331.2488 330.6609 331.6972 330.3184 331.7221 330.2991 331.795 329.9085 331.8664 330.116 331.8795 330.154 331.9223 330.0253 331.9571 329.9834 332.1408 331.8401 332.5978 329.4618 333.1222 331.3548L332.2468 330.8066C332.2216 330.7997 332.1533 330.7887 332.1278 330.783 332.102 330.7771 332.0323 330.7683 332.0065 330.7623 331.9804 330.7564 331.9101 330.7479 331.8846 330.7411L331.5495 330.6231C331.5288 330.6073 331.4784 330.565 331.4611 330.5458L331.2578 329.9834C330.4083 331.0112 331.0651 330.2955 330.6438 330.2708 330.6379 330.2705 330.5928 330.2748 330.5869 330.2748L330.3567 330.279C330.3505 330.2785 330.3045 330.2654 330.2983 330.2649 330.2923 330.2646 330.2467 330.2538 330.2405 330.2538L329.9278 330.3417C329.9233 330.3658 329.8847 330.3819 329.8595 330.3754 329.7317 329.9139 329.6424 329.7969 329.6265 329.1996L329.1605 329.9834C329.1316 328.8915 328.974 328.9533 328.288 328.9037 327.2871 328.8314 327.8605 329.1174 327.2956 328.2202Z" fill="#f05d37" fill-rule="evenodd"/>
<path transform="matrix(1,0,0,-1,0,841.8898)" d="M327.7619 329.9834C327.7471 329.421 327.8248 329.0944 327.2556 328.9694 326.2093 328.7392 327.5118 329.5908 326.4324 328.938 326.3749 328.9031 325.7827 328.2622 325.5956 328.0833 324.6333 327.1603 325.4049 327.6479 324.1621 325.9559L322.6343 323.5178C323.4637 323.7491 322.5606 323.5802 323.4464 324.7855 323.7239 325.1631 323.7945 325.1446 324.0502 325.4627L324.5774 326.1949C325.5945 327.5065 324.8824 327.0231 325.4992 327.7709 325.9933 328.3699 326.0724 328.1712 326.5965 329.0037 326.8936 328.8209 326.6357 329.0063 326.9713 328.731L327.2956 328.4161C327.6346 329.4831 327.8786 328.9978 328.415 329.0936 328.9394 329.1874 328.7792 329 329.1605 330.3754 329.4204 330.4431 328.9637 330.785 329.6265 329.9834 329.7351 331.0829 330.3349 330.6158 330.9667 330.6733L331.8951 330.9401C331.9174 330.9497 331.9775 330.9814 331.9985 330.9908L332.8957 331.4551C333.4881 331.761 332.7216 331.4735 333.1545 331.5263 333.1879 331.5302 333.2849 331.5098 333.3152 331.5121 333.3243 331.5124 333.3767 331.5093 333.3852 331.5104 333.6199 331.5461 333.7447 331.5025 333.6888 331.8072 333.6177 332.1972 333.2452 332.0538 332.9657 331.9036 332.8396 331.8358 333.0017 331.9055 332.7335 331.7179L332.5785 331.6102C332.5666 331.6037 332.5127 331.583 332.5008 331.577L331.0869 330.8981C330.4726 330.7354 330.4375 331.007 329.557 330.7482 328.9431 330.5679 328.7254 330.3717 328.6942 329.1996Z" fill="#f05d37" fill-rule="evenodd"/>
<path transform="matrix(1,0,0,-1,0,841.8898)" d="M322.5203 323.8659C322.63 324.2724 322.4339 323.8639 322.727 324.4042L323.7608 325.7059C324.8626 327.2145 324.6052 327.3738 325.4783 328.1805 326.6875 329.298 326.575 329.1766 326.5965 329.9834L326.8871 329.4442C327.0974 329.1361 326.7264 329.3546 327.2956 329.0037 327.5161 329.3901 327.6326 329.9083 327.7619 330.3754L327.8962 330.3105C328.5102 330.0874 327.9291 330.9092 328.6942 329.9834 328.7775 330.8267 329.5979 331.1997 330.4814 331.1612L330.9471 331.1371C331.4645 331.1918 330.2062 330.6231 331.4908 331.4446L332.494 331.9707C332.9138 332.1337 333.0516 332.3741 333.5156 332.1873L334.0548 332.1386C332.9113 332.843 333.553 332.6357 333.1259 332.553L332.1541 332.1043C332.1499 332.1023 331.8797 331.9894 331.8766 331.9883L331.3349 331.708C330.8856 331.3874 331.3633 331.5098 330.6365 331.5478L330.1702 331.5728C329.2237 331.473 330.3034 331.5461 329.4003 331.162 329.3889 331.1575 329.3342 331.1453 329.3226 331.1402L329.1568 331.0676C327.7315 330.2549 327.3457 331.0869 327.2956 329.1996L326.5965 330.5713C326.4911 329.5054 326.238 329.1772 325.5707 328.4946 323.6397 326.5191 324.9799 327.2947 323.047 325.1302L322.4188 324.2869C322.1141 323.6961 322.1683 324.0164 322.1683 323.1261Z" fill="#f05d37" fill-rule="evenodd"/>
<path transform="matrix(1,0,0,-1,0,841.8898)" d="M321.2362 324.1057C321.2362 322.6952 321.0766 323.5037 320.7699 322.5385 321.4114 323.1587 321.4692 322.994 321.4692 324.1057L321.9352 323.1261C321.9352 324.6398 322.4676 324.5737 323.2947 325.7059 323.3214 325.7425 323.352 325.7946 323.3784 325.8312 324.591 327.5104 324.0371 327.2814 324.8969 328.0816 326.789 329.8428 325.7663 329.3124 326.5965 330.7671 327.2343 330.3743 326.7921 330.6314 327.0359 330.3527 327.0705 330.3136 327.1017 329.8691 327.2136 330.1101 327.2275 330.1401 327.263 330.0231 327.2956 329.9834 327.3939 330.9744 327.5858 330.8179 328.1683 330.8678 329.3422 330.9684 328.3549 330.9316 329.2438 331.5064 329.2554 331.5141 329.3082 331.5328 329.3195 331.5387L329.5491 331.6133C329.5621 331.6201 329.6137 331.6504 329.6265 331.6584 330.391 332.1343 329.7234 331.9174 330.1702 331.9645 330.2022 331.9679 330.2938 331.9563 330.3255 331.9554 330.3363 331.9551 330.3927 331.9503 330.4035 331.9498L332.4997 332.5524C332.839 332.6743 333.5117 333.311 333.8218 332.3344 334.5253 332.5309 333.991 332.4322 334.2393 332.5816 334.2487 332.5873 334.2949 332.6165 334.3034 332.6216L334.5208 332.7265C332.8265 333.3149 332.2151 332.708 331.6473 332.5093 331.6354 332.5051 331.581 332.4886 331.5685 332.4838 330.209 331.96 330.7116 332.3815 330.0304 332.2035L329.0046 331.6674C328.6463 331.2181 328.8101 331.1957 328.4612 331.132 328.4297 331.1263 328.3384 331.1413 328.307 331.1433 327.3905 331.198 327.9572 331.0747 327.0628 330.5713 326.8862 331.1269 327.1116 330.8581 326.5965 331.1592 325.8278 328.7392 324.6035 328.4847 324.0343 327.2394 323.5504 326.1818 322.1008 324.4683 322.0515 324.4175 321.51 323.8617 322.0719 324.396 321.2362 324.1057" fill="#f05d37" fill-rule="evenodd"/>
<path transform="matrix(1,0,0,-1,0,841.8898)" d="M334.5208 333.1182C333.1046 333.61 333.3195 333.6386 332.6975 333.3458 332.6766 333.3359 332.6168 333.3039 332.5946 333.294 332.0271 333.04 332.8209 333.3489 332.2553 333.1621L331.4327 332.9291C330.0194 332.5547 331.259 333.1723 329.4677 332.5612 329.434 332.5496 329.3444 332.5397 329.311 332.5249L328.9717 332.2823C328.9493 332.2621 328.9045 332.2069 328.8818 332.1867 328.4836 331.8307 328.6738 331.9569 328.458 331.9206 328.4252 331.9149 328.2582 331.9407 328.2262 331.9427 326.2243 332.0711 329.0885 331.5926 326.9109 331.5739 325.855 331.5648 325.885 329.6656 324.4255 328.282 323.0297 326.9591 324.1933 327.8854 322.8528 326.0764L322.681 325.8249C321.7306 324.4578 321.9384 325.368 321.3473 324.7753L320.6835 323.3948C320.665 323.3466 320.6438 323.2959 320.6248 323.248 320.3002 322.4194 320.4162 323.475 320.3036 322.3426L320.7368 322.958C320.997 323.428 320.7557 322.9311 320.9814 323.536L321.0846 323.8413C321.103 323.8897 321.122 323.9422 321.141 323.9898 321.1597 324.0366 321.1832 324.0901 321.2019 324.1346 321.4227 324.6571 321.2175 323.9008 321.4692 324.6936 323.0306 325.101 320.6449 324.1607 321.9352 324.4975 322.1314 325.1151 322.3349 325.0573 322.9971 325.9562L323.4648 326.5424C323.8464 327.1054 323.6936 327.1997 324.0079 327.6533 324.2976 328.0717 325.2195 328.6256 325.6041 329.4462 325.8258 329.9193 325.7918 330.158 326.0837 330.626 326.3953 331.1257 326.7026 331.4463 327.1805 331.1855 327.4248 331.0523 326.45 331.2638 327.5289 330.963 327.8616 332.1632 328.0759 331.4568 328.4589 331.5268 328.4694 331.5288 328.5241 331.5373 328.5349 331.5416 328.8212 331.651 328.7767 331.9033 329.3379 332.2307L330.4046 332.536C331.5937 332.4932 330.954 332.6278 332.7143 333.1157 332.7401 333.1227 332.8055 333.1446 332.8311 333.1508 333.0048 333.1933 332.7993 333.2398 333.2993 333.2183L334.1891 332.9586C334.1993 332.985 334.2623 332.9011 334.3266 332.8897Z" fill="#f05d37" fill-rule="evenodd"/>
<path transform="matrix(1,0,0,-1,0,841.8898)" d="M321.6532 325.4352C321.6702 325.4187 321.7212 325.362 321.7388 325.3482 321.7521 325.3374 321.8037 325.2988 321.8162 325.292 322.2587 325.0573 321.9418 325.2671 322.115 325.482 322.6 326.0829 322.8976 326.2541 323.2216 326.9424 324.055 328.7106 323.3769 327.2686 324.7109 328.8257 325.4066 329.6373 326.0588 331.9577 326.8293 331.9415 327.829 331.9203 327.2117 332.0059 327.9348 332.1921 329.9173 332.7026 328.2885 332.4796 329.5636 332.8954 330.7011 333.2665 330.5906 332.7154 331.8951 333.2914L332.4997 333.5318C333.4859 333.8878 332.4759 334.1625 333.8144 333.5967 333.8289 333.5905 333.8833 333.5669 333.8969 333.5615L334.2093 333.4796C334.2249 333.4728 334.6254 333.1973 334.734 333.1287L334.8366 333.4972C334.8278 333.4978 334.7708 333.4992 334.7606 333.5009 334.7501 333.5023 334.694 333.5111 334.6829 333.5139L334.0032 333.8246C333.3793 334.0661 332.663 333.8918 332.591 333.8674 332.5652 333.8586 332.4997 333.8342 332.4747 333.8249 332.4495 333.815 332.3854 333.7886 332.3611 333.7784L331.8004 333.5287C331.789 333.5247 331.7352 333.5128 331.7241 333.5091 331.7128 333.5051 331.6586 333.4929 331.6473 333.4887L331.3953 333.383C330.594 333.0428 330.7779 333.3013 330.0341 333.1962L328.8858 332.7474C328.0405 332.1865 328.5935 332.8013 327.6672 332.4104 326.298 331.8327 327.1612 333.0045 325.565 330.8508 324.7639 329.7694 325.4074 329.6546 323.9592 328.282 322.2743 326.685 323.4175 326.5262 321.8698 325.8351L320.6452 324.4071C320.0862 323.386 320.4938 323.6088 319.7857 322.5818 319.7682 322.556 319.7083 322.433 319.6953 322.4622 319.6823 322.4911 319.5649 322.3757 319.5658 322.3097Z" fill="#f05d37" fill-rule="evenodd"/>
<path transform="matrix(1,0,0,-1,0,841.8898)" d="M318.6726 321.7547C318.9628 322.2162 318.9385 322.1405 319.216 322.1719 319.4544 322.1986 319.3532 322.0537 319.8019 322.9603L320.4904 324.5369C320.692 324.8861 320.6744 324.8563 320.8782 325.1996 321.5117 326.2666 321.3635 325.758 321.9987 326.0687 323.1094 326.6124 322.3349 326.9602 323.3837 327.9824 325.7561 330.2949 323.835 328.8504 325.7076 331.3185 326.5291 332.401 326.3746 332.5422 326.9069 332.5277 326.9171 332.5275 326.9735 332.5249 326.984 332.5249L329.5644 333.3019C329.5868 333.3124 329.6469 333.3424 329.6679 333.3523 329.709 333.3716 329.8192 333.4323 329.8558 333.4473L332.3707 333.9862C332.3957 333.995 332.4606 334.0196 332.4849 334.0293L332.6975 334.1296C332.7386 334.1489 332.8492 334.2141 332.8858 334.23 333.3742 334.4448 333.4615 334.2651 333.8844 334.078 334.9791 333.5936 335.0038 333.6474 335.2198 333.902 334.9032 334.012 335.0052 333.9334 334.8162 333.9916L334.1302 334.2747C334.1188 334.2787 334.0653 334.2909 334.0539 334.2946 333.0241 334.6475 333.5712 334.7759 332.6624 334.3785L331.4384 333.9028C330.2512 333.5627 330.9032 334.1069 329.6322 333.5941 327.8548 332.877 329.3144 333.282 327.7035 332.9354 326.4993 332.6763 326.664 332.892 326.3247 332.9549L326.1305 332.7265C326.5376 332.1386 325.1443 331.3117 324.6503 330.0523 323.8376 327.9807 323.3469 328.5349 322.7632 327.5237 322.3752 326.8517 322.7196 326.5931 321.8848 326.2144 321.3935 325.9913 321.3975 326.3666 320.8003 325.4607L319.3716 322.5385C319.3529 322.5334 319.1057 322.2522 318.996 322.7973 318.983 322.8619 318.9402 322.8883 318.9056 322.9302 318.8407 322.2757 318.9665 322.7698 318.7318 322.2924 318.5138 321.8496 318.2905 322.0756 318.4004 321.918Z" fill="#f05d37" fill-rule="evenodd"/>
<path transform="matrix(1,0,0,-1,0,841.8898)" d="M318.9056 324.1057C318.9056 322.8352 318.306 322.7596 317.973 321.5585 318.2533 321.8298 318.2261 321.8014 318.4345 322.1597 319.3948 323.8109 318.4903 322.7391 319.6046 323.1261 319.6046 324.0045 320.2897 325.4139 321.0542 326.035 322.1836 326.9523 321.4517 325.671 322.1589 326.6586 322.7017 327.4169 322.0478 327.1329 322.9174 327.9824 325.0054 330.0222 323.8291 329.2495 324.6885 330.6078 324.993 331.0892 326.0653 332.2242 326.1093 332.8308 326.1302 333.1216 326.9137 332.9751 327.3537 333.0459 329.3957 333.3739 328.5757 333.3589 329.2291 333.737 330.0279 334.1996 330.5132 333.8028 331.2986 334.1174L331.8004 334.3124C333.1502 334.7745 332.9019 335.1246 334.3269 334.4604L335.1634 334.2061C335.1977 334.1965 335.38 334.1203 335.4528 334.0979 334.9891 334.6804 334.849 334.5792 334.4644 334.6804 334.4391 334.6872 334.3723 334.7019 334.347 334.7087 334.3215 334.7152 334.2552 334.732 334.2297 334.7388 334.2047 334.7456 334.1384 334.764 334.1132 334.7711 333.2534 335.0137 332.8041 335.0665 331.5526 334.51L329.8555 334.2317C329.8538 334.2311 329.6333 334.1245 329.5607 334.0905 329.5174 334.0704 329.3807 334.0131 329.3351 333.9899L328.8878 333.724C328.4736 333.455 328.6667 333.5287 328.4544 333.4924 328.422 333.4867 328.3342 333.4966 328.303 333.4975L327.7585 333.438C326.6708 332.9787 328.3396 333.6012 327.4671 333.2894 326.9049 333.0884 326.5245 333.3249 326.1688 333.18 325.1149 332.7523 325.9704 333.1553 325.8207 332.7786L324.917 331.2C323.0549 328.8291 325.4786 330.9548 322.5728 327.8803 321.8009 327.0637 322.2896 326.6501 321.8604 326.6654 321.8533 326.6657 321.7941 326.6748 321.785 326.6742 321.7762 326.6742 321.719 326.677 321.7088 326.6756 321.6986 326.6739 321.6421 326.6683 321.6311 326.6651L321.1688 326.3474C320.1982 325.4961 319.3716 324.3594 319.3716 323.1261Z" fill="#f05d37" fill-rule="evenodd"/>
<path transform="matrix(1,0,0,-1,0,841.8898)" d="M335.9191 335.6654C335.8959 335.6459 335.984 335.6107 335.9889 335.6067Z" fill="#f05d37" fill-rule="evenodd"/>
<path transform="matrix(1,0,0,-1,0,841.8898)" d="M312.5273 320.3042C312.5387 320.3396 312.5818 320.2248 312.6127 320.1871 312.5407 320.9151 312.6937 320.4918 312.3221 320.83 312.306 320.845 312.243 320.8751 312.2274 320.8859L311.9134 320.9709C313.0486 321.6101 313.221 320.3323 313.778 322.3426 314.1955 321.9384 314.1763 322.0478 314.2443 321.3626 314.2755 321.4006 314.3129 321.4638 314.3288 321.4811 314.5054 321.673 314.5433 321.7575 314.8135 321.6359L314.9433 321.5585C315.1117 322.1668 315.2409 322.126 315.4093 322.7343 315.9026 322.8627 315.2066 322.8293 315.6758 322.6201 316.2127 322.3809 315.3297 322.3959 315.8756 322.5385 316.1829 323.5062 316.3088 322.6677 316.3419 323.9096L316.7291 323.2556C316.7408 323.2843 316.777 323.1672 316.8079 323.1261L316.6614 323.9824C316.6537 324.0533 316.5347 324.072 316.5358 324.1383L316.8079 324.3016C317.1186 323.7568 317.0409 323.9223 317.0409 323.1261H317.74C317.74 324.4022 318.0538 324.1037 318.5379 325.0077 318.9331 325.7456 318.3072 325.3524 319.0742 325.8658 319.9377 326.4429 318.6754 325.4635 319.7874 326.1283 320.601 326.6141 320.4604 327.1626 320.6375 327.7888 320.9094 328.7509 321.2779 328.1173 321.8678 328.3707 322.6252 328.6962 323.1371 330.3541 324.0275 331.5606L324.8096 333.0737C326.164 335.1325 326.1963 334.3674 327.587 334.6685L328.7526 334.8876C329.1418 335.0373 328.6755 334.8709 329.1021 335.0608 329.1293 335.073 329.1914 335.1022 329.2186 335.1138L332.1865 335.7833C332.7009 335.9906 333.0777 336.4648 333.5108 336.2159 333.5247 336.208 333.5746 336.1706 333.5885 336.1609L333.8991 335.8981C334.4165 335.6014 333.7506 335.6957 334.2878 335.8327L334.9091 336.2482C335.6819 336.5303 335.3006 335.6836 336.1524 337.0368L336.1969 336.8483C336.3939 336.4662 336.1388 336.604 336.6184 336.4489 336.2168 337.2661 336.7868 336.4155 336.3854 337.2327 336.1048 337.0748 335.6382 336.6802 335.5999 336.6632L335.141 336.6573C334.5846 336.67 335.2759 336.8979 334.7538 336.5512 334.7334 336.5376 334.5418 336.3593 334.5208 336.3449 333.9839 335.975 334.6832 336.2525 334.2101 336.2122L333.8991 336.2902C332.5195 337.0822 333.1281 336.4092 331.5725 335.81L330.385 335.5699C329.6455 335.5569 330.2286 335.6388 329.5681 335.4355 329.5202 335.4208 329.383 335.3749 329.3351 335.3567L327.82 334.9227C327.1623 334.7972 326.6025 334.9579 325.832 334.6614 325.1676 334.4057 325.8031 334.8003 325.493 334.1985 325.2084 333.6469 324.5763 333.1562 324.3974 332.6465L323.7032 331.4387C323.0827 330.6178 322.4438 329.0383 322.0441 328.7299 321.6325 328.4118 321.7541 328.6636 321.3706 328.5848 320.4848 328.4028 320.4836 328.0867 320.3634 327.5257 320.1284 326.4296 320.0788 326.4792 319.191 326.1098 318.3426 325.7569 318.318 323.9368 317.2167 324.214 316.4034 324.4187 316.8113 325.0791 316.1682 323.6479 315.7413 322.698 315.8237 323.3718 315.2965 322.8083 315.2316 322.7389 315.0003 322.2459 314.9433 322.1464 314.3829 321.7232 313.9574 322.7134 313.778 322.9302 313.723 322.3752 313.3216 321.5923 313.0787 321.1668L312.4619 321.8241C312.448 321.8899 312.4123 321.9109 312.3797 321.9506 312.2124 320.26 311.629 322.0231 311.4473 320.1871Z" fill="#f05d37" fill-rule="evenodd"/>
<path transform="matrix(1,0,0,-1,0,841.8898)" d="M314.0906 320.8969C313.6626 320.9987 314.2746 321.4029 313.7536 320.9865 313.1328 320.4901 314.4234 320.6755 314.7103 320.775Z" fill="#f05d37" fill-rule="evenodd"/>
<path transform="matrix(1,0,0,-1,0,841.8898)" d="M313.778 320.3833C313.2088 321.0976 313.2473 320.5613 313.545 321.1668 314.3923 321.461 313.8242 321.0066 314.6655 321.0463 315.2823 321.0752 315.3438 321.2872 315.4093 321.9506 315.9235 321.3286 315.5958 321.4857 315.8756 321.5585 316.0443 322.1668 316.1733 322.126 316.3419 322.7343 317.3771 323.0045 315.3986 322.9934 316.5412 322.6411L317.2425 322.6346C317.2487 322.6351 317.2949 322.6479 317.3012 322.6484L317.4171 322.662C317.5495 322.6504 317.4911 322.6439 317.6056 322.6037 317.6113 322.6014 317.6674 322.5521 317.6719 322.5716 317.6765 322.592 317.715 322.5319 317.74 322.5385L318.1229 323.3923C318.3823 324.0848 318.0626 323.6545 318.486 324.2716 319.4334 325.6526 319.2928 324.1165 319.1386 325.673 319.1732 325.6313 319.2106 325.5619 319.229 325.5403 319.2454 325.5211 319.2979 325.4448 319.3166 325.4247 319.6998 325.0148 319.2831 325.1974 319.6046 325.2813 319.8844 326.1626 320.8025 326.3292 321.0228 327.2383 321.2317 328.0989 321.1359 327.5909 321.0032 327.8282L321.2014 327.8786C321.7805 327.9767 321.5974 327.7551 322.1121 328.0779 323.0853 328.6888 323.2125 329.652 323.6769 330.4786L324.9184 332.1799C325.0956 332.5054 324.9587 332.2366 325.0664 332.5343 325.3646 333.3574 325.7643 334.0086 326.8913 333.9967 328.0042 333.9848 327.0986 333.9944 327.8435 334.2611 328.6729 334.5585 327.4923 334.2759 328.0779 334.3056L329.0981 334.6605C329.8912 335.1172 330.7187 334.8836 331.5492 335.1195 331.5971 335.1331 331.7343 335.1756 331.7822 335.1895L332.0152 335.2567C332.5028 335.3984 333.0193 335.6371 333.5309 335.5311L334.2402 335.306C334.2631 335.3017 334.3311 335.287 334.3527 335.2847L334.7887 335.3652C334.7963 335.3666 334.8428 335.3788 334.8496 335.3794L334.9587 335.3613C334.965 335.361 335.0083 335.3403 335.0146 335.3403L335.1353 335.336C335.1447 335.3397 335.1963 335.37 335.2054 335.3754L335.4528 335.6654C335.5432 334.7555 335.2031 335.3224 335.9191 334.8814 335.431 336.6428 337.3651 335.5586 335.9191 336.4489 335.8171 336.0813 335.9455 336.3197 335.7505 336.0217 335.4681 335.5903 335.7652 335.9324 335.5373 335.8383L334.7498 335.7862C334.1245 335.5098 334.9278 335.6155 334.2294 335.5622 333.0564 335.4729 334.0939 336.1847 332.3718 335.552 332.3469 335.5427 332.2809 335.5217 332.2553 335.5132L332.0192 335.4477C331.0784 335.1773 330.1251 335.2986 329.2186 334.9179L327.9328 334.5452C327.9101 334.5392 327.8452 334.5171 327.8237 334.5094 327.8021 334.5021 327.7409 334.4729 327.7205 334.4647L327.2888 334.2841C326.9591 334.2268 326.5112 334.4221 326.2088 334.2824L325.1231 333.18C324.8932 332.8736 324.9451 332.8787 324.8634 332.6465L323.7007 330.8508C323.0444 329.9717 323.1269 328.9963 322.1002 328.284L320.9681 327.9441C319.862 324.8586 319.5592 326.3652 318.964 325.4298 318.9342 325.3825 318.8659 325.2129 318.837 325.1582 318.6635 324.8303 318.8061 325.0426 318.6173 324.7449L318.0022 323.6712C317.7043 322.9038 318.0285 323.0419 317.3465 322.9999 315.9519 322.9138 316.6724 323.5425 315.8756 322.1464 315.4467 321.823 315.9437 322.9194 314.9433 321.1668 314.1207 321.4525 314.5153 320.9879 313.9441 321.6903L313.778 321.9506C313.7258 321.4227 313.6859 321.2283 313.2666 320.9919 313.1155 320.9071 312.7853 320.8232 312.7124 321.0729 312.6986 321.1211 312.6481 321.1965 312.5738 321.1994L312.3797 320.9709Z" fill="#f05d37" fill-rule="evenodd"/>
<path transform="matrix(1,0,0,-1,0,841.8898)" d="M316.3813 321.1855C317.0064 321.4874 316.1353 321.2286 316.1086 321.1668 315.8702 320.6146 316.3793 321.1846 316.3813 321.1855" fill="#f05d37" fill-rule="evenodd"/>
<path transform="matrix(1,0,0,-1,0,841.8898)" d="M315.1763 320.775C316.0905 321.8391 315.1054 320.565 315.9431 321.1662 316.5718 321.6175 316.2566 321.0888 316.3419 321.9506 316.3728 321.9131 316.4111 321.8502 316.427 321.8335 317.0494 321.1818 316.5664 321.622 316.9009 321.6572L317.74 321.5585C318.0334 322.6164 318.6726 322.9061 318.6726 324.1057 319.6604 324.449 318.9532 323.7055 319.5771 324.5173 319.7027 324.6806 320.0329 325.3663 320.186 325.5758 320.851 326.4854 321.431 326.1889 321.4692 327.6323L321.8564 326.9784C321.8681 327.0067 321.9043 326.8896 321.9352 326.8485 321.9619 327.848 322.0588 327.6204 322.6799 328.182 323.5388 328.9586 323.6289 329.5636 324.1431 330.4786 324.3529 330.8522 324.7311 331.2507 324.9595 331.5606L325.533 332.5357C325.6268 332.797 325.8105 333.5406 326.5223 333.5295L326.8295 333.5102C326.8403 333.5097 326.8964 333.5083 326.9069 333.508L328.0476 333.7846C328.4946 333.8708 328.3795 333.7036 328.8651 333.9899 328.9467 334.038 329.1449 334.1996 329.1542 334.2053 329.8589 334.618 330.3669 334.4641 331.1997 334.6322L332.2483 334.9315C332.7985 335.0937 332.0376 334.8717 332.5978 335.0375 333.5012 335.3051 333.8408 335.0018 334.4683 334.8587L335.6861 334.4896C335.4134 335.3485 335.4372 334.8836 334.5806 335.0307L333.4136 335.3596C332.8373 335.4324 333.0933 335.3766 332.7143 335.2706 332.689 335.2635 332.6236 335.2414 332.5978 335.2337L331.7822 334.9936C330.9007 334.7357 330.4423 334.9454 329.5636 334.6586L329.1256 334.453C327.4475 333.3294 326.1129 334.4958 325.3949 332.8665L324.7265 331.5606C323.6618 330.1177 323.2653 328.4277 321.8661 327.7979L321.4423 327.5977C321.4216 327.5773 321.3819 327.5289 321.3638 327.5045 321.3431 327.4764 321.3153 327.4194 321.2969 327.3874 321.2762 327.3514 321.2572 327.2913 321.2379 327.2519 320.692 326.126 319.7463 325.6773 319.3716 324.4975L319.1383 324.5264C318.8829 324.4949 319.3172 324.769 318.8863 324.4501 318.5189 324.1786 318.6218 324.1392 318.4614 323.7097 317.8369 322.0413 317.9798 322.1461 316.5749 322.1464L314.9045 320.9383Z" fill="#f05d37" fill-rule="evenodd"/>
<path transform="matrix(1,0,0,-1,0,841.8898)" d="M316.8774 321.3043 316.8079 321.3626C316.7847 321.3434 316.8729 321.3082 316.8774 321.3043" fill="#f05d37" fill-rule="evenodd"/>
<path transform="matrix(1,0,0,-1,0,841.8898)" d="M321.2362 329.9834C321.213 329.9641 321.3009 329.9287 321.3057 329.925Z" fill="#f05d37" fill-rule="evenodd"/>
<path transform="matrix(1,0,0,-1,0,841.8898)" d="M338.2373 344.2966C338.4272 346.3719 338.2498 347.5298 338.2498 349.7717H338.4828C338.4828 348.5435 338.5757 346.8243 338.5344 346.1814 337.9431 337.0045 336.4906 333.1797 329.2197 326.9948 327.7003 325.7022 325.7538 324.6418 323.8466 323.6746 316.4346 319.915 310.7633 319.5995 301.1924 319.5995 301.6165 319.8472 300.7806 319.5896 301.8008 319.8719 302.1619 319.972 303.5424 319.9768 306.5845 320.7487 309.4172 321.4672 313.0002 323.301 315.25 324.8277 319.098 327.4387 322.1532 330.503 324.036 334.4871 324.6163 335.7156 325.2178 337.5184 325.4 339.0222 325.6549 341.1275 325.4312 342.1701 325.4312 344.2861H325.6642C325.6642 343.1679 325.7864 342.2313 325.8286 341.4387L325.6098 338.0091C325.6727 337.6653 325.0018 337.1494 325.0664 336.2389 325.1222 335.4466 325.2212 335.9203 325.2209 335.9021 325.2178 335.6498 325.5111 336.1252 325.1225 335.8295 324.9629 335.7082 324.7503 335.768 324.7319 335.0775 325.3561 335.6306 325.0029 335.3236 325.8354 335.6586L326.1294 335.7967C326.5965 335.9786 326.6844 335.7604 326.8936 335.8548 326.9038 335.8596 326.952 335.884 326.9622 335.8913 326.9696 335.8962 327.5201 336.6522 327.5677 336.6777L327.7619 336.4489C327.0458 336.0078 327.386 336.5751 327.2956 335.6654 327.3738 335.7408 327.6558 335.9676 327.7431 336.0285 328.5578 336.5972 327.9271 336.2287 328.2279 336.8407 328.4067 336.5683 328.254 336.4829 328.6942 336.0572 328.7534 336.2924 328.7869 336.5759 328.788 336.5787 328.9175 336.8937 328.4549 336.5623 329.3042 336.7698 329.3243 336.7749 329.3906 336.7913 329.4113 336.7981L329.62 336.894C330.986 337.5369 330.1642 336.7502 331.9917 337.4623 332.0345 337.479 332.1482 337.5343 332.1856 337.5485 332.2003 337.5541 332.2562 337.5751 332.2704 337.5799L332.4997 337.6449C333.1015 337.8648 333.1602 338.2342 333.7716 337.7735 333.8084 337.7455 333.8827 337.3744 333.9646 337.5536 333.9799 337.587 334.0216 337.4685 334.0548 337.4286 334.0403 337.9711 333.7826 338.2387 333.7826 338.2449L334.0548 338.4082C334.2365 338.0896 334.1693 338.1114 334.3017 337.8322L334.5208 337.4286C334.5208 338.4266 334.2467 338.3314 334.2489 338.4408L334.5208 338.6041C334.7887 338.4799 334.4944 338.5522 334.9366 338.4978 335.0237 338.487 335.3763 338.4916 335.4066 338.4978 337.1309 338.8442 334.4732 338.5468 336.5538 338.9465 337.8172 339.1892 336.9569 338.2628 337.2191 339.1557 337.229 339.1894 337.286 339.1773 337.3174 339.192Z" fill="#f05d37" fill-rule="evenodd"/>
<path transform="matrix(1,0,0,-1,0,841.8898)" d="M310.4694 321.1421C310.2412 321.2376 309.5209 321.1537 310.049 320.8731Z" fill="#f05d37" fill-rule="evenodd"/>
<path transform="matrix(1,0,0,-1,0,841.8898)" d="M311.4473 321.9506C311.33 320.7648 311.0409 321.3609 310.9635 321.2019L310.9813 320.3833 309.8529 320.4969C309.846 320.4975 309.801 320.5165 309.7939 320.5165L309.3497 320.1871C309.3962 320.6554 309.8548 321.0024 309.8548 321.0035L309.5827 321.1668C309.0838 320.5403 309.2 321.0296 309.1167 320.1871 309.634 320.0074 309.7868 320.0788 310.2279 320.0885 310.7035 320.0987 311.1644 319.8543 311.4473 320.1871L311.2875 320.9238C311.5446 321.9786 311.8198 320.322 312.3797 322.3426L312.9982 321.4908C313.0106 321.52 313.0461 321.4023 313.0787 321.3626 313.134 321.9177 313.5351 322.7009 313.778 323.1261 314.494 322.685 314.1541 323.2522 314.2443 322.3426 314.2755 322.3803 314.3129 322.4435 314.3288 322.4608 314.5054 322.6527 314.5433 322.7372 314.8135 322.6156L314.9433 322.5385C315.2509 323.5062 315.3764 322.6677 315.4093 323.9096L315.7965 323.2556C315.8084 323.2843 315.8444 323.1672 315.8756 323.1261 315.9034 324.1757 316.0806 324.9729 317.0316 324.5924L317.433 324.4847C318.1859 324.4473 318.1969 325.605 318.7193 326.0381 319.6735 326.8295 319.4705 325.7484 319.9805 326.9245 320.4119 327.9195 319.8285 327.7372 320.5732 328.3821 321.3947 329.093 321.4735 328.7625 322.1683 329.0037 322.4801 329.55 322.4415 330.0117 322.8236 330.6081 323.1113 331.0574 323.3993 331.3171 323.7406 331.8097L324.2296 332.8639C324.2494 332.9084 324.3132 333.0306 324.3419 333.0751 324.3427 333.0765 324.7656 333.5774 324.8158 333.6262 325.1786 333.9788 324.9845 333.8464 325.4312 334.0979L325.1667 334.4023C325.0701 334.6384 325.3677 334.7048 325.6997 334.8116L329.4556 335.6025C330.0576 335.8831 330.2759 335.8298 330.8695 335.842 331.3137 335.8514 331.8143 336.2763 331.8795 336.312L332.6601 336.7324C333.0442 336.8959 333.2075 337.0099 333.6276 336.8279 333.6489 336.8188 333.7061 336.7809 333.726 336.7715L334.6152 336.7647C334.9301 336.9033 334.8334 336.8786 335.0384 336.9209 335.2082 336.956 335.304 336.9206 335.5087 336.975 336.3211 337.1913 335.738 337.6636 336.8514 337.0368L336.9492 338.1301C336.9589 338.1653 337.0056 338.1968 337.0133 338.2719 337.0212 338.3456 337.1261 338.3731 337.1233 338.4408L336.8514 338.6041C336.5405 338.0593 336.6184 338.2248 336.6184 337.4286L336.1524 338.4082C336.1524 336.9283 335.8525 337.2755 334.8125 337.0754L333.8799 336.983C333.2058 337.1233 333.9587 337.1542 333.18 337.1352L332.591 337.002C332.5652 336.9932 332.4997 336.9691 332.4747 336.9594 332.4495 336.9498 332.3854 336.9234 332.3611 336.9132 332.337 336.9033 332.2749 336.8741 332.2519 336.8639L331.6405 336.6249C331.0988 336.3749 331.2009 336.2289 330.7918 336.2403L330.4809 336.2559C329.9352 336.2845 330.1931 336.2723 329.5528 335.92L328.5264 335.3936C327.4364 335.0772 327.1164 335.4021 325.836 335.0492 324.292 334.624 325.0749 334.3833 324.6826 333.7447 324.6463 333.686 324.4944 333.51 324.3991 333.3957L323.2372 331.4387C322.7046 330.734 322.6003 330.7864 322.27 329.8833 321.7637 328.4969 322.1983 329.2438 321.298 329.0964 320.6764 328.9949 321.1707 329.2061 320.6605 328.7129 320.5256 328.5828 320.1066 328.1343 320.0717 328.0816 319.841 327.7312 319.9944 327.8934 319.8674 327.3905 319.6928 326.7006 319.8413 326.8327 319.3004 326.6643 318.6516 326.4625 319.0071 325.9896 317.9344 325.9018L317.74 325.673C317.7437 325.6685 318.2363 325.7949 317.8653 324.9969 317.6566 324.5494 317.3876 324.7838 316.9885 324.8524 316.3011 324.9703 316.2773 324.5029 315.8646 324.1786 315.4249 323.8328 315.8867 324.1366 315.6392 324.0799 315.0326 323.9408 315.3504 323.4858 314.9722 323.1343 314.2967 322.507 313.7233 324.2764 313.0787 321.9506 312.3162 322.6881 312.0534 322.7777 311.815 321.3337Z" fill="#f05d37" fill-rule="evenodd"/>
<path transform="matrix(1,0,0,-1,0,841.8898)" d="M305.1544 320.1871C305.8155 319.4289 306.9009 320.0808 308.7071 319.8926 309.0637 319.8555 309.0869 319.6823 309.3497 319.9912 308.8704 320.1576 308.4897 319.828 308.1844 320.1871L308.4177 320.9709 308.8049 320.3167C308.8165 320.3453 308.8528 320.2282 308.8837 320.1871 308.9806 321.1659 309.4724 321.1838 309.9946 321.3292L311.7484 322.1742C311.7609 322.1799 311.8164 322.1963 311.8297 322.2028 312.7079 322.6499 311.9879 322.9563 313.0787 322.3426 313.1725 323.2865 313.4568 323.0181 314.011 323.7137L314.8645 323.2556C314.8764 323.2843 314.9124 323.1672 314.9433 323.1261 314.9742 324.2854 315.3657 324.167 315.9731 324.6321L316.9789 325.1455C317.7258 324.5434 316.6095 325.6586 317.4942 325.1829 317.5206 325.1687 317.5894 324.7968 317.6561 325.0077 317.6674 325.0434 317.7088 324.9269 317.74 324.8895 317.7034 326.2711 317.3213 325.5415 318.2063 326.6527 318.3367 326.4049 318.1105 326.3009 317.973 325.8692 318.6916 326.2734 318.9124 326.4248 319.1386 327.2406 319.4365 327.3182 319.1454 327.4041 319.6046 326.8485 319.6338 327.947 320.3819 329.3841 321.7088 329.4068 322.8874 329.4272 320.7827 329.053 321.9352 329.3957 322.0254 330.3068 322.2731 330.4086 322.6008 330.9866L324.294 333.6341C324.4796 333.9386 324.4496 333.9159 324.4955 333.9944 324.4995 334.0009 324.5255 334.0352 324.5289 334.042L324.5873 334.1571C324.8232 334.6889 324.4235 333.938 324.684 334.4244 325.2813 335.5398 326.7057 335.2768 327.7043 335.4823 328.4991 335.6459 328.4184 335.4412 329.0885 336.0818L329.9253 336.4838C330.9058 336.9495 330.5316 336.3826 331.4494 336.8092L332.5978 337.1933C333.7217 337.5198 334.0723 336.9946 335.4103 337.3146 336.1252 337.4858 335.7544 338.0885 336.2162 338.4547 336.6561 338.8034 336.4688 338.4068 337.3174 338.8003 336.4909 339.0871 337.1788 338.9221 336.5478 338.7858 335.6802 338.5981 335.6861 338.2699 335.6861 337.4286L335.4528 338.4082H334.7538C334.7538 337.612 334.8317 337.7772 334.5208 337.2327L333.2758 337.6542 331.7834 337.1474C331.7352 337.1338 331.5974 337.0918 331.5495 337.0785 330.9219 336.9036 330.3479 337.0422 329.7572 336.7451 329.2251 336.4775 328.7231 335.8281 328.2301 335.857L328.002 335.8692C327.9909 335.8675 327.9353 335.8579 327.924 335.8551 327.9115 335.8519 327.8563 335.8332 327.8435 335.8287 327.1028 335.5642 326.6186 335.6708 325.8386 335.4358 325.4411 335.3162 324.8028 335.1271 324.58 334.8153L324.4249 334.5316C324.4099 334.5038 324.3779 334.4457 324.3628 334.4165 324.3475 334.3867 324.3149 334.3289 324.2996 334.2986 324.1256 333.9496 324.2137 334.1052 324.108 333.8725 324.0119 333.6613 324.1426 333.8765 323.9929 333.625 323.9731 333.5916 323.9065 333.5043 323.8824 333.4694L323.4288 332.5861C323.1893 332.0167 323.5428 332.6933 323.2828 332.3744 323.0266 332.0595 323.4557 332.6417 323.1496 332.2151L322.0722 330.6614C322.0586 330.6433 322.0166 330.5965 322.0036 330.5781L321.8873 330.4018C321.3836 329.5573 321.8627 330.0579 320.9743 329.4249 320.1622 328.8464 319.6655 328.0462 319.0311 327.3276 318.4982 326.7244 318.0288 326.6697 317.5183 326.0517 316.8184 325.2042 317.4715 325.8771 316.622 325.417L312.6427 322.8653C312.5948 322.8454 312.4573 322.8012 312.4091 322.7825L310.6565 321.9049C310.64 321.8981 310.5816 321.8746 310.5652 321.8681 310.5275 321.8528 310.4215 321.81 310.3826 321.7952 307.995 320.8946 308.624 321.1702 307.9514 319.9912 307.7889 320.2807 307.9406 320.6767 307.7181 320.9709 307.3929 319.6794 307.4703 320.4162 306.553 319.9912 306.3872 320.3065 306.3699 319.8569 306.5374 320.2265 306.6698 320.5179 306.9791 320.3232 306.553 320.5791 305.9416 319.8115 306.1746 320.2123 305.6924 320.2299 305.6845 320.2305 305.1675 320.188 305.1544 320.1871" fill="#f05d37" fill-rule="evenodd"/>
<path transform="matrix(1,0,0,-1,0,841.8898)" d="M257.3765 413.8393C257.3765 410.3073 255.7097 407.7139 254.1254 405.4042 249.7524 399.0283 248.2435 398.1784 252.1769 392.2268 252.9249 391.0949 253.6503 390.1825 254.7369 389.285 255.3089 388.8125 255.1861 388.7799 256.2111 388.7609 256.4229 390.8988 259.8163 393.9843 261.1063 395.6176 265.6474 401.3668 265.568 404.9963 262.0352 410.7022 261.3104 411.8723 258.9885 415.8652 257.1432 415.9945 257.1432 415.0009 257.3765 414.9269 257.3765 413.8393" fill="#f05d37" fill-rule="evenodd"/>
<path transform="matrix(1,0,0,-1,0,841.8898)" d="M325.1979 394.4426C325.1979 390.4798 322.9228 387.4501 322.6343 386.4095 323.6043 385.1923 326.4917 381.4364 328.0686 380.5557 329.6228 379.688 328.9723 381.3352 329.0522 381.9915 329.5471 386.0683 332.1901 389.9086 332.1901 390.7202 332.1901 392.0318 329.722 393.8579 328.782 394.7125L327.7023 395.568C326.8052 396.2903 325.3569 397.7243 324.2659 397.9692 324.5885 396.8056 325.1979 395.9039 325.1979 394.4426" fill="#f05d37" fill-rule="evenodd"/>
<path transform="matrix(1,0,0,-1,0,841.8898)" d="M267.1651 417.3659C267.1651 415.3051 269.2953 412.9296 270.9479 411.5333 271.4272 411.1282 272.4086 410.1364 272.7587 409.9207 274.2392 410.2532 276.2546 413.117 276.2546 414.231 276.2546 415.94 272.9917 417.6703 272.9917 420.3045 272.9917 421.865 273.5909 422.8257 273.924 424.0273 271.065 423.8274 267.1651 420.4233 267.1651 417.3659" fill="#f05d37" fill-rule="evenodd"/>
<path transform="matrix(1,0,0,-1,0,841.8898)" d="M263.3805 305.547C265.5833 302.0003 265.0878 298.1239 262.2739 296.8889 259.4599 295.6541 255.3934 297.5284 253.1906 301.0751 250.988 304.6218 251.4835 308.4985 254.2975 309.7332 257.1114 310.9683 261.178 309.094 263.3805 305.547" fill="#dd731b" fill-rule="evenodd"/>
<path transform="matrix(1,0,0,-1,0,841.8898)" d="M260.7219 323.0084C257.6631 320.5276 256.1533 317.9217 260.9799 314.3052 257.6914 313.003 251.3412 311.4207 251.1062 307.8788 259.8999 316.1477 271.0293 298.1826 260.5748 296.3733L260.894 294.8927 264.001 295.9087 278.9957 303.6824C277.8962 297.9156 283.1511 295.1739 288.419 294.067 291.4957 293.4204 295.0546 294.0375 297.7248 295.2797 298.8513 295.8035 299.3658 296.6301 300.3528 297.2112 301.7755 299.1606 302.3864 301.8518 302.4825 303.8839 305.5499 300.6629 308.6493 297.3699 312.9409 296.2604 319.5247 294.5588 320.419 294.8536 326.173 297.5037 334.2195 303.2955 328.2633 309.5578 322.8021 312.6951 327.7585 314.2831 327.8914 319.356 324.5335 322.1413L314.0714 325.1146 306.2608 321.522C294.3595 319.3671 289.9412 316.6778 277.524 321.2742 277.524 321.2742 260.4291 322.8846 260.7219 323.0084" fill="#b16e24" fill-rule="evenodd"/>
<path transform="matrix(1,0,0,-1,0,841.8898)" d="M290.3709 308.6036C295.2746 308.6036 299.2501 305.5884 299.2501 301.8691 299.2501 298.1494 295.2746 295.1345 290.3709 295.1345 285.4672 295.1345 281.4917 298.1494 281.4917 301.8691 281.4917 305.5884 285.4672 308.6036 290.3709 308.6036" fill="#dd731b" fill-rule="evenodd"/>
<path transform="matrix(1,0,0,-1,0,841.8898)" d="M318.9603 308.4814C323.9858 308.4814 328.0601 305.9374 328.0601 302.7991 328.0601 299.6606 323.9858 297.1168 318.9603 297.1168 313.9347 297.1168 309.8605 299.6606 309.8605 302.7991 309.8605 305.9374 313.9347 308.4814 318.9603 308.4814" fill="#dd731b" fill-rule="evenodd"/>
</g>
</svg>
