<svg xmlns="http://www.w3.org/2000/svg" xmlns:xlink="http://www.w3.org/1999/xlink" version="1.1" width="841.8898pt" height="595.2756pt" viewBox="0 0 841.8898 595.2756">
<g id="layer_1" data-name="">
<text fill="#ffffff" xml:space="preserve" transform="matrix(1.21803 0 -0 1 0 595.2756)" font-size="41.395" font-family="BlackMagic" font-style="italic"><tspan y="-293.6716" x="179.978 210.11356 227.78879 246.91329 275.10328 293.0687 312.19319 328.83396 347.95845">Champaran</tspan></text>
<text fill="#ffffff" xml:space="preserve" transform="matrix(1.21803 0 -0 1 0 595.2756)" font-size="41.395" font-family="TimesNewRomanPSMT"><tspan y="-293.6716" x="366.4188">&#x2019;</tspan></text>
<text fill="#ffffff" xml:space="preserve" transform="matrix(1.21803 0 -0 1 0 595.2756)" font-size="41.395" font-family="BlackMagic" font-style="italic"><tspan y="-293.6716" x="380.2031 393.86344">s </tspan></text>
<text fill-opacity="0" xml:space="preserve" transform="matrix(1.1036304 0 -0 .90610048 0 595.2756)" font-size="45.68478" font-family="BlackMagic" font-style="italic"><tspan y="-324.10493" x="198.63417 231.8927 251.39963 272.506 303.61735 323.44456 344.5509 362.9162 384.02259">Champaran</tspan></text>
<text fill-opacity="0" xml:space="preserve" transform="matrix(1.1036304 0 -0 .90610048 0 595.2756)" font-size="45.68478" font-family="TimesNewRomanPSMT"><tspan y="-324.10493" x="404.3959">&#x2019;</tspan></text>
<text fill-opacity="0" xml:space="preserve" transform="matrix(1.1036304 0 -0 .90610048 0 595.2756)" font-size="45.68478" font-family="BlackMagic" font-style="italic"><tspan y="-324.10493" x="419.60868 434.68467">s </tspan></text>
<text fill="#ffffff" xml:space="preserve" transform="matrix(1.21803 0 -0 1 0 595.2756)" font-size="41.395" font-family="BlackMagic" font-style="italic"><tspan y="-293.6716" x="404.2124 434.34797 452.14784 472.43138 481.53828 499.2124">Chulha</tspan></text>
<text fill-opacity="0" xml:space="preserve" transform="matrix(1.1036304 0 -0 .90610048 0 595.2756)" font-size="45.68478" font-family="BlackMagic" font-style="italic"><tspan y="-324.10493" x="446.1123 479.37083 499.0153 521.4009 531.45156 550.9572">Chulha</tspan></text>
<text fill="#e6370d" xml:space="preserve" transform="matrix(1.1036304 0 -0 .90610048 0 595.2756)" font-size="45.68478" font-family="BlackMagic" font-style="italic"><tspan y="-324.10493" x="198.6404 231.89891 251.40586 272.51225 303.62358 323.45079 344.55714 362.92243 384.0288">Champaran</tspan></text>
<text fill="#e6370d" xml:space="preserve" transform="matrix(1.1036304 0 -0 .90610048 0 595.2756)" font-size="45.68478" font-family="TimesNewRomanPSMT"><tspan y="-324.10493" x="404.40214">&#x2019;</tspan></text>
<text fill="#e6370d" xml:space="preserve" transform="matrix(1.1036304 0 -0 .90610048 0 595.2756)" font-size="45.68478" font-family="BlackMagic" font-style="italic"><tspan y="-324.10493" x="419.6149 434.6909">s </tspan></text>
<text fill="#e6370d" xml:space="preserve" transform="matrix(1.1036304 0 -0 .90610048 0 595.2756)" font-size="45.68478" font-family="BlackMagic" font-style="italic"><tspan y="-324.10493" x="446.11186 479.3704 499.01487 521.4004 531.4511 550.9567">Chulha</tspan></text>
<path transform="matrix(1,0,0,-1,0,595.2756)" stroke-width="1.9998" stroke-linecap="butt" stroke-miterlimit="22.925585" stroke-linejoin="miter" fill="none" stroke="#e6370d" d="M215.473 285.8939H330.6427"/>
<path transform="matrix(1,0,0,-1,0,595.2756)" stroke-width="1.9998" stroke-linecap="butt" stroke-miterlimit="22.925585" stroke-linejoin="miter" fill="none" stroke="#e6370d" d="M636.2935 285.8939H349.829"/>
<text fill="#a65b44" xml:space="preserve" transform="matrix(1.2049066 0 -0 .8299398 0 595.2756)" font-size="20.267735" font-family="AMSAakash"><tspan y="-313.9011" x="293.72737 301.83445 307.1446 311.17787 315.21113 326.86509 336.99894 350.80128 354.83454 364.9684 376.62239 376.6426 391.70155 402.64613 406.67939 416.81327 428.2848 432.31809 432.33836 438.23628 442.26957 446.30287 454.81535 458.8486 467.36109 471.39439 481.52827 492.99983 497.03309 497.05335 512.1123 523.0569 527.09017">svaad ka dulha ca/paarana caulha </tspan></text>
<path transform="matrix(1,0,0,-1,0,595.2756)" stroke-width=".7498" stroke-linecap="butt" stroke-miterlimit="22.925585" stroke-linejoin="miter" fill="none" stroke="#ffffff" d="M288.5893 383.0797C288.5893 380.7831 289.1239 379.5948 290.088 378.1551 277.1042 371.2847 279.576 345.5073 304.0532 344.179 309.3381 343.8924 315.2293 346.4303 319.4249 349.6745 328.4802 356.6769 328.3262 372.8775 318.3523 378.1551 319.3166 379.5948 319.8512 380.7831 319.8512 383.0797 319.8512 387.5828 308.7079 388.0046 304.0061 388.0046 299.0911 388.0046 288.5893 387.294 288.5893 383.0797Z"/>
<path transform="matrix(1,0,0,-1,0,595.2756)" d="M319.6117 382.693 319.6414 382.6619C319.6395 382.6638 319.5992 382.6862 319.6117 382.693ZM313.7494 376.1923C313.581 376.5869 314.1255 380.0889 313.6314 381.8682 313.41 382.6655 313.3817 382.6273 313.1206 382.9419 312.8434 383.2761 313.0112 383.2671 312.4276 383.3572 311.5037 383.5001 312.8426 382.9808 311.8258 380.6464 311.5517 380.0174 310.3183 376.5163 310.6443 375.6767 310.7769 375.3354 311.4581 374.9156 311.7988 374.7983 311.5505 374.2798 311.0652 373.9538 311.3342 372.9475 311.4181 372.6334 311.4425 372.4685 311.5035 372.164 311.5837 371.7649 312.0072 371.1257 312.3493 370.8763 312.6393 371.2136 312.9426 372.4668 314.0626 373.7356L314.8758 374.5012C314.0756 374.5729 313.3531 373.966 312.9891 373.5471 312.4151 372.8863 312.3575 372.4251 312.1909 371.3468 311.9321 371.5509 311.8422 371.812 311.7869 372.1606 311.4743 374.1352 312.0259 373.8115 312.4902 374.7807 312.3054 375.0744 311.7214 375.5452 311.3688 375.7572 311.4473 376.2666 311.3498 376.3837 311.4173 376.8205 311.764 379.0624 312.6609 380.3763 312.8224 381.4223 313.183 381.1377 312.9418 381.477 313.0169 381.0509L312.9392 376.2241C312.8635 375.747 312.8607 375.4843 313.4534 375.4831 314.7038 375.4809 315.0462 376.4183 315.4731 377.4195 315.8748 378.3609 318.2924 382.4498 319.5984 382.606 319.3291 382.0436 318.2343 381.2641 317.876 378.9456 317.7822 378.339 317.5498 377.3259 317.7887 376.7448 317.939 376.3789 317.7159 376.5883 318.0637 376.418 317.5214 377.6902 318.9226 380.1736 319.377 381.0152 319.6273 381.479 319.9351 381.9487 320.3901 382.28 320.6222 382.4493 320.7881 382.5984 321.0795 382.6695 321.7201 382.826 321.4363 382.6018 321.8658 383.0587 321.4361 383.5777 321.2493 383.6784 320.3357 383.5542L319.6159 383.3977C317.658 382.6894 316.1954 380.2612 315.3078 378.7075 315.0646 378.2818 314.8569 377.7829 314.6494 377.3738 314.5243 377.1275 314.4197 376.9061 314.3194 376.7074 313.977 376.0285 313.9475 376.2162 313.7494 376.1923" fill="#a53a32" fill-rule="evenodd"/>
<path transform="matrix(1,0,0,-1,0,595.2756)" d="M319.5346 373.9601C322.2879 373.5343 325.4451 375.9483 326.0928 375.9803 325.8207 375.4125 324.642 373.9878 323.7576 373.5723 323.4226 373.415 323.0062 373.3163 322.7567 373.1049 322.8126 372.7973 322.8681 372.8526 323.0844 372.5683 327.5337 366.0406 325.662 358.1544 321.978 352.3269L323.1068 353.9392C326.4681 358.6411 328.494 367.7947 323.7599 372.8608 324.4856 373.104 325.1234 373.6984 325.6401 374.2271 325.9247 374.5185 326.2275 374.8493 326.4029 375.1478 326.6991 375.6518 326.8763 375.8125 326.9373 376.2068 326.4562 376.4424 326.8947 376.5705 326.4265 376.6428 325.8604 376.7301 324.2194 376.2451 323.6479 376.1192 323.1207 376.003 321.3533 375.7419 320.7481 375.8247L320.7212 375.6506C321.1889 375.5863 321.8179 375.607 322.3168 375.594L323.8384 375.6149C323.3523 375.2031 319.7801 374.1497 319.5346 373.9601" fill="#a53a32" fill-rule="evenodd"/>
<path transform="matrix(1,0,0,-1,0,595.2756)" d="M311.3413 362.1084C312.2736 361.9641 313.2459 362.219 314.0022 362.5529 314.2947 362.6816 314.4076 362.7465 314.5935 362.9443 314.2732 362.9282 314.3109 362.8964 313.9313 362.8301 313.0784 362.681 311.0933 362.4571 310.3991 363.1037 309.361 364.0711 311.1676 364.7248 311.5981 367.5121 311.8037 368.8418 311.7546 368.454 311.1174 369.7186 311.0383 369.8756 311.0049 370.0933 310.9689 370.2747L310.4912 372.3233C310.2318 372.2255 310.1649 372.1209 309.9719 371.9574 309.0872 372.45 306.6347 373.434 306.2469 374.0502 307.2557 373.8943 308.1251 373.7599 308.9426 373.8501 309.5399 373.9161 310.6097 374.1514 310.8413 374.5894 310.3149 374.5633 309.8146 374.0522 307.7983 374.3413 307.3946 374.3991 304.914 375.1753 305.4203 373.9224 305.6658 373.3157 308.5506 372.0847 309.2723 371.8871 311.1653 371.3686 309.6567 372.1096 310.3569 369.8575 310.7134 368.71 311.5046 368.7471 310.4697 366.0644 310.1505 365.237 309.0025 364.2979 309.4815 363.2357 309.7168 362.7145 310.4362 362.2482 311.3413 362.1084" fill="#a53a32" fill-rule="evenodd"/>
<path transform="matrix(1,0,0,-1,0,595.2756)" d="M319.2199 362.9432C319.3914 363.5858 320.4459 363.6031 320.8771 363.9365 320.3294 363.9855 319.701 363.831 319.2846 363.6859 319.0272 363.5963 318.7964 363.496 318.5909 363.4019 316.997 362.6717 320.4283 362.5288 320.1392 360.6593 320.0448 360.0479 319.3285 361.078 319.1088 361.2875 318.7174 361.6605 317.7306 362.3698 317.9069 361.1829 317.5739 361.3071 317.49 361.4751 317.1044 361.6974 316.7912 361.8777 316.5304 362.0203 316.0809 362.0897 313.9228 362.4233 312.9197 360.5683 310.9757 361.9862 311.061 361.5171 311.6095 361.1744 312.3363 361.0621 314.4679 360.7328 314.0674 361.7762 316.2124 361.4448 316.9596 361.3294 317.6705 360.4975 317.7663 359.75 317.8902 358.7825 318.7151 359.0785 318.7003 359.8968 318.6995 359.9439 318.6337 360.4402 318.8563 360.5899 319.3061 360.2619 319.3362 359.8228 319.8379 359.4566 320.3649 359.5825 320.527 359.7358 320.726 360.1488 320.9074 360.525 320.9678 360.877 320.8527 361.2906 320.6965 361.8522 319.9107 362.7057 319.2199 362.9432" fill="#a53a32" fill-rule="evenodd"/>
<path transform="matrix(1,0,0,-1,0,595.2756)" d="M316.7872 369.6548C316.8034 369.7597 317.0384 370.0397 317.1274 370.1078 317.3125 370.2489 317.4474 370.2591 317.7351 370.2889 318.4342 370.3618 318.3701 370.1863 318.7885 369.881 318.3894 369.0476 317.7717 368.9708 316.8465 369.2889 316.8099 369.5477 316.7563 369.4552 316.7872 369.6548ZM316.2492 369.9164 316.1968 368.6771C316.8601 368.5847 317.613 368.7137 318.1224 368.8591 319.0158 369.1145 320.8207 370.281 317.8794 370.7354 316.8369 370.8967 316.2603 370.3771 316.2492 369.9164" fill="#a53a32" fill-rule="evenodd"/>
<path transform="matrix(1,0,0,-1,0,595.2756)" d="M318.244 376.8364C318.6751 376.5966 319.0071 376.6714 319.5765 376.5345 319.892 376.4585 320.4357 376.2371 320.6755 376.1036 320.5335 376.5878 319.3294 377.0257 318.7497 377.1153 318.4163 377.1666 318.3375 377.0277 318.244 376.8364" fill="#a53a32" fill-rule="evenodd"/>
<path transform="matrix(1,0,0,-1,0,595.2756)" d="M311.9632 363.8863C312.4312 363.8443 312.4616 363.9495 312.7864 364.136 313.1731 364.358 313.1705 364.318 313.128 364.6877 312.5917 364.7358 312.5803 364.6106 312.1679 364.1774 311.9862 363.9864 312.0667 364.1023 311.9632 363.8863" fill="#a53a32" fill-rule="evenodd"/>
<path transform="matrix(1,0,0,-1,0,595.2756)" d="M311.4065 364.7752C311.2849 363.9878 311.3056 364.4172 311.4252 364.1477 311.87 364.3157 311.9519 364.5615 312.0117 364.9496 312.0633 365.2826 312.0514 364.9759 311.9391 365.2285 311.5809 365.2106 311.4612 365.1287 311.4065 364.7752" fill="#a53a32" fill-rule="evenodd"/>
<path transform="matrix(1,0,0,-1,0,595.2756)" d="M317.0993 369.4283C317.7289 369.3419 318.2187 369.5088 318.3367 369.951 317.7068 370.0372 317.2173 369.8702 317.0993 369.4283" fill="#a53a32" fill-rule="evenodd"/>
<path transform="matrix(1,0,0,-1,0,595.2756)" d="M292.7271 372.3214C293.0615 373.8923 294.0341 373.7801 294.6348 373.2877 294.2671 372.0951 293.4204 371.753 292.7271 372.3214ZM279.8107 371.7034C280.9803 370.7447 282.1618 371.1416 283.7282 371.3068 284.3666 371.3743 285.4091 371.4591 285.8834 371.967 285.6231 372.1802 285.6027 372.253 285.296 372.3335L284.7835 372.3341C283.6431 372.1932 281.5481 371.5447 280.5979 372.3233 281.2626 373.1066 282.2655 373.3696 282.9461 373.746 283.2724 373.9266 283.1204 373.8736 283.4668 374.0224 283.716 374.1296 283.458 373.951 283.8994 374.2084 284.5664 374.5979 284.5208 374.798 284.6948 375.1101 284.1463 375.5594 283.972 375.6733 283.7877 376.215 284.2183 376.6765 284.8941 376.7437 285.4276 376.7862 286.1631 376.8449 286.4574 376.5798 287.155 377.4308 286.7712 378.0031 286.2913 378.5187 286.5189 379.0366 288.8946 377.0895 289.2997 378.5525 288.9887 379.4318 288.8756 379.7521 288.6931 380.2144 288.5258 380.4642L288.7914 380.7884C289.0715 380.5036 288.9408 380.4851 289.3703 380.1334 290.1285 379.5117 290.6325 379.2793 291.3769 378.6693 291.9073 378.898 292.445 379.0706 292.3563 380.2099 292.2537 381.5237 291.7012 381.2723 291.8146 381.9249 293.1928 381.3531 293.6273 379.2033 294.499 380.2666 295.0078 380.8874 294.654 380.9248 294.963 381.513 295.4792 380.7437 295.1779 379.6634 295.3505 379.3093 295.7462 378.4963 296.3908 379.7819 296.7905 380.3717L296.6029 379.7889C295.3344 376.9588 296.8435 378.4975 297.4771 376.6609 297.7707 375.8094 297.4493 374.5001 296.2896 374.3714 294.8598 374.2123 293.8924 375.2062 291.7755 374.8124 291.0722 374.6815 289.2424 374.0933 289.7768 373.6553 290.179 373.3254 290.488 373.5845 290.975 373.731 291.4092 373.862 291.8565 374.0528 292.2579 373.7903 291.6363 372.9243 291.149 372.1689 291.8514 371.5931 293.8552 369.9507 295.3483 372.7877 295.5677 373.0652 296.5357 373.0924 296.3398 373.1426 297.3654 372.7678 298.2969 372.4274 297.4487 372.3698 296.2151 371.8474 295.8562 371.6955 295.7238 371.6549 295.3514 371.5217 294.8584 371.3454 294.9446 371.4545 294.4783 370.8856 295.1073 369.9482 295.9693 368.9155 295.8919 367.7947 295.7754 366.1055 293.8028 365.656 293.144 366.196 292.6202 366.6257 292.6562 367.8625 292.6111 368.176 292.5797 368.3965 292.6329 368.2896 292.5289 368.5076 291.9753 365.9066 294.2841 364.695 295.7139 366.4392 296.5385 367.4455 296.494 368.8883 295.9795 369.6551 296.6542 370.3782 297.6661 370.7921 298.3408 371.5152 297.415 371.4891 296.2037 370.0511 295.4115 370.6631 295.9452 371.2354 296.9271 371.3423 297.5746 371.6016 298.8865 372.1275 299.0239 371.838 299.7428 372.7154 299.2343 373.4734 297.9771 373.2951 297.2149 373.8838 298.6591 375.116 298.6659 376.4636 297.9332 377.5561 297.8674 377.6539 297.6562 377.9286 297.5873 378.004 297.0295 378.614 297.5128 377.7094 296.8447 378.7055 297.131 379.2189 297.3577 379.6571 297.6242 380.2 298.1979 381.3695 297.5145 382.4147 296.2244 380.8406 295.8537 381.3934 295.7967 383.2251 294.1447 382.7259 293.7881 382.087 293.9465 382.2854 293.9468 381.7817 293.9468 381.0779 294.1075 381.3106 292.1848 382.8866 292.0997 382.9564 291.7216 383.1214 291.6709 383.1324 290.9395 383.2914 290.3692 382.572 291.0484 381.3097 291.1799 381.0654 291.3072 380.8596 291.4101 380.6048 291.5189 380.3357 291.6062 380.1053 291.4081 379.728 290.3865 380.5656 288.6406 382.4753 287.7857 381.4322 287.2803 380.8157 288.1811 379.7575 288.0567 379.0412 287.6542 379.3711 287.4523 379.3791 286.9673 379.7589 286.2836 380.2946 286.0277 380.1382 285.5965 379.6121 285.1583 379.0777 285.6555 378.2435 285.7997 377.8189 285.1254 377.2726 284.2101 377.9206 283.1153 376.5855 282.725 376.109 283.0995 375.353 283.496 375.0083 282.6879 374.1423 281.0151 374.0233 280.0142 372.8018 279.7155 372.4376 279.5411 371.9245 279.8107 371.7034" fill="#a53a32" fill-rule="evenodd"/>
<path transform="matrix(1,0,0,-1,0,595.2756)" d="M282.6411 368.7727C281.3825 363.2882 283.8591 353.3618 288.6134 350.1646 284.743 354.9317 282.6938 362.3573 283.5941 369.0675 283.2656 368.7857 283.0357 368.9306 282.6411 368.7727ZM292.7662 346.5394C293.6356 346.0938 294.3901 345.8378 294.9435 345.7772L294.1157 346.1318 292.828 346.5181C292.807 346.5244 292.7866 346.5317 292.7662 346.5394" fill="#a53a32" fill-rule="evenodd"/>
<path transform="matrix(1,0,0,-1,0,595.2756)" d="M281.5532 371.1025C281.8392 371.3338 283.4541 371.5047 283.2231 370.8218 282.9614 370.1169 282.7729 369.3753 282.6227 368.6794 282.9144 368.8398 283.2457 368.7902 283.4824 368.5986 283.644 369.1794 283.7271 369.5882 283.8773 370.1832 284.6795 372.3877 283.9031 372.1479 281.8468 371.9245 281.431 371.7842 281.5435 371.9234 281.154 371.6082Z" fill="#a53a32" fill-rule="evenodd"/>
<path transform="matrix(1,0,0,-1,0,595.2756)" d="M293.8374 372.3148 294.3689 372.9634C294.0072 373.0969 293.3433 372.7576 292.9876 372.469 293.3286 372.2462 293.5063 372.3055 293.8374 372.3148" fill="#a53a32" fill-rule="evenodd"/>
<path transform="matrix(1,0,0,-1,0,595.2756)" d="M334.8737 388.5259C336.257 388.4108 340.2142 386.509 341.4098 385.9143 349.969 381.6561 354.329 373.3551 352.1877 364.1547 351.5822 361.5528 350.6292 359.3248 349.1393 357.2717 347.055 354.3993 344.3803 352.2127 341.1527 350.6219 337.0978 348.6229 330.5721 347.7932 326.0222 349.1337 325.5316 349.2782 324.9017 349.6569 324.9391 349.2167L325.1835 348.7983C325.1869 348.7955 325.9157 348.315 325.9769 348.2756 326.5432 347.9097 327.0716 347.4774 327.7417 347.1551 329.0119 346.5442 330.5701 345.9949 331.9985 345.6621 332.5567 343.2671 332.5654 338.8425 332.0354 336.4775 331.1345 332.4594 328.71 329.7271 325.2801 328.074 321.9735 326.4803 310.6468 326.8338 306.1233 326.844 304.0773 326.8488 302.919 326.5702 301.1658 326.5741 298.1426 326.5815 277.5898 324.3668 274.7599 322.4007 301.0558 324.7858 316.5001 325.6894 340.3624 315.0706 340.3624 325.3175 341.1465 335.95 341.1465 346.1851 344.0767 346.4289 348.6696 349.6241 350.8157 351.6749 353.3635 354.1102 354.7361 356.4303 356.3957 359.6856 359.0467 364.8855 358.5013 371.8902 356.2353 377.2171 353.1402 384.4939 344.7235 390.2318 336.6111 389.141 335.2326 388.9553 335.4834 389.3581 334.8737 388.5259" fill="#a65b44" fill-rule="evenodd"/>
<path transform="matrix(1,0,0,-1,0,595.2756)" d="M249.6688 367.878C249.6688 361.548 250.7964 357.9965 254.2572 353.3868 257.4105 349.187 260.293 348.1696 264.0438 346.1851 264.0438 342.4972 264.5308 339.7725 264.8055 336.4917 264.9189 335.137 265.0895 334.3691 265.0895 333.1165L275.9559 335.5795C277.9243 336.022 285.7402 337.2985 287.5669 337.2985 287.5297 338.9681 287.2417 338.7308 285.639 338.4731L276.0667 337.2985C273.4223 337.2985 271.7308 338.5899 270.3745 339.9695 269.4373 340.9228 267.5727 343.8269 267.4417 345.4007 268.1685 345.0521 267.9477 345.1394 269.0099 345.1394L264.0796 348.5724C262.6404 349.6394 261.0096 351.2937 259.7967 352.6534 258.8567 353.7068 257.1962 356.3734 256.5479 357.7683 254.2082 362.8015 254.3681 368.6757 256.8064 373.5473 259.488 378.9043 264.1348 383.1239 270.1712 384.4894 275.5585 385.7083 280.6424 385.3006 285.7411 383.3025 286.5118 383.0006 287.4821 382.4152 288.0893 382.2531 287.3024 385.2011 279.2186 389.0486 274.4986 389.0486 268.7584 389.0486 264.2893 388.2679 259.5974 385.1311L256.5218 382.7186C256.2814 382.4963 256.0589 382.3209 255.8356 382.098L253.9959 380.0171C251.6749 376.9296 249.6688 372.2142 249.6688 367.878" fill="#a65b44" fill-rule="evenodd"/>
<path transform="matrix(1,0,0,-1,0,595.2756)" d="M282.3395 388.2645C284.3269 389.5954 290.5571 402.3782 304.8168 402.3782 309.1399 402.3782 309.7307 402.6504 314.0271 401.3952 318.7653 400.011 322.7006 396.3444 325.5449 392.5267 329.178 387.6497 331.1507 379.5647 330.207 373.0459 329.9465 371.247 329.754 371.3014 330.9534 371.0146 331.9551 371.7485 333.2455 375.1226 333.6265 376.7051 334.2728 379.3912 334.3031 381.3276 334.0706 384.3249 333.9085 386.4141 332.9884 389.4401 332.1765 391.0558 330.3422 394.706 327.9555 398.1206 324.8657 400.7341 316.4423 407.859 307.3065 409.5788 296.6791 406.0726 291.839 404.4759 287.3767 400.6624 285.0378 396.282 284.0621 394.4546 282.5393 390.6655 282.3395 388.2645" fill="#a65b44" fill-rule="evenodd"/>
<path transform="matrix(1,0,0,-1,0,595.2756)" stroke-width=".5669" stroke-linecap="butt" stroke-miterlimit="22.925585" stroke-linejoin="miter" fill="none" stroke="#a65b44" d="M304.0234 391.7449C311.3317 391.7449 317.2564 390.0025 317.2564 387.8527 317.2564 385.7031 311.3317 383.9607 304.0234 383.9607 296.7148 383.9607 290.7901 385.7031 290.7901 387.8527 290.7901 390.0025 296.7148 391.7449 304.0234 391.7449Z"/>
<path transform="matrix(1,0,0,-1,0,595.2756)" stroke-width=".5669" stroke-linecap="butt" stroke-miterlimit="22.925585" stroke-linejoin="miter" fill="none" stroke="#a65b44" d="M304.0234 391.3988C310.9816 391.3988 316.6223 389.8114 316.6223 387.8527 316.6223 385.8942 310.9816 384.3065 304.0234 384.3065 297.0652 384.3065 291.4243 385.8942 291.4243 387.8527 291.4243 389.8114 297.0652 391.3988 304.0234 391.3988Z"/>
<path transform="matrix(1,0,0,-1,0,595.2756)" d="M307.0828 399.7542C305.3818 394.492 308.8091 394.3647 306.8408 389.4931 306.8459 393.1163 306.1508 392.4479 305.6751 394.7253 305.1116 397.4213 306.9235 400.0102 307.0828 399.7542" fill="#a65b44" fill-rule="evenodd"/>
<path transform="matrix(1,0,0,-1,0,595.2756)" d="M305.2519 402.2155C301.7044 394.3091 307.7082 393.6966 303.7323 386.4251 304.128 392.0105 302.8363 391.0643 302.2441 394.6331 301.5425 398.8582 304.9997 402.6294 305.2519 402.2155" fill="#a65b44" fill-rule="evenodd"/>
<path transform="matrix(1,0,0,-1,0,595.2756)" d="M302.2906 401.0057C299.2147 393.0996 304.0872 392.4867 301.4966 385.2153 301.7789 390.8004 300.132 389.8548 299.7096 393.4233 299.2093 397.6481 302.1106 401.4193 302.2906 401.0057" fill="#a65b44" fill-rule="evenodd"/>
<path transform="matrix(1,0,0,-1,0,595.2756)" d="M301.0175 360.8167 301.2542 360.3512C301.6018 359.3826 301.0056 357.9849 300.6062 357.2597 300.3608 356.8139 299.8687 356.1661 299.5149 355.7693L298.2589 354.4172C297.3526 353.4647 296.4739 352.4774 296.4739 351.1845 296.1473 351.3685 295.8812 352.1809 295.8812 352.6792 295.8812 353.1526 296.0487 353.245 296.0787 353.5509 295.8114 353.5461 295.8041 353.4681 295.6465 353.3332 295.5197 353.2246 295.4435 353.1688 295.338 353.0529 294.7317 352.387 294.3119 352.0372 293.8351 351.0777 293.186 349.7715 293.0661 348.798 293.0661 347.4065 292.8552 347.4476 292.6854 347.5604 292.4705 347.6208 292.0331 347.7436 292.3132 347.438 292.3645 347.3155 292.8044 346.2636 292.4461 344.6586 294.1058 342.468 294.4528 342.0099 295.6371 340.8849 296.1777 340.7635V340.6805C295.6277 340.5572 295.2986 339.5228 295.9194 339.0103 296.0495 338.9026 296.0226 338.9749 296.1283 338.8538L294.647 338.2722C294.6002 338.2495 294.5636 338.2302 294.5322 338.2101 294.4706 338.1712 294.4278 338.1299 294.3618 338.0553 293.9102 337.5476 293.9547 336.7423 294.2365 336.1839 294.3493 335.9599 294.5015 335.7337 294.6671 335.5495 294.9324 335.2541 295.5144 334.7436 296.0787 334.7436 296.7403 334.7436 299.7065 336.5198 299.931 336.5702 299.7516 335.9225 300.1785 335.3902 300.6102 335.0653 301.6434 334.2878 304.9688 334.042 304.9688 336.6119L305.598 336.02C305.8254 335.8312 306.023 335.679 306.2673 335.503 306.9944 334.9797 307.5642 334.8266 308.4752 334.8266 310.2151 334.8266 311.4822 336.5016 310.2599 337.7801 310.0552 337.9944 309.6941 338.406 309.3642 338.4802V338.563C309.8537 338.5973 310.1145 339.1211 310.1397 339.5262 310.1839 340.234 309.6193 340.4639 309.5617 340.5974 310.2888 340.9209 310.9459 341.3835 311.4541 341.913 311.6203 342.0862 311.8051 342.2713 311.9431 342.4569 312.732 343.5177 312.717 344.2127 312.8919 345.2788L312.8301 346.625C312.7181 347.2807 312.5452 347.8623 312.2972 348.4604 312.0055 349.1646 311.3396 350.0464 311.3396 350.7279 311.3396 351.9527 311.8725 352.0035 311.9817 352.347 311.8204 352.4377 311.9474 352.3938 311.7419 352.4372 311.4918 352.4899 311.203 352.4547 310.9235 352.4063 310.6026 352.3507 310.2211 352.2626 309.9498 352.1869 308.8959 351.8932 308.7833 351.6211 308.3766 351.392 308.3766 354.5308 306.9553 356.8037 304.488 358.8763L303.2331 359.7729C303.0117 359.9133 302.809 360.0354 302.5772 360.1763 302.2033 360.4039 301.4804 360.8167 301.0175 360.8167Z" fill="#f05d37" fill-rule="evenodd"/>
<path transform="matrix(1,0,0,-1,0,595.2756)" stroke-width=".216" stroke-linecap="butt" stroke-miterlimit="22.925585" stroke-linejoin="miter" fill="none" stroke="#fbe805" d="M301.0175 360.8167 301.2542 360.3512C301.6018 359.3826 301.0056 357.9849 300.6062 357.2597 300.3608 356.8139 299.8687 356.1661 299.5149 355.7693L298.2589 354.4172C297.3526 353.4647 296.4739 352.4774 296.4739 351.1845 296.1473 351.3685 295.8812 352.1809 295.8812 352.6792 295.8812 353.1526 296.0487 353.245 296.0787 353.5509 295.8114 353.5461 295.8041 353.4681 295.6465 353.3332 295.5197 353.2246 295.4435 353.1688 295.338 353.0529 294.7317 352.387 294.3119 352.0372 293.8351 351.0777 293.186 349.7715 293.0661 348.798 293.0661 347.4065 292.8552 347.4476 292.6854 347.5604 292.4705 347.6208 292.0331 347.7436 292.3132 347.438 292.3645 347.3155 292.8044 346.2636 292.4461 344.6586 294.1058 342.468 294.4528 342.0099 295.6371 340.8849 296.1777 340.7635V340.6805C295.6277 340.5572 295.2986 339.5228 295.9194 339.0103 296.0495 338.9026 296.0226 338.9749 296.1283 338.8538L294.647 338.2722C294.6002 338.2495 294.5636 338.2302 294.5322 338.2101 294.4706 338.1712 294.4278 338.1299 294.3618 338.0553 293.9102 337.5476 293.9547 336.7423 294.2365 336.1839 294.3493 335.9599 294.5015 335.7337 294.6671 335.5495 294.9324 335.2541 295.5144 334.7436 296.0787 334.7436 296.7403 334.7436 299.7065 336.5198 299.931 336.5702 299.7516 335.9225 300.1785 335.3902 300.6102 335.0653 301.6434 334.2878 304.9688 334.042 304.9688 336.6119L305.598 336.02C305.8254 335.8312 306.023 335.679 306.2673 335.503 306.9944 334.9797 307.5642 334.8266 308.4752 334.8266 310.2151 334.8266 311.4822 336.5016 310.2599 337.7801 310.0552 337.9944 309.6941 338.406 309.3642 338.4802V338.563C309.8537 338.5973 310.1145 339.1211 310.1397 339.5262 310.1839 340.234 309.6193 340.4639 309.5617 340.5974 310.2888 340.9209 310.9459 341.3835 311.4541 341.913 311.6203 342.0862 311.8051 342.2713 311.9431 342.4569 312.732 343.5177 312.717 344.2127 312.8919 345.2788L312.8301 346.625C312.7181 347.2807 312.5452 347.8623 312.2972 348.4604 312.0055 349.1646 311.3396 350.0464 311.3396 350.7279 311.3396 351.9527 311.8725 352.0035 311.9817 352.347 311.8204 352.4377 311.9474 352.3938 311.7419 352.4372 311.4918 352.4899 311.203 352.4547 310.9235 352.4063 310.6026 352.3507 310.2211 352.2626 309.9498 352.1869 308.8959 351.8932 308.7833 351.6211 308.3766 351.392 308.3766 354.5308 306.9553 356.8037 304.488 358.8763L303.2331 359.7729C303.0117 359.9133 302.809 360.0354 302.5772 360.1763 302.2033 360.4039 301.4804 360.8167 301.0175 360.8167Z"/>
<path transform="matrix(1,0,0,-1,0,595.2756)" d="M296.0294 349.1501C296.185 349.0543 296.1539 348.9965 296.2429 348.8312 296.3078 348.7107 296.3554 348.6481 296.445 348.5443 296.6417 348.3173 297.379 347.6387 297.6644 347.6738 297.915 347.7044 297.2143 348.4769 297.8983 349.9041 298.207 350.5479 298.7626 351.0714 299.3505 351.5066 299.7598 351.8096 300.9543 352.8303 301.2647 353.1773 301.5108 353.4525 301.7047 353.7094 301.8651 354.0427 301.9924 354.3075 302.3368 355.2191 302.1041 355.627 302.3589 355.5697 302.9788 355.1698 303.2124 355.0224 304.8066 354.018 305.4402 352.7668 305.8209 351.1536 305.9169 350.7469 306.0062 350.3285 306.1602 349.9441 306.3226 349.5382 306.9266 348.1583 307.5863 348.1121 307.6393 348.647 308.2073 348.916 308.6235 349.1501 308.6104 349.0203 308.5739 349.0027 308.5739 348.8596 308.5739 348.2844 308.9548 347.3997 309.1277 346.8339 309.5694 345.3894 309.8307 344.3627 309.1467 342.9808 308.6983 342.0748 307.5163 341.1519 306.4346 340.6938 306.1996 340.5943 305.9252 340.4835 305.6601 340.4313 305.7707 340.5702 305.9334 340.6391 306.093 340.7732 306.955 341.4977 307.8332 342.9598 307.8332 343.9604 307.8332 344.7326 307.8437 345.5748 307.438 346.2854 307.3031 346.2024 307.1316 345.6241 307.0222 345.4311 306.9629 345.3265 306.9884 345.3732 306.9442 345.3304 306.9442 346.0292 306.8016 346.7866 306.5332 347.2685 306.0034 348.2203 305.2553 348.5829 304.7502 349.1325 304.3939 349.5206 302.8598 350.5017 303.2705 351.5743 303.3403 351.7569 303.3848 351.699 303.4378 351.8904 303.12 351.8904 303.0579 351.8637 302.853 351.7591 302.6789 351.6698 302.5658 351.6117 302.4074 351.5108 302.2551 351.4139 302.1426 351.343 301.9898 351.2392 301.3089 350.7763 300.7466 350.3477 300.1915 349.7202 299.7788 349.2533 299.4503 348.7093 299.2689 348.0463 299.1898 347.7577 299.101 347.3045 299.09 346.9927 299.0772 346.6304 299.0889 346.1312 299.1903 345.9532 299.0347 345.9883 298.9602 346.0771 298.838 346.1553 298.7155 346.2333 298.6149 346.2863 298.4919 346.3628 298.3422 346.4561 298.2926 346.4688 298.1254 346.553 298.0431 346.5944 297.9805 346.6508 297.8365 346.667 297.6452 346.6885 297.6554 346.5505 297.6338 346.4728L297.6097 344.5829C297.6778 343.4545 298.294 342.1446 299.0699 341.2851 299.2751 341.0575 299.4528 340.8803 299.6957 340.6904 300.0356 340.4245 300.2292 340.403 300.4744 340.2238 300.1723 340.2451 299.5364 340.4392 299.2609 340.5322L298.2186 340.9432C296.3112 341.7885 295.2887 344.5345 295.2887 346.2854 295.2887 346.8149 295.4154 347.4071 295.5231 347.832 295.7267 348.6345 295.9506 348.8655 296.0294 349.1501" fill="#f59600" fill-rule="evenodd"/>
<path transform="matrix(1,0,0,-1,0,595.2756)" d="M302.5488 345.9118V346.4515C302.5488 346.5947 302.5123 346.6123 302.4992 346.7421L303.2249 346.314C303.4797 346.1406 303.6044 346.0283 303.8057 345.8061 304.3604 345.1929 304.4254 344.6127 304.4254 343.8774 304.4254 343.2611 304.1529 342.8399 304.2774 342.7149 304.4322 342.7498 304.4548 342.7929 304.5591 342.8932 304.5719 342.9054 304.6255 342.9578 304.628 342.9598L304.6768 343.0018C304.901 343.1849 305.1397 343.2991 305.4132 343.4207 305.3075 343.0879 305.1082 343.0273 305.117 342.1752 305.1383 340.0265 302.6914 339.5231 301.4708 340.1481 300.9461 340.4166 301.0867 340.3624 300.7579 340.6697 300.2185 341.174 300.0773 341.9133 300.117 342.5613 300.1209 342.6279 300.1272 342.6831 300.1283 342.7549 300.136 343.2495 300.2769 343.4873 300.2769 343.9188 300.6102 343.7311 300.7809 343.3742 301.0671 343.2132 301.6378 343.5344 302.5488 345.0728 302.5488 345.9118" fill="#ffed00" fill-rule="evenodd"/>
<path transform="matrix(1,0,0,-1,0,595.2756)" d="M299.3386 346.7421C299.3386 348.4735 300.0067 349.2788 301.055 350.2811L302.3167 351.2134C302.4626 351.3129 302.8731 351.5615 303.0426 351.5998 302.923 351.1678 302.9267 350.941 303.1262 350.549 303.4976 349.8185 304.4271 349.0432 305.1045 348.4755 306.4842 347.3195 306.5788 346.5884 306.6945 345.079 306.7109 344.8644 306.6457 344.9665 306.796 344.8738 307.05 344.7468 307.2436 345.5518 307.438 345.7871 307.4465 345.4659 307.5863 345.2071 307.5863 344.8324 307.5863 343.9803 307.6019 343.5236 307.22 342.6905 306.7163 341.5921 305.6638 340.3806 304.2278 340.0994 305.6913 341.1686 305.1799 341.9433 305.4342 342.9465 305.4725 343.0976 305.5844 343.3175 305.6604 343.4204 305.8347 343.6563 305.9444 343.5599 306.0057 343.7529 304.7715 343.5111 304.9203 343.2909 304.5736 343.2132 304.6422 343.3334 304.6723 343.6846 304.6723 343.8774 304.6723 344.5064 304.6629 344.8834 304.3278 345.456 304.1819 345.7057 303.9415 345.9798 303.7048 346.1777 303.6733 346.2041 303.6382 346.2282 303.601 346.2568 303.2626 346.5153 303.0605 346.6638 302.631 346.8532 301.8668 347.1902 302.3512 346.7231 302.3512 346.2024 302.3512 345.7219 302.1296 344.9772 301.9399 344.6382 301.7857 344.3627 301.3398 343.6157 301.0671 343.4621 300.9557 343.525 300.9444 343.5659 300.8546 343.6571 300.7205 343.7932 300.3457 344.1302 300.1782 344.1679 300.1363 344.0948 300.0365 343.5506 300.001 343.4034 299.863 342.8345 299.8817 342.7302 299.8817 342.1752 299.8817 341.0396 300.4903 340.7207 300.82 340.3069 300.638 340.3426 300.2596 340.5407 300.1212 340.6326 299.5067 341.041 299.5226 341.087 299.0769 341.5819 298.6506 342.0553 298.2614 342.8096 298.0831 343.4034 297.7517 344.5072 297.8076 344.9024 297.8076 345.9949 297.8076 346.2253 297.8569 346.2409 297.8569 346.4515 298.0494 346.4138 298.5069 346.1522 298.6588 346.0462 298.9675 345.831 299.2039 345.6255 299.4372 345.6213 299.4372 345.9954 299.3386 346.3126 299.3386 346.7421" fill="#ffed00" fill-rule="evenodd"/>
<path transform="matrix(1,0,0,-1,0,595.2756)" d="M294.7107 342.2044 294.696 342.2166C294.6912 342.2126 294.7099 342.2052 294.7107 342.2044" fill="#f05d37" fill-rule="evenodd"/>
<path transform="matrix(1,0,0,-1,0,595.2756)" d="M296.869 341.5524C296.8642 341.5482 296.8829 341.5408 296.8838 341.5399Z" fill="#f05d37" fill-rule="evenodd"/>
<path transform="matrix(1,0,0,-1,0,595.2756)" d="M298.8941 340.3485C298.889 340.3443 298.9077 340.3369 298.9086 340.3361Z" fill="#f05d37" fill-rule="evenodd"/>
<path transform="matrix(1,0,0,-1,0,595.2756)" d="M298.3014 340.5974C298.2966 340.5934 298.315 340.5858 298.3161 340.5852Z" fill="#f05d37" fill-rule="evenodd"/>
<path transform="matrix(1,0,0,-1,0,595.2756)" d="M297.1947 341.0541C297.2435 341.0609 297.1653 341.1604 297.1653 341.0541 297.1653 340.9384 297.1942 341.0541 297.1947 341.0541" fill="#f05d37" fill-rule="evenodd"/>
<path transform="matrix(1,0,0,-1,0,595.2756)" d="M297.6593 340.9296C297.6542 340.9257 297.6729 340.918 297.6741 340.9172Z" fill="#f05d37" fill-rule="evenodd"/>
<path transform="matrix(1,0,0,-1,0,595.2756)" d="M297.3813 341.0484C297.3852 341.0461 297.3986 341.0391 297.4022 341.0368L297.4422 341.0195C297.4442 341.0246 297.4567 341.0084 297.47 341.0056L297.3135 341.0957C297.3249 341.0855 297.3515 341.0671 297.3591 341.0623 297.3634 341.0597 297.3767 341.0512 297.3813 341.0484" fill="#f05d37" fill-rule="evenodd"/>
<path transform="matrix(1,0,0,-1,0,595.2756)" d="M297.0666 341.3449C297.055 341.3248 296.9731 341.0518 297.1159 341.2202L297.0952 341.2826C297.0947 341.2942 297.1236 341.297 297.1242 341.3103Z" fill="#f05d37" fill-rule="evenodd"/>
<path transform="matrix(1,0,0,-1,0,595.2756)" d="M296.869 341.3449C296.8642 341.3407 296.8829 341.3333 296.8838 341.3324Z" fill="#f05d37" fill-rule="evenodd"/>
<path transform="matrix(1,0,0,-1,0,595.2756)" d="M296.8197 341.3449C296.8047 341.35 296.5844 341.418 296.6632 341.3378L296.7454 341.3032 296.7786 341.2964Z" fill="#f05d37" fill-rule="evenodd"/>
<path transform="matrix(1,0,0,-1,0,595.2756)" d="M297.2149 341.1788C297.2968 340.8826 297.3892 340.9112 297.5482 340.8707 297.7954 340.8077 297.7421 340.8409 297.864 340.6887 297.868 340.6833 297.8819 340.6572 297.885 340.6637 297.8881 340.67 297.8983 340.6467 297.9062 340.6391 297.8793 340.9112 297.7421 340.8605 297.724 340.8664 297.559 340.9214 297.6525 340.9257 297.5111 341.0127 297.5618 340.8117 297.5502 340.9543 297.5111 340.8883 297.4065 341.0546 297.487 340.9537 297.4289 340.9758L297.3793 340.9739C297.3793 340.9739 297.2761 341.2131 297.1159 341.3032 297.1568 341.142 297.1568 341.257 297.1159 341.0957 296.9223 341.2831 297.0363 341.2715 296.7866 341.261L296.7355 341.2573C296.655 341.2616 296.693 341.2471 296.6564 341.3095 296.6335 341.3483 296.7012 341.4271 296.5235 341.3449 296.7333 341.2154 296.5592 341.1873 296.8325 341.2006 296.983 341.208 297.0102 341.2159 297.0666 341.0127L297.1936 341.155C297.1967 341.1686 297.2072 341.1711 297.2149 341.1788" fill="#f05d37" fill-rule="evenodd"/>
<path transform="matrix(1,0,0,-1,0,595.2756)" d="M296.227 341.428C296.5048 341.3313 296.426 341.3296 296.4739 341.3863 296.2607 341.5065 296.2701 341.4779 296.227 341.428" fill="#f05d37" fill-rule="evenodd"/>
<path transform="matrix(1,0,0,-1,0,595.2756)" d="M296.968 341.0541C297.1264 340.8024 297.112 340.958 297.4014 340.8293L297.449 340.8089C297.5692 340.7542 297.7019 340.7179 297.798 340.6292 297.8708 340.5614 297.8708 340.5512 297.972 340.5549L298.0916 340.5606C298.0945 340.5611 298.1075 340.564 298.1103 340.5643L298.5069 340.4463C298.5097 340.4455 298.5256 340.433 298.5279 340.4387 298.5299 340.4443 298.5429 340.4271 298.5565 340.4245L298.4675 340.5095C298.4624 340.511 298.4491 340.5155 298.444 340.5166L298.0848 340.6374C298.0253 340.6561 298.1075 340.5781 298.0389 340.67 297.9706 340.7618 298.027 340.6842 298.0049 340.7635 297.9989 340.7556 297.9952 340.7417 297.9933 340.7369L297.9746 340.6853C297.9729 340.6799 297.9697 340.666 297.9683 340.6609 297.9672 340.6564 297.9643 340.6422 297.9635 340.6385L297.913 340.6088C297.9094 340.6102 297.8952 340.6144 297.8915 340.6164 297.8872 340.6184 297.8739 340.6238 297.8697 340.6263 297.7631 340.6929 297.8232 340.7309 297.6936 340.763 297.6911 340.7635 297.6795 340.7669 297.6769 340.7681L297.449 340.8551C297.4436 340.8565 297.4292 340.8593 297.4238 340.861L297.1973 340.9756C296.8517 340.9934 297.1307 341.1371 296.9019 341.1371 296.8997 341.1371 296.8877 341.1371 296.8855 341.1371 296.8177 341.1371 296.9203 341.1371 296.8526 341.1371H296.6715C296.492 341.2545 296.6499 341.2826 296.3631 341.3557 296.3577 341.3571 296.3435 341.3608 296.3381 341.3622L296.1411 341.4229C296.1363 341.4251 296.1241 341.4328 296.1196 341.4351 296.0062 341.4917 296.0555 341.4858 295.9308 341.428L296.5079 341.2593C296.6131 341.2089 296.6193 341.0541 296.7375 341.0544Z" fill="#f05d37" fill-rule="evenodd"/>
<path transform="matrix(1,0,0,-1,0,595.2756)" d="M297.3628 340.6805C297.3679 340.6791 297.3773 340.6822 297.379 340.6822 297.4774 340.683 297.5213 340.6317 297.6389 340.5796L297.7982 340.5084C297.9927 340.3746 298.0029 340.5095 298.2889 340.4296L298.3878 340.3993C298.3932 340.3979 298.4071 340.3933 298.4125 340.3919 298.4227 340.3891 298.4516 340.3806 298.4618 340.3786L298.6384 340.3568C298.8984 340.3091 298.8298 340.3519 298.8445 340.3899 298.5902 340.4353 298.6226 340.3746 298.4125 340.4333L298.1903 340.4937C298.1089 340.503 297.9272 340.4775 297.8708 340.5044L297.527 340.689C297.5241 340.6904 297.5136 340.6975 297.5108 340.6995L297.2775 340.8452C297.2211 340.8746 297.2503 340.8605 297.2032 340.8678 296.7664 340.935 297.1774 340.9747 296.8033 340.9713 296.5538 340.9688 296.7364 340.9492 296.5723 341.1383 296.4736 341.2519 296.5499 341.168 296.462 341.2089L296.2933 341.2687C296.2905 341.2698 296.2789 341.2746 296.2757 341.2757L296.117 341.3418C296.1068 341.3446 296.077 341.3506 296.0668 341.3534 295.9027 341.3982 295.9503 341.4093 295.8435 341.4688L295.6839 341.4694C296.0597 341.3387 295.9597 341.3333 296.1451 341.2687 296.1476 341.2678 296.1592 341.2653 296.1615 341.2644L296.314 341.2052C296.3191 341.2026 296.3327 341.1964 296.3378 341.1938L296.4915 341.1343C296.5983 341.1247 296.5439 340.9574 296.7075 340.9087 296.8228 340.8744 296.7245 340.9795 297.0544 340.8471 297.3061 340.7462 297.1389 341.0365 297.3628 340.6805" fill="#f05d37" fill-rule="evenodd"/>
<path transform="matrix(1,0,0,-1,0,595.2756)" d="M297.0666 340.6805C297.0717 340.6791 297.0814 340.6805 297.0831 340.6805L297.214 340.6859C297.3039 340.672 297.2908 340.6 297.4448 340.5484L297.5715 340.4897C297.5766 340.4877 297.5907 340.4837 297.5961 340.482L297.6962 340.4574C297.7016 340.4557 297.7155 340.4514 297.7209 340.4494 297.7265 340.4475 297.7401 340.4424 297.7458 340.4401 297.9196 340.3689 297.8847 340.3667 298.0913 340.3704L298.3873 340.3125C298.3924 340.3103 298.4049 340.3029 298.4094 340.3006L298.6665 340.2403C298.7396 340.2057 298.6798 340.2235 298.7325 340.2082 298.8592 340.1722 299.0752 340.1838 299.1903 340.2238 299.1835 340.2269 299.1728 340.2323 299.1702 340.2334 299.0373 340.291 299.0718 340.2666 298.9599 340.2655L298.2889 340.3882C298.1948 340.4143 298.264 340.4089 298.1409 340.4126L297.593 340.5492C297.235 340.6751 297.409 340.6584 297.2642 340.7635L296.9569 340.8576C296.9515 340.8599 296.9376 340.8644 296.9323 340.8659 296.8951 340.8761 296.7403 340.8588 296.7072 340.867 296.619 340.888 296.5623 341.0527 296.5071 341.0518 296.4064 341.0507 296.4501 341.0901 296.3432 341.1351L295.8945 341.352C295.7173 341.4835 295.8931 341.3455 295.742 341.4195 295.596 341.4909 295.6969 341.5856 295.5356 341.511L295.7961 341.3628C295.9549 341.2967 295.9815 341.2137 296.1082 341.1604 296.1119 341.159 296.1241 341.1524 296.1278 341.151 296.1306 341.1499 296.1428 341.1456 296.1456 341.1448L296.4728 340.9719C296.4849 340.9676 296.4889 340.9846 296.5635 340.9231 296.8571 340.6805 296.8634 341.0036 297.0666 340.6805" fill="#f05d37" fill-rule="evenodd"/>
<path transform="matrix(1,0,0,-1,0,595.2756)" d="M299.2164 340.183C299.2144 340.1821 299.2059 340.1748 299.2039 340.1739L298.5097 340.2043C298.4598 340.2139 298.4873 340.2096 298.4199 340.2397L298.3005 340.2805C298.1526 340.3446 298.0176 340.2882 297.8691 340.338L297.5233 340.4619C297.3387 340.5098 297.3172 340.5881 297.1276 340.6167 296.9583 340.6425 297.034 340.7641 296.9186 340.7635 296.9164 340.7635 296.9042 340.7635 296.9019 340.7635L296.7877 340.7621C296.7851 340.7624 296.7727 340.7635 296.7698 340.7641 296.767 340.7647 296.754 340.7669 296.7508 340.7678L295.9237 341.2159C295.8369 341.2908 295.9254 341.2397 295.8398 341.2984L295.5231 341.5003C295.5166 341.5065 295.5059 341.517 295.5002 341.5226 295.437 341.5853 295.4517 341.6204 295.3874 341.5524L295.7454 341.2936C295.7505 341.2911 295.7638 341.2868 295.7683 341.2845L296.5275 340.8395C296.6409 340.7771 296.7585 340.6992 296.8875 340.683 296.8894 340.683 296.9008 340.6833 296.9031 340.683L296.9623 340.6609C297.0533 340.5991 296.8846 340.6496 297.0995 340.5725 297.1091 340.5691 297.1369 340.5628 297.1457 340.5611 297.1491 340.5606 297.1624 340.5594 297.1655 340.5589L297.3963 340.4514C297.4071 340.4477 297.4388 340.4426 297.4493 340.4398L297.5227 340.4203C297.5278 340.4186 297.5411 340.4137 297.546 340.412L298.2013 340.2683C298.2036 340.268 298.2152 340.2666 298.2178 340.266L298.9925 340.1033C298.9953 340.1028 299.0075 340.1005 299.0103 340.1002 299.0129 340.0997 299.0248 340.0985 299.0271 340.0982L299.0755 340.0985C299.0823 340.0985 299.1013 340.0991 299.1081 340.0991 299.1104 340.0991 299.1223 340.0991 299.1246 340.0991 299.143 340.0994 299.1387 340.0994 299.1574 340.0994H299.2068C299.209 340.0994 299.2209 340.0994 299.2232 340.0994 299.2235 340.0994 299.2558 340.0994 299.2561 340.0994L299.469 340.0943C299.5189 340.0756 299.4355 340.1019 299.5262 340.0617 299.5722 340.041 299.5566 340.0435 299.5946 340.0373L299.7655 340.077C299.6552 340.1053 299.6855 340.0302 299.5353 340.1087L299.2289 340.1929C299.2269 340.1918 299.2184 340.1841 299.2164 340.183" fill="#f05d37" fill-rule="evenodd"/>
<path transform="matrix(1,0,0,-1,0,595.2756)" d="M297.0173 341.3449C297.0334 341.3758 297.1276 341.2979 296.9915 341.4419 296.8427 341.5992 296.9932 341.4385 296.9048 341.492 296.8257 341.5399 296.8214 341.6247 296.7086 341.6859 296.7004 341.6902 296.6777 341.6967 296.672 341.7009 296.6216 341.7401 296.6953 341.7602 296.5737 341.8747 296.57 341.8781 296.5578 341.8858 296.5544 341.8889L296.2607 342.2871C296.204 342.3685 296.2361 342.343 296.166 342.4184L296.0096 342.6324C295.8908 342.7727 296.0427 342.5533 295.9713 342.6647 295.9702 342.6667 295.9659 342.6752 295.9648 342.6775L295.8707 342.8909C295.8684 342.896 295.8639 342.9074 295.8619 342.9125L295.5657 343.529C295.4628 343.7785 295.1898 344.4409 295.1898 344.7077H295.2394C295.2394 344.4883 295.4361 343.9831 295.5169 343.7785 295.95 342.6812 296.6023 341.7384 297.6474 341.0028 297.7676 340.9183 297.9286 340.8262 298.0559 340.7649 298.1378 340.7255 298.1866 340.7105 298.2807 340.6632 298.7912 340.4064 299.823 340.0163 300.5237 340.0163V339.9746C299.3553 339.9746 298.6183 340.0302 297.726 340.2799 296.977 340.49 296.3132 340.8423 295.7182 341.2491 295.4171 341.4549 295.1552 341.6477 294.9075 341.8963L294.5548 342.2639C294.4341 342.3994 294.3482 342.5066 294.2311 342.6562 293.8544 343.1375 293.4377 343.8726 293.2637 344.5002 293.3552 344.4117 293.3872 344.2428 293.4417 344.1098 293.5006 343.9661 293.5539 343.8595 293.6262 343.7254 293.7682 343.4618 293.8717 343.1361 294.1067 342.9323L294.1781 342.8402C294.2257 342.7174 294.3371 342.6684 294.3853 342.591 294.3862 342.5896 294.3918 342.582 294.3927 342.5805L294.4307 342.5151C294.4772 342.4252 294.7326 342.1137 294.774 342.2492 294.7759 342.2563 294.7893 342.2628 294.8029 342.265L294.8443 342.2166C294.7391 342.1519 294.7799 342.2134 294.7453 342.0921 294.7918 342.066 294.8063 342.0618 294.8635 342.023 294.8717 342.0173 294.8828 342.0088 294.8907 342.0031L295.0279 341.9104C295.0781 341.8778 295.0197 341.9456 295.0617 341.8841 295.0656 341.8784 295.079 341.8302 295.0946 341.805L295.2887 341.5938C295.3806 341.6196 295.3463 341.6967 295.4347 341.655 295.5016 341.6236 295.3706 341.6386 295.4988 341.5918L295.6836 341.581C296.1085 341.4044 296.0337 341.6638 296.1283 341.5524 296.0946 341.4923 296.0717 341.627 296.1283 341.428 296.2162 341.4773 296.3231 341.5329 296.4251 341.4866 296.4682 341.4671 296.3911 341.4427 296.502 341.4226 296.5042 341.4223 296.517 341.4226 296.5192 341.4226L296.9396 341.3546C296.9439 341.3537 296.9583 341.3506 296.9617 341.35 296.9649 341.3494 296.9793 341.3475 296.9819 341.3469Z" fill="#f05d37" fill-rule="evenodd"/>
<path transform="matrix(1,0,0,-1,0,595.2756)" d="M305.907 340.0994C305.9461 340.1938 305.9254 340.0934 305.97 340.1294Z" fill="#f05d37" fill-rule="evenodd"/>
<path transform="matrix(1,0,0,-1,0,595.2756)" d="M308.9775 340.6844C309.1099 340.7485 308.9254 340.6935 308.9197 340.6805 308.8692 340.5634 308.9769 340.6844 308.9775 340.6844" fill="#f05d37" fill-rule="evenodd"/>
<path transform="matrix(1,0,0,-1,0,595.2756)" d="M309.9076 341.0957C310.0283 341.2474 310.0425 341.1751 310.1545 341.3032L310.0578 341.3081C310.0558 341.3075 310.045 341.3047 310.0433 341.3038L309.8497 341.1303Z" fill="#f05d37" fill-rule="evenodd"/>
<path transform="matrix(1,0,0,-1,0,595.2756)" d="M310.3109 341.3903C310.4433 341.4543 310.2588 341.3993 310.2531 341.3863 310.2026 341.2692 310.3106 341.39 310.3109 341.3903" fill="#f05d37" fill-rule="evenodd"/>
<path transform="matrix(1,0,0,-1,0,595.2756)" d="M310.3027 341.6769C310.29 341.2054 310.1088 341.5456 309.9331 341.3271L309.9121 341.2196C310.0303 341.3727 309.945 341.3415 310.0666 341.3665 310.4614 341.4478 310.1468 341.3829 310.3183 341.4597 310.5003 341.5414 310.2616 341.4404 310.3696 341.4702 310.496 341.5048 310.6222 341.6888 310.6242 341.697 310.6276 341.7103 310.6565 341.7114 310.6565 341.7253L310.5989 341.7599C310.4932 341.6272 310.5179 341.731 310.5 341.5524 310.4926 341.5612 310.4847 341.5765 310.481 341.5808 310.4776 341.5847 310.4663 341.6017 310.4623 341.6054 310.373 341.6902 310.5541 341.7253 310.4209 341.6275 310.3886 341.6037 310.4031 341.5725 310.4014 341.511Z" fill="#f05d37" fill-rule="evenodd"/>
<path transform="matrix(1,0,0,-1,0,595.2756)" d="M310.0062 341.6769C310.0025 341.5363 310.0068 341.5436 309.9376 341.4441L309.8183 341.2953C309.7791 341.2423 309.8081 341.2732 309.7621 341.2179 309.6111 341.0348 309.63 341.1612 309.6111 340.9713 309.6181 340.9795 309.6249 340.9923 309.6289 340.9977 309.6329 341.0031 309.6422 341.0172 309.6471 341.024L309.9231 341.3795C310.0717 341.5649 310.017 341.4722 310.0731 341.4747 310.4218 341.49 310.0949 341.4892 310.2965 341.6732 310.3991 341.767 310.2834 341.6153 310.6123 341.7644 310.7401 341.8223 310.5629 341.731 310.6831 341.7968L310.7965 341.8016C310.6706 341.7307 310.6423 341.7304 310.5989 341.5938 310.7716 341.691 310.7976 341.7296 310.8951 341.8846 310.89 341.886 310.8804 341.8849 310.8787 341.8852 310.7364 341.8909 310.8328 341.9093 310.6375 341.8189 310.6318 341.8163 310.6185 341.8106 310.6128 341.8078 310.3248 341.6751 310.4413 341.7849 310.3109 341.733 310.1987 341.6885 310.2072 341.6409 310.2038 341.511Z" fill="#f05d37" fill-rule="evenodd"/>
<path transform="matrix(1,0,0,-1,0,595.2756)" d="M309.4135 340.8883C309.5093 340.9245 309.4492 340.8834 309.5082 340.933L309.9039 341.4736C309.9529 341.5572 309.9283 341.5382 309.9572 341.5975 310.0586 341.807 309.9427 341.6723 310.1406 341.7015L310.6154 341.8756C310.6182 341.877 310.6295 341.8809 310.6321 341.8821 310.8637 341.9802 310.782 341.9844 310.9022 341.922 310.9629 341.8906 310.9156 341.8339 310.9941 341.926L310.9793 341.9572C310.9105 342.0422 310.6664 341.9685 310.5916 341.9184 310.2559 341.6936 310.5595 341.8934 310.2902 341.7976 310.1797 341.7582 310.3149 341.7934 310.2151 341.7647L310.1661 341.7548C309.8123 341.7123 310.0745 341.7812 309.7375 341.3217 309.6765 341.2389 309.7159 341.2783 309.6437 341.193Z" fill="#f05d37" fill-rule="evenodd"/>
<path transform="matrix(1,0,0,-1,0,595.2756)" d="M311.0927 342.0507C311.1619 342.161 311.2654 342.0471 311.2903 342.2996 311.2832 342.2911 311.2761 342.2775 311.2722 342.2721L311.2339 342.2228C311.0763 342.0507 311.4298 342.3977 311.1738 342.1706 311.0786 342.0862 311.1154 342.269 311.0927 342.0507" fill="#f05d37" fill-rule="evenodd"/>
<path transform="matrix(1,0,0,-1,0,595.2756)" d="M310.0555 341.926C309.9886 341.7151 309.9991 341.932 309.7715 341.5008L309.5847 341.2426C309.4974 341.1275 309.3735 341.0311 309.3148 340.8466 309.4699 340.89 309.3236 340.8211 309.4688 341.0459L309.8466 341.5623C309.8928 341.6666 309.8923 341.7321 310.0164 341.7914 310.1391 341.8498 310.0351 341.7976 310.1431 341.8002 310.2123 341.8019 310.1238 341.7741 310.2171 341.8084L310.483 341.8903C310.4861 341.8917 310.4974 341.8985 310.5011 341.9005 310.8121 342.0706 310.7404 341.9274 310.7472 342.1752L310.8951 342.0091 310.9941 342.1752C311.0006 341.9237 310.962 342.0536 311.0927 342.0091 311.0258 342.1264 311.0567 342.1284 311.0927 342.2582 311.186 342.2826 311.0414 342.3186 311.1364 342.246 311.1418 342.2421 311.1574 342.1593 311.1724 342.2032 311.1752 342.2112 311.1843 342.184 311.1917 342.1752 311.2305 342.5686 311.3274 342.0646 311.4386 342.4657L311.2529 342.3495C311.2475 342.3481 311.233 342.3458 311.2277 342.3447 311.2223 342.3433 311.2075 342.3416 311.2021 342.3402 311.1965 342.339 311.1817 342.3373 311.1763 342.3356L311.1052 342.3107C311.1009 342.3073 311.0902 342.2985 311.0865 342.2942L311.0434 342.1752C310.8634 342.3929 311.0026 342.2412 310.9133 342.2361 310.9122 342.2361 310.9025 342.237 310.9011 342.237L310.8523 342.2378C310.8512 342.2378 310.8413 342.235 310.8402 342.2347 310.8387 342.2347 310.8291 342.2324 310.8277 342.2324L310.7616 342.2511C310.7605 342.2563 310.7523 342.2597 310.7472 342.2582 310.72 342.1604 310.701 342.1355 310.6976 342.0091L310.5989 342.1752C310.5927 341.9439 310.5595 341.9569 310.4141 341.9464 310.2021 341.9311 310.3234 341.9915 310.2038 341.8016Z" fill="#f05d37" fill-rule="evenodd"/>
<path transform="matrix(1,0,0,-1,0,595.2756)" d="M310.3027 342.1752C310.2993 342.0561 310.316 341.9867 310.1953 341.9603 309.9736 341.9116 310.2497 342.0918 310.0209 341.9535 310.0088 341.9461 309.8832 341.8104 309.8435 341.7724 309.6397 341.5771 309.803 341.6803 309.5399 341.3217L309.2159 340.8052C309.3917 340.854 309.2003 340.8182 309.388 341.0736 309.4469 341.1536 309.462 341.1499 309.5161 341.2171L309.6278 341.3724C309.8432 341.6502 309.6924 341.5479 309.8231 341.7063 309.9277 341.8333 309.9447 341.7911 310.0555 341.9677 310.1187 341.9289 310.064 341.968 310.1349 341.9099L310.2038 341.843C310.2755 342.0692 310.3274 341.9663 310.441 341.9867 310.5522 342.0065 310.5181 341.9668 310.5989 342.2582 310.6539 342.2727 310.5573 342.345 310.6976 342.1752 310.7208 342.4082 310.8478 342.3093 310.9816 342.3214L311.1783 342.3779C311.1831 342.3798 311.1959 342.3866 311.2004 342.3886L311.3904 342.487C311.5159 342.5519 311.3535 342.491 311.4454 342.502 311.4524 342.5029 311.4729 342.4986 311.4794 342.4992 311.4814 342.4992 311.4924 342.4986 311.4941 342.4986 311.544 342.5063 311.5704 342.4972 311.5585 342.5615 311.5434 342.6443 311.4646 342.614 311.4054 342.582 311.3785 342.5678 311.413 342.5825 311.3561 342.5428L311.3232 342.5199C311.3206 342.5185 311.3093 342.5142 311.3067 342.5128L311.0071 342.3691C310.877 342.3345 310.8696 342.392 310.6828 342.3373 310.5527 342.2991 310.5068 342.2574 310.5 342.0091Z" fill="#f05d37" fill-rule="evenodd"/>
<path transform="matrix(1,0,0,-1,0,595.2756)" d="M309.1918 340.8789C309.2151 340.9651 309.1737 340.8783 309.2357 340.9929L309.4546 341.2687C309.6882 341.5884 309.6337 341.6221 309.8186 341.7931 310.0748 342.0298 310.051 342.0043 310.0555 342.1752L310.1173 342.0609C310.1618 341.9955 310.083 342.042 310.2038 341.9677 310.2506 342.0493 310.2752 342.1593 310.3027 342.2582L310.3311 342.2443C310.4612 342.1973 310.3379 342.3713 310.5 342.1752 310.5179 342.3538 310.6916 342.4329 310.879 342.4246L310.9776 342.4195C311.0871 342.4311 310.8206 342.3107 311.0927 342.4847L311.3053 342.5964C311.3943 342.6307 311.4235 342.6817 311.5219 342.6423L311.6361 342.6318C311.3938 342.7812 311.5298 342.7373 311.4391 342.7197L311.2333 342.6245C311.2325 342.6242 311.1752 342.6004 311.1746 342.6001L311.0598 342.5406C310.9646 342.4728 311.0658 342.4986 310.9116 342.5068L310.8129 342.5119C310.6123 342.491 310.8413 342.5063 310.6497 342.4249 310.6474 342.4241 310.6358 342.4215 310.6332 342.4204L310.5981 342.4048C310.2962 342.2327 310.2143 342.409 310.2038 342.0091L310.0555 342.2996C310.0334 342.074 309.9796 342.0043 309.8384 341.8597 309.4291 341.441 309.7131 341.6054 309.3035 341.1468L309.1703 340.9679C309.1059 340.8429 309.1173 340.9106 309.1173 340.7221Z" fill="#f05d37" fill-rule="evenodd"/>
<path transform="matrix(1,0,0,-1,0,595.2756)" d="M308.9197 340.9296C308.9197 340.6309 308.886 340.8021 308.821 340.5974 308.9568 340.7289 308.969 340.6941 308.969 340.9296L309.0679 340.7221C309.0679 341.0427 309.1808 341.0289 309.3559 341.2687 309.3616 341.2766 309.3681 341.2877 309.3738 341.2953 309.6306 341.6511 309.5133 341.6026 309.6955 341.7721 310.0963 342.1454 309.8798 342.0329 310.0555 342.3413 310.1907 342.258 310.0972 342.3124 310.1488 342.2534 310.1562 342.2452 310.1627 342.1508 310.1865 342.2021 310.1893 342.2083 310.197 342.1837 310.2038 342.1752 310.2245 342.3852 310.2653 342.3521 310.3886 342.3626 310.6375 342.3838 310.4283 342.3762 310.6165 342.498 310.6191 342.4995 310.6301 342.5034 310.6327 342.5049L310.6814 342.5204C310.684 342.5221 310.695 342.5284 310.6976 342.5301 310.8597 342.631 310.7183 342.5851 310.8129 342.595 310.8197 342.5958 310.839 342.5933 310.8458 342.593 310.8481 342.593 310.86 342.5919 310.8623 342.5919L311.3065 342.7194C311.3785 342.7455 311.521 342.8802 311.5868 342.6735 311.7359 342.7149 311.6225 342.6942 311.6752 342.7257 311.6772 342.7271 311.6869 342.733 311.6889 342.7342L311.7348 342.7563C311.3759 342.881 311.2464 342.7526 311.1259 342.7104 311.1233 342.7095 311.112 342.7061 311.1092 342.705 310.8212 342.5941 310.9277 342.6834 310.7832 342.6457L310.5658 342.5321C310.4901 342.4368 310.5247 342.432 310.4507 342.4187 310.4442 342.4173 310.4246 342.4207 310.4181 342.4209 310.2239 342.4326 310.3438 342.4065 310.1545 342.2996 310.117 342.4175 310.1647 342.3606 310.0555 342.4243 309.8928 341.9116 309.6334 341.8577 309.5127 341.5938 309.4101 341.3696 309.1031 341.0065 309.0926 340.9957 308.9778 340.878 309.0969 340.9911 308.9197 340.9296" fill="#f05d37" fill-rule="evenodd"/>
<path transform="matrix(1,0,0,-1,0,595.2756)" d="M311.7348 342.8393C311.4349 342.9437 311.4802 342.9496 311.3484 342.8878 311.3439 342.8855 311.3314 342.8787 311.3266 342.8768 311.2064 342.8229 311.3745 342.8884 311.2549 342.8487L311.0805 342.7994C310.7809 342.72 311.0437 342.851 310.6641 342.7214 310.657 342.7189 310.638 342.7169 310.631 342.7138L310.559 342.6622C310.5541 342.6582 310.5448 342.6463 310.54 342.642 310.4555 342.5666 310.4957 342.5933 310.4501 342.5856 310.443 342.5845 310.4076 342.5899 310.4011 342.5905 309.9767 342.6177 310.5836 342.5162 310.1221 342.5122 309.8985 342.5102 309.905 342.1077 309.5955 341.8146 309.2998 341.5343 309.5464 341.7307 309.2624 341.3472L309.2258 341.2939C309.0246 341.0042 309.0685 341.1972 308.9432 341.0717L308.8026 340.7791C308.7986 340.7686 308.7941 340.7581 308.7901 340.7479 308.7213 340.5722 308.7459 340.7961 308.7221 340.556L308.814 340.6864C308.8689 340.7859 308.8179 340.6808 308.8658 340.8089L308.8877 340.8735C308.8916 340.884 308.8956 340.8951 308.8996 340.905 308.9035 340.9149 308.9083 340.9262 308.9123 340.9359 308.9594 341.0464 308.9157 340.8863 308.969 341.0541 309.3001 341.1405 308.7944 340.9413 309.0679 341.0127 309.1093 341.1437 309.1527 341.1312 309.293 341.3217L309.3919 341.4461C309.4727 341.5652 309.4404 341.5853 309.507 341.6814 309.5685 341.7701 309.7638 341.8875 309.8455 342.0612 309.8923 342.1616 309.8852 342.212 309.947 342.3112 310.013 342.4173 310.0782 342.485 310.1794 342.43 310.2313 342.4017 310.0246 342.4465 310.2531 342.3827 310.3237 342.6372 310.369 342.4873 310.4504 342.5023 310.4524 342.5026 310.464 342.5046 310.4663 342.5054 310.5269 342.5287 310.5176 342.582 310.6366 342.6514L310.8626 342.716C311.1146 342.707 310.9791 342.7356 311.3521 342.8388 311.3575 342.8405 311.3714 342.845 311.3768 342.8464 311.4136 342.8555 311.37 342.8651 311.476 342.8606L311.6645 342.8056C311.6667 342.8113 311.6801 342.7934 311.6937 342.7911Z" fill="#f05d37" fill-rule="evenodd"/>
<path transform="matrix(1,0,0,-1,0,595.2756)" d="M309.0081 341.2114C309.0118 341.208 309.0226 341.1958 309.0263 341.193 309.0291 341.1907 309.0402 341.1825 309.0427 341.1811 309.1365 341.1312 309.0694 341.1757 309.1059 341.2213 309.2088 341.3486 309.2717 341.3849 309.3403 341.5309 309.5169 341.9056 309.3735 341.6 309.6561 341.9297 309.8035 342.1018 309.9416 342.5936 310.1049 342.5902 310.3169 342.5856 310.1859 342.6038 310.3393 342.6432 310.7594 342.7515 310.4141 342.7041 310.6843 342.7923 310.9255 342.8708 310.902 342.754 311.1783 342.8762L311.3065 342.9272C311.5157 343.0026 311.3014 343.0607 311.5851 342.9408 311.5882 342.9394 311.5998 342.9346 311.6027 342.9334L311.6687 342.9162C311.6721 342.9147 311.7569 342.8563 311.7801 342.8416L311.8017 342.9198C311.8 342.9198 311.7878 342.9201 311.7855 342.9204 311.7835 342.921 311.7716 342.9227 311.7691 342.9232L311.6251 342.989C311.493 343.0403 311.341 343.0035 311.326 342.9981 311.3203 342.9964 311.3065 342.9913 311.3014 342.9893 311.296 342.987 311.2824 342.9816 311.2773 342.9794L311.1585 342.9264C311.1559 342.9255 311.1446 342.923 311.142 342.9224 311.1398 342.9215 311.1284 342.919 311.1259 342.9179L311.0726 342.8955C310.9028 342.8235 310.9416 342.8782 310.784 342.8561L310.5408 342.7608C310.3617 342.642 310.4787 342.7722 310.2826 342.6894 309.9923 342.5669 310.1754 342.8155 309.837 342.3589 309.6672 342.1298 309.8035 342.1054 309.4968 341.8146 309.1397 341.4762 309.382 341.4427 309.054 341.2962L308.7944 340.9934C308.6759 340.7771 308.7624 340.8245 308.6124 340.6068 308.6087 340.6014 308.596 340.5753 308.5931 340.5813 308.5903 340.5875 308.5656 340.5631 308.5659 340.5489Z" fill="#f05d37" fill-rule="evenodd"/>
<path transform="matrix(1,0,0,-1,0,595.2756)" d="M308.3766 340.4313C308.4381 340.5294 308.4327 340.5132 308.4917 340.5197 308.5421 340.5254 308.5206 340.4948 308.6158 340.687L308.7618 341.0209C308.8043 341.0952 308.8006 341.0887 308.8437 341.1615 308.9781 341.3874 308.9466 341.2797 309.0813 341.3458 309.3165 341.4609 309.1527 341.5346 309.3749 341.7511 309.8775 342.2412 309.4705 341.9351 309.8673 342.4581 310.0414 342.6874 310.0085 342.7174 310.1213 342.7143 310.1236 342.7143 310.1355 342.7138 310.1377 342.7138L310.6845 342.8785C310.6894 342.8807 310.7021 342.887 310.7064 342.8892 310.7151 342.8932 310.7384 342.906 310.7463 342.9091L311.2792 343.0233C311.2846 343.0253 311.2982 343.0304 311.3033 343.0327L311.3484 343.0539C311.3572 343.0579 311.3807 343.0718 311.3884 343.0752 311.4918 343.1205 311.5103 343.0826 311.6001 343.0429 311.832 342.9403 311.8371 342.9516 311.883 343.0054 311.8158 343.0287 311.8374 343.0123 311.7974 343.0244L311.652 343.0845C311.6497 343.0854 311.6384 343.0879 311.6358 343.0888 311.4176 343.1636 311.5335 343.1908 311.341 343.1066L311.0817 343.0057C310.83 342.9337 310.9683 343.0491 310.699 342.9403 310.3223 342.7883 310.6315 342.8742 310.2902 342.8008 310.0351 342.7458 310.07 342.7914 309.998 342.8048L309.9569 342.7563C310.0431 342.6318 309.748 342.4567 309.6431 342.1896 309.471 341.7508 309.367 341.8682 309.2434 341.6539 309.1612 341.5116 309.234 341.4569 309.0572 341.3764 308.9531 341.3293 308.954 341.4087 308.8273 341.2168L308.5245 340.5974C308.5206 340.5966 308.4684 340.5368 308.4449 340.6524 308.4423 340.666 308.4333 340.6717 308.4259 340.6805 308.412 340.5419 308.4386 340.6465 308.389 340.5455 308.3428 340.4517 308.2955 340.4993 308.3187 340.4662Z" fill="#f05d37" fill-rule="evenodd"/>
<path transform="matrix(1,0,0,-1,0,595.2756)" d="M308.4259 340.9296C308.4259 340.6603 308.2989 340.6445 308.2283 340.3899 308.2876 340.4475 308.2819 340.4415 308.3261 340.5172 308.5296 340.8673 308.338 340.6399 308.5739 340.7221 308.5739 340.9081 308.7193 341.2069 308.8811 341.3384 309.1204 341.5329 308.9653 341.2613 309.1153 341.4708 309.2304 341.6312 309.0917 341.5711 309.276 341.7511 309.7185 342.1834 309.469 342.0196 309.6513 342.3076 309.7159 342.4093 309.943 342.65 309.9523 342.7787 309.9569 342.8402 310.1227 342.809 310.216 342.824 310.6488 342.8938 310.4751 342.8904 310.6134 342.9706 310.7829 343.0687 310.8855 342.9845 311.0522 343.0511L311.1585 343.0925C311.4445 343.1906 311.3918 343.2645 311.6937 343.1239L311.8711 343.0701C311.8782 343.0678 311.917 343.0517 311.9323 343.0471 311.834 343.1704 311.8045 343.1492 311.7229 343.1704 311.7175 343.1718 311.7033 343.175 311.6979 343.1764 311.6925 343.1778 311.6786 343.1815 311.6733 343.1829 311.6679 343.1843 311.6537 343.1883 311.6483 343.1897 311.4663 343.241 311.3711 343.2523 311.1058 343.1344L310.7463 343.0755C310.7458 343.0752 310.699 343.0528 310.6837 343.0454 310.6746 343.0412 310.6457 343.029 310.6361 343.0242L310.5411 342.9677C310.4535 342.9108 310.4943 342.9264 310.4493 342.9187 310.4425 342.9176 310.4237 342.9196 310.4172 342.9198L310.3019 342.9071C310.0714 342.8099 310.4249 342.942 310.2401 342.8756 310.121 342.8331 310.0405 342.8833 309.9651 342.8527 309.7417 342.762 309.9229 342.8473 309.8911 342.7676L309.6998 342.4329C309.3052 341.9306 309.8188 342.381 309.2029 341.7296 309.0393 341.5564 309.1431 341.4688 309.0521 341.4722 309.0504 341.4722 309.0379 341.4739 309.0362 341.4739 309.0342 341.4739 309.022 341.4745 309.02 341.4742 309.0178 341.4739 309.0059 341.4728 309.0033 341.4719L308.9055 341.4047C308.6997 341.2244 308.5245 340.9835 308.5245 340.7221Z" fill="#f05d37" fill-rule="evenodd"/>
<path transform="matrix(1,0,0,-1,0,595.2756)" d="M312.031 343.3791C312.0262 343.3751 312.0449 343.3677 312.046 343.3669Z" fill="#f05d37" fill-rule="evenodd"/>
<path transform="matrix(1,0,0,-1,0,595.2756)" d="M307.0743 340.124C307.0766 340.1317 307.0857 340.1073 307.0925 340.0994 307.0772 340.2536 307.1095 340.1637 307.0307 340.2354 307.0273 340.2386 307.014 340.2451 307.0108 340.2473L306.9442 340.2655C307.1849 340.4007 307.2212 340.13 307.3394 340.556 307.4278 340.4704 307.4236 340.4937 307.438 340.3485 307.4448 340.3565 307.4528 340.3698 307.4559 340.3735 307.4933 340.414 307.5015 340.4322 307.5588 340.4064L307.5863 340.3899C307.622 340.5189 307.6492 340.5101 307.6849 340.6391 307.7895 340.6663 307.6421 340.6592 307.7416 340.6147 307.8553 340.5643 307.6682 340.5674 307.7838 340.5974 307.849 340.8026 307.8757 340.6249 307.8825 340.8883L307.9647 340.7496C307.967 340.7556 307.9749 340.7306 307.9814 340.7221L307.9502 340.9036C307.9488 340.9186 307.9236 340.9226 307.9236 340.9364L307.9814 340.9713C308.0472 340.8557 308.0307 340.8908 308.0307 340.7221H308.179C308.179 340.9926 308.2453 340.9294 308.3479 341.1207 308.4318 341.2772 308.2989 341.1938 308.4616 341.3027 308.6444 341.4249 308.3771 341.2174 308.6127 341.3582 308.785 341.4611 308.7553 341.5774 308.793 341.71 308.8505 341.9138 308.9285 341.7797 309.0535 341.8333 309.2142 341.9025 309.3225 342.2537 309.5113 342.5094L309.6768 342.83C309.964 343.2662 309.9708 343.1041 310.2656 343.1679L310.5125 343.2144C310.595 343.2461 310.4963 343.211 310.5865 343.2512 310.5924 343.2538 310.6054 343.26 310.6111 343.2623L311.2401 343.4043C311.3493 343.4482 311.4289 343.5486 311.5208 343.4958 311.5239 343.4941 311.5344 343.4862 311.5372 343.4842L311.6032 343.4287C311.7127 343.3657 311.5715 343.3856 311.6854 343.4148L311.817 343.5026C311.9808 343.5625 311.9 343.383 312.0806 343.6699L312.09 343.6299C312.1319 343.5489 312.0778 343.578 312.1792 343.5452 312.0942 343.7184 312.215 343.5381 312.1299 343.7113 312.0704 343.6778 311.9717 343.5942 311.9635 343.5905L311.8663 343.5894C311.7484 343.5922 311.8949 343.6404 311.7841 343.567 311.7798 343.5642 311.7393 343.5262 311.7348 343.5233 311.6211 343.4448 311.7694 343.5035 311.669 343.495L311.6032 343.5117C311.3107 343.6795 311.4397 343.5369 311.11 343.41L310.8586 343.3589C310.7018 343.3561 310.8251 343.3737 310.6854 343.3306 310.6752 343.3275 310.646 343.3175 310.6361 343.3139L310.3149 343.2217C310.1754 343.1954 310.0569 343.2294 309.8937 343.1665 309.7528 343.1123 309.8874 343.1959 309.8217 343.0684 309.7616 342.9516 309.6275 342.8476 309.5895 342.7396L309.4427 342.4836C309.3111 342.3095 309.1757 341.9748 309.0909 341.9096 309.0036 341.8421 309.0294 341.8954 308.9483 341.8787 308.7604 341.8401 308.7604 341.7732 308.7349 341.6545 308.685 341.422 308.6745 341.4325 308.4863 341.3543 308.3066 341.2794 308.3014 340.8939 308.0679 340.9526 307.8955 340.996 307.982 341.136 307.8459 340.8327 307.7552 340.6314 307.7728 340.774 307.6611 340.6547 307.6472 340.6399 307.5982 340.5356 307.5863 340.5144 307.4675 340.4248 307.3774 340.6346 307.3394 340.6805 307.3277 340.5628 307.2427 340.397 307.1911 340.3069L307.0604 340.446C307.0573 340.4602 307.05 340.4645 307.0429 340.473 307.0074 340.1147 306.8838 340.4883 306.8453 340.0994Z" fill="#f05d37" fill-rule="evenodd"/>
<path transform="matrix(1,0,0,-1,0,595.2756)" d="M307.4057 340.2496C307.3147 340.2711 307.4445 340.357 307.3343 340.2686 307.2025 340.1634 307.476 340.2028 307.5369 340.2238Z" fill="#f05d37" fill-rule="evenodd"/>
<path transform="matrix(1,0,0,-1,0,595.2756)" d="M307.3394 340.1408C307.2186 340.2921 307.2268 340.1785 307.2898 340.3069 307.4695 340.3692 307.349 340.2729 307.5273 340.2814 307.658 340.2876 307.671 340.3324 307.6849 340.473 307.794 340.3412 307.7246 340.3743 307.7838 340.3899 307.8196 340.5189 307.8468 340.5101 307.8825 340.6391 308.1019 340.6963 307.6826 340.6938 307.9247 340.6192L308.0735 340.6178C308.0747 340.6181 308.0846 340.6207 308.086 340.6209L308.1104 340.6238C308.1385 340.6212 308.1263 340.6198 308.1504 340.6113 308.1515 340.611 308.1634 340.6005 308.1645 340.6045 308.1654 340.609 308.1736 340.596 308.179 340.5974L308.2601 340.7786C308.3151 340.9251 308.2473 340.8341 308.3369 340.9648 308.5376 341.2573 308.5078 340.9319 308.4752 341.2619 308.4826 341.2528 308.4905 341.2383 308.4945 341.2335 308.4979 341.2295 308.5089 341.2134 308.5129 341.2091 308.5943 341.1224 308.5058 341.1609 308.5739 341.1788 308.6334 341.3656 308.8278 341.4008 308.8746 341.5935 308.9188 341.7758 308.8984 341.6683 308.8704 341.7185L308.9123 341.7293C309.0351 341.75 308.9962 341.7029 309.1054 341.7715 309.3114 341.9008 309.3386 342.1049 309.437 342.2801L309.7001 342.6406C309.7375 342.7095 309.7086 342.6525 309.7312 342.7157 309.7945 342.8901 309.8792 343.0281 310.1182 343.0256 310.354 343.023 310.1621 343.025 310.32 343.0817 310.4957 343.1446 310.2454 343.0848 310.3696 343.0911L310.5856 343.1662C310.7537 343.2631 310.9292 343.2135 311.1052 343.2634 311.1154 343.2665 311.1443 343.2753 311.1545 343.2784L311.2038 343.2926C311.3073 343.3226 311.4167 343.3731 311.525 343.3507L311.6755 343.3031C311.6801 343.3022 311.6945 343.2991 311.6993 343.2986L311.7917 343.3156C311.7932 343.3158 311.8031 343.3184 311.8045 343.3187L311.8277 343.3147C311.8289 343.3147 311.8382 343.3102 311.8394 343.3102L311.8652 343.3093C311.8671 343.3102 311.8779 343.3167 311.8799 343.3178L311.9323 343.3791C311.9513 343.1863 311.8793 343.3065 312.031 343.2132 311.9278 343.5863 312.3374 343.3567 312.031 343.5452 312.0094 343.4672 312.0367 343.518 311.9953 343.4547 311.9355 343.3632 311.9984 343.4357 311.9502 343.4159L311.7832 343.4049C311.6509 343.3462 311.8209 343.3686 311.673 343.3572 311.4244 343.3385 311.6443 343.4893 311.2795 343.3552 311.2741 343.3533 311.2603 343.3487 311.2549 343.347L311.2047 343.3331C311.0054 343.2759 310.8033 343.3014 310.6111 343.2209L310.3387 343.1418C310.3339 343.1407 310.3203 343.1358 310.3157 343.1341 310.3112 343.1327 310.2982 343.1265 310.2939 343.1248L310.2024 343.0865C310.1323 343.0743 310.0377 343.1157 309.9733 343.0862L309.7434 342.8527C309.6947 342.7877 309.7057 342.7886 309.6884 342.7396L309.4421 342.3589C309.3029 342.1726 309.3205 341.966 309.1028 341.8152L308.863 341.7429C308.6286 341.0892 308.5645 341.4084 308.4384 341.2103 308.4318 341.2003 308.4174 341.1643 308.4114 341.1527 308.3746 341.0833 308.4049 341.1281 308.3647 341.0651L308.2346 340.8375C308.1713 340.6751 308.2399 340.7043 308.0954 340.6952 307.8 340.6771 307.9528 340.8103 307.7838 340.5144 307.6929 340.446 307.7983 340.6782 307.5863 340.3069 307.4119 340.3675 307.4956 340.2689 307.3745 340.4177L307.3394 340.473C307.3283 340.361 307.3198 340.3199 307.2308 340.2697 307.1991 340.2519 307.129 340.234 307.1134 340.287 307.1106 340.2972 307.0998 340.3131 307.0843 340.3137L307.0429 340.2655Z" fill="#f05d37" fill-rule="evenodd"/>
<path transform="matrix(1,0,0,-1,0,595.2756)" d="M307.891 340.3108C308.0234 340.3749 307.8388 340.3199 307.8332 340.3069 307.7827 340.1898 307.8904 340.3106 307.891 340.3108" fill="#f05d37" fill-rule="evenodd"/>
<path transform="matrix(1,0,0,-1,0,595.2756)" d="M307.6356 340.2238C307.8292 340.4494 307.6206 340.1793 307.798 340.3069 307.9312 340.4024 307.8646 340.2904 307.8825 340.473 307.8893 340.465 307.8972 340.4517 307.9006 340.448 308.0324 340.31 307.9301 340.4032 308.001 340.4109L308.179 340.3899C308.2411 340.6141 308.3766 340.6754 308.3766 340.9296 308.5858 341.0025 308.4358 340.8449 308.5682 341.0169 308.5948 341.0515 308.6649 341.1969 308.6972 341.2412 308.838 341.4339 308.9611 341.371 308.969 341.6769L309.0512 341.5382C309.0538 341.5445 309.0614 341.5195 309.0679 341.511 309.0736 341.7228 309.094 341.6746 309.2255 341.7934 309.4078 341.958 309.4268 342.0862 309.5357 342.2801 309.5802 342.3594 309.6604 342.4436 309.7089 342.5094L309.8302 342.716C309.85 342.7713 309.8891 342.9289 310.0399 342.9266L310.1051 342.9227C310.1074 342.9224 310.1193 342.9221 310.1213 342.9221L310.3631 342.9808C310.4578 342.9989 310.4334 342.9635 310.5363 343.0242 310.5536 343.0344 310.5955 343.0687 310.5975 343.0698 310.7469 343.1574 310.8546 343.1245 311.0309 343.1602L311.2532 343.2237C311.37 343.258 311.2087 343.211 311.3274 343.2461 311.5188 343.3028 311.5908 343.2385 311.7237 343.2081L311.9817 343.1302C311.9238 343.3122 311.9289 343.2135 311.7475 343.2447L311.5003 343.3144C311.3782 343.3297 311.4323 343.3181 311.3521 343.2954 311.3467 343.294 311.3328 343.2895 311.3274 343.2878L311.1545 343.2368C310.9677 343.182 310.8705 343.2266 310.6843 343.1659L310.5916 343.1222C310.2361 342.8841 309.9532 343.1313 309.801 342.786L309.6592 342.5094C309.4339 342.2035 309.3497 341.8455 309.0532 341.712L308.9633 341.6698C308.9591 341.6652 308.9506 341.655 308.9469 341.6499 308.9424 341.644 308.9364 341.6318 308.9327 341.625 308.9282 341.6173 308.9242 341.6049 308.92 341.5963 308.8043 341.3577 308.6039 341.2627 308.5245 341.0127L308.4752 341.0186C308.4211 341.0121 308.5132 341.0702 308.4219 341.0028 308.344 340.9449 308.3658 340.9367 308.3318 340.8457 308.1994 340.4923 308.2297 340.5144 307.9321 340.5144L307.578 340.2584Z" fill="#f05d37" fill-rule="evenodd"/>
<path transform="matrix(1,0,0,-1,0,595.2756)" d="M307.9962 340.3361 307.9814 340.3485C307.9763 340.3443 307.995 340.3369 307.9962 340.3361" fill="#f05d37" fill-rule="evenodd"/>
<path transform="matrix(1,0,0,-1,0,595.2756)" d="M308.9197 342.1752C308.9149 342.1709 308.9336 342.1636 308.9344 342.1627Z" fill="#f05d37" fill-rule="evenodd"/>
<path transform="matrix(1,0,0,-1,0,595.2756)" d="M312.5222 345.2083C312.5625 345.6479 312.5251 345.8934 312.5251 346.3685H312.5744C312.5744 346.1083 312.5942 345.744 312.5854 345.6077 312.4602 343.6631 312.1523 342.8524 310.6114 341.5419 310.2894 341.2681 309.8769 341.0433 309.473 340.8384 307.9023 340.0415 306.7004 339.9746 304.6723 339.9746 304.7621 340.0274 304.5849 339.9727 304.8012 340.0325 304.8778 340.0537 305.1703 340.0546 305.8149 340.2181 306.4153 340.3706 307.1744 340.759 307.6512 341.0827 308.4667 341.636 309.1141 342.2852 309.513 343.1296 309.636 343.3898 309.7636 343.7719 309.8021 344.0906 309.856 344.5367 309.8086 344.7575 309.8086 345.206H309.858C309.858 344.969 309.884 344.7706 309.8928 344.6028L309.8466 343.876C309.8599 343.8031 309.7176 343.6937 309.7312 343.5007 309.7431 343.3329 309.7641 343.4332 309.7641 343.4295 309.7636 343.3759 309.8256 343.4766 309.7431 343.4139 309.7094 343.3884 309.6643 343.4009 309.6604 343.2546 309.7928 343.372 309.7179 343.3068 309.8942 343.3776L309.9566 343.4071C310.0555 343.4457 310.0742 343.3995 310.1185 343.4193 310.1207 343.4204 310.1309 343.4255 310.1332 343.427 310.1346 343.4281 310.2514 343.5883 310.2613 343.5936L310.3027 343.5452C310.1508 343.4519 310.2228 343.5721 310.2038 343.3791 310.2202 343.3952 310.28 343.4431 310.2987 343.4562 310.4714 343.5766 310.3376 343.4987 310.4014 343.6282 310.4393 343.5707 310.4067 343.5525 310.5 343.4621 310.5128 343.512 310.5198 343.5721 310.5201 343.5727 310.5473 343.6396 310.4495 343.5693 310.6295 343.6132 310.6338 343.6143 310.6477 343.6177 310.6522 343.6191L310.6964 343.6396C310.9859 343.7759 310.8115 343.6092 311.199 343.76 311.2078 343.7634 311.2322 343.7753 311.2401 343.7782 311.2432 343.7793 311.2549 343.7838 311.258 343.785L311.3065 343.7986C311.434 343.8454 311.4465 343.9236 311.576 343.8258 311.584 343.8201 311.5996 343.7413 311.6169 343.7793 311.6203 343.7864 311.629 343.7614 311.6361 343.7529 311.633 343.8677 311.5783 343.9244 311.5783 343.9259L311.6361 343.9604C311.6747 343.893 311.6605 343.8975 311.6883 343.8383L311.7348 343.7529C311.7348 343.9644 311.6767 343.9443 311.6772 343.9672L311.7348 344.0018C311.7917 343.9757 311.7294 343.9911 311.8229 343.9794 311.8414 343.9772 311.9162 343.978 311.9224 343.9794 312.2878 344.0529 311.7249 343.9899 312.1656 344.0744 312.4332 344.126 312.251 343.9295 312.3065 344.1189 312.3088 344.126 312.3207 344.1234 312.3275 344.1266Z" fill="#f05d37" fill-rule="evenodd"/>
<path transform="matrix(1,0,0,-1,0,595.2756)" d="M306.6381 340.3018C306.5899 340.3219 306.4371 340.304 306.5491 340.2445Z" fill="#f05d37" fill-rule="evenodd"/>
<path transform="matrix(1,0,0,-1,0,595.2756)" d="M306.8453 340.473C306.8206 340.2218 306.7594 340.348 306.743 340.3142L306.7466 340.1408 306.5074 340.1649C306.506 340.1651 306.4966 340.1691 306.4949 340.1691L306.4008 340.0994C306.4107 340.1986 306.508 340.272 306.508 340.2723L306.4504 340.3069C306.3444 340.1742 306.3691 340.2777 306.3515 340.0994 306.4612 340.0611 306.4935 340.0764 306.5871 340.0784 306.6877 340.0804 306.7855 340.0288 306.8453 340.0994L306.8116 340.2553C306.866 340.4789 306.9244 340.128 307.0429 340.556L307.1741 340.3755C307.1767 340.3817 307.1843 340.3568 307.1911 340.3485 307.2027 340.4659 307.2878 340.632 307.3394 340.7221 307.491 340.6286 307.419 340.7488 307.438 340.556 307.4448 340.564 307.4528 340.5776 307.4559 340.581 307.4933 340.6218 307.5015 340.6397 307.5588 340.6139L307.5863 340.5974C307.6515 340.8026 307.6781 340.6249 307.6849 340.8883L307.7671 340.7496C307.7697 340.7556 307.7773 340.7306 307.7838 340.7221 307.7898 340.9444 307.8272 341.1133 308.0288 341.0328L308.1138 341.0099C308.2734 341.0019 308.2757 341.2474 308.3865 341.3392 308.5886 341.5068 308.5455 341.2777 308.6535 341.5269 308.7451 341.7378 308.6215 341.6992 308.7791 341.8359 308.9534 341.9864 308.9701 341.9164 309.1173 341.9677 309.1833 342.0833 309.1751 342.1811 309.2562 342.3076 309.3171 342.4028 309.378 342.4578 309.4503 342.5621L309.5541 342.7855C309.5583 342.7951 309.5719 342.8209 309.5779 342.8303 309.5782 342.8306 309.6677 342.9369 309.6782 342.9471 309.7551 343.0219 309.714 342.9938 309.8086 343.0471L309.7528 343.1115C309.7321 343.1616 309.7953 343.1758 309.8656 343.1982L310.6616 343.366C310.7891 343.4253 310.8353 343.4142 310.9612 343.4168 311.0553 343.4187 311.1613 343.5086 311.1752 343.5163L311.3405 343.6053C311.4218 343.6398 311.4564 343.6642 311.5454 343.6257 311.55 343.6237 311.5621 343.6157 311.5664 343.6135L311.7549 343.6121C311.8215 343.6415 311.8011 343.6362 311.8445 343.6452 311.8805 343.6526 311.9009 343.6452 311.9443 343.6569 312.1163 343.7025 311.9927 343.8026 312.2286 343.6699L312.2495 343.9015C312.2515 343.9089 312.2614 343.9157 312.2631 343.9315 312.2646 343.9471 312.287 343.9531 312.2864 343.9672L312.2286 344.0018C312.1628 343.8865 312.1792 343.9216 312.1792 343.7529L312.0806 343.9604C312.0806 343.6469 312.0171 343.7203 311.7966 343.6781L311.599 343.6586C311.4561 343.688 311.6157 343.6948 311.4507 343.6906L311.326 343.6625C311.3203 343.6605 311.3065 343.6554 311.3014 343.6534 311.296 343.6515 311.2824 343.6458 311.2773 343.6435 311.2722 343.6415 311.2588 343.6353 311.254 343.6333L311.1245 343.5826C311.0097 343.5296 311.0312 343.4987 310.9445 343.5009L310.8787 343.5043C310.7631 343.5103 310.8178 343.5077 310.682 343.4332L310.4646 343.3215C310.2335 343.2546 310.1658 343.3235 309.8945 343.2487 309.5674 343.1585 309.7332 343.1075 309.6499 342.9723 309.6425 342.9598 309.6102 342.9224 309.5901 342.8983L309.3437 342.4836C309.2309 342.3342 309.2088 342.3453 309.1388 342.1539 309.0317 341.8603 309.1235 342.0184 308.9327 341.9872 308.8012 341.9657 308.9058 342.0105 308.7978 341.9059 308.7692 341.8784 308.6804 341.7834 308.6731 341.7721 308.624 341.6978 308.6566 341.7324 308.6297 341.6258 308.5926 341.4796 308.624 341.5073 308.5095 341.4719 308.372 341.4291 308.4474 341.3288 308.2201 341.3103L308.179 341.2619C308.1796 341.2607 308.2842 341.2877 308.2054 341.1184 308.1611 341.0237 308.1042 341.0734 308.0197 341.0878 307.874 341.1128 307.8689 341.0138 307.7816 340.9449 307.6883 340.8718 307.7861 340.9362 307.7337 340.9243 307.6053 340.8948 307.6724 340.7984 307.5922 340.7238 307.4494 340.5909 307.3277 340.9659 307.1911 340.473 307.0295 340.6292 306.974 340.6482 306.9232 340.3423Z" fill="#f05d37" fill-rule="evenodd"/>
<path transform="matrix(1,0,0,-1,0,595.2756)" d="M305.5119 340.0994C305.6519 339.9386 305.8821 340.0767 306.2648 340.037 306.3402 340.0291 306.3453 339.9922 306.4008 340.0577 306.2993 340.0931 306.2186 340.0231 306.1539 340.0994L306.2032 340.2655 306.2854 340.1269C306.288 340.1328 306.2957 340.1079 306.3022 340.0994 306.3226 340.3066 306.4269 340.3106 306.5377 340.3412L306.9091 340.5203C306.9119 340.5214 306.9235 340.5251 306.9264 340.5263 307.1126 340.6212 306.9601 340.6861 307.1911 340.556 307.211 340.7562 307.2713 340.6992 307.3887 340.8466L307.5695 340.7496C307.5721 340.7556 307.5797 340.7306 307.5863 340.7221 307.5928 340.9679 307.6758 340.9427 307.8045 341.0413L308.0177 341.1499C308.1759 341.0223 307.9392 341.2587 308.1268 341.1578 308.1325 341.155 308.147 341.0762 308.1611 341.1207 308.1634 341.1283 308.1722 341.1037 308.179 341.0957 308.1711 341.3886 308.0903 341.2338 308.2776 341.4694 308.3054 341.4169 308.2572 341.3948 308.2283 341.3032 308.3805 341.3891 308.4273 341.4212 308.4752 341.5938 308.5384 341.6105 308.4766 341.6287 308.5739 341.511 308.5801 341.7437 308.7388 342.0482 309.0197 342.053 309.2698 342.0573 308.8236 341.9779 309.0679 342.0507 309.0869 342.2438 309.1394 342.2653 309.2088 342.3878L309.5677 342.9488C309.6071 343.0134 309.6006 343.0086 309.6105 343.025 309.6113 343.0264 309.6167 343.0338 309.6176 343.0352L309.6298 343.0596C309.6799 343.1724 309.5952 343.0131 309.6505 343.1163 309.7769 343.3527 310.0788 343.2969 310.2902 343.3405 310.4589 343.3751 310.4416 343.3317 310.5836 343.4675L310.7611 343.5525C310.9689 343.6515 310.8895 343.5313 311.0839 343.6217L311.3274 343.7031C311.5655 343.7722 311.6398 343.6608 311.9233 343.7289 312.0749 343.7649 311.9961 343.8927 312.0942 343.9704 312.1872 344.0441 312.1478 343.9602 312.3275 344.0435 312.1523 344.1042 312.298 344.0693 312.1645 344.0404 311.9805 344.0007 311.9817 343.9312 311.9817 343.7529L311.9323 343.9604H311.7841C311.7841 343.7918 311.8008 343.8266 311.7348 343.7113L311.4711 343.8006 311.1548 343.6931C311.1446 343.6903 311.1154 343.6815 311.1052 343.6787 310.9723 343.6415 310.8506 343.671 310.7254 343.6081 310.6125 343.5514 310.5062 343.4136 310.4016 343.4199L310.3534 343.4224C310.3512 343.4221 310.3393 343.4202 310.337 343.4193 310.3342 343.4187 310.3226 343.4148 310.32 343.4139 310.163 343.3578 310.0603 343.3805 309.8951 343.3306 309.8109 343.3054 309.6754 343.2651 309.6283 343.1991L309.5955 343.139C309.5923 343.133 309.5855 343.1208 309.5821 343.1146 309.579 343.1083 309.5722 343.0959 309.5688 343.0896 309.532 343.0157 309.5507 343.0485 309.5283 342.9992 309.5079 342.9544 309.5357 343.0001 309.5039 342.9468 309.4997 342.9397 309.4855 342.9213 309.4804 342.9139L309.3843 342.7268C309.3335 342.606 309.4084 342.7495 309.3534 342.6817 309.2992 342.6151 309.39 342.7384 309.3253 342.648L309.0969 342.3189C309.094 342.3149 309.0852 342.305 309.0824 342.3013L309.0577 342.2639C308.9509 342.0848 309.0523 342.1911 308.8641 342.057 308.6921 341.9342 308.5869 341.7647 308.4525 341.6125 308.3394 341.4847 308.2399 341.473 308.1319 341.3421 307.9837 341.1624 308.122 341.3049 307.942 341.2074L307.0987 340.6669C307.0885 340.6626 307.0596 340.6533 307.0491 340.6493L306.6778 340.4633C306.6744 340.4619 306.6619 340.4568 306.6585 340.4554 306.6506 340.4523 306.6279 340.4432 306.6197 340.4401 306.114 340.2493 306.2472 340.3074 306.1046 340.0577 306.0703 340.1192 306.1023 340.2031 306.0553 340.2655 305.9864 339.9917 306.0026 340.1478 305.8084 340.0577 305.7732 340.1246 305.7695 340.0294 305.805 340.1076 305.833 340.1694 305.8985 340.128 305.8084 340.1824 305.6788 340.0197 305.7282 340.1048 305.6258 340.1084 305.6241 340.1084 305.5147 340.0994 305.5119 340.0994" fill="#f05d37" fill-rule="evenodd"/>
<path transform="matrix(1,0,0,-1,0,595.2756)" d="M295.3874 359.9447C295.3874 359.1964 295.0342 358.6467 294.6986 358.1575 293.7719 356.8062 293.4522 356.6262 294.2855 355.3651 294.4443 355.125 294.5979 354.9317 294.8281 354.7414 294.9494 354.6414 294.9233 354.6346 295.1405 354.6306 295.1853 355.0836 295.9044 355.7373 296.178 356.0834 297.14 357.3017 297.1233 358.071 296.3747 359.28 296.221 359.528 295.7289 360.3742 295.338 360.4014 295.338 360.1911 295.3874 360.1752 295.3874 359.9447" fill="#f05d37" fill-rule="evenodd"/>
<path transform="matrix(1,0,0,-1,0,595.2756)" d="M309.7593 355.8345C309.7593 354.9949 309.2771 354.3528 309.2159 354.1323 309.4214 353.8743 310.0334 353.0784 310.3676 352.8918 310.697 352.7079 310.559 353.0568 310.576 353.196 310.6809 354.06 311.241 354.8738 311.241 355.0456 311.241 355.3237 310.718 355.7106 310.5187 355.8917L310.29 356.0729C310.0997 356.226 309.793 356.5298 309.5617 356.5817 309.63 356.3351 309.7593 356.144 309.7593 355.8345" fill="#f05d37" fill-rule="evenodd"/>
<path transform="matrix(1,0,0,-1,0,595.2756)" d="M297.4618 360.6922C297.4618 360.2554 297.913 359.752 298.2634 359.456 298.3649 359.3701 298.5729 359.1601 298.6469 359.1145 298.9607 359.1848 299.3879 359.7917 299.3879 360.0278 299.3879 360.39 298.6965 360.7566 298.6965 361.3147 298.6965 361.6455 298.8235 361.849 298.8941 362.1036 298.2881 362.0614 297.4618 361.3399 297.4618 360.6922" fill="#f05d37" fill-rule="evenodd"/>
<path transform="matrix(1,0,0,-1,0,595.2756)" d="M296.6598 336.9969C297.1264 336.2454 297.0215 335.4239 296.4251 335.1623 295.829 334.9006 294.9673 335.2978 294.5004 336.0492 294.0338 336.801 294.1387 337.6225 294.7351 337.8841 295.3312 338.1457 296.193 337.7486 296.6598 336.9969" fill="#dd731b" fill-rule="evenodd"/>
<path transform="matrix(1,0,0,-1,0,595.2756)" d="M296.0963 340.6972C295.4483 340.1714 295.1283 339.6192 296.151 338.853 295.4543 338.5769 294.1087 338.2415 294.0588 337.4912 295.9223 339.2433 298.2807 335.4364 296.0651 335.0529L296.1329 334.7393 296.7914 334.9545 299.9687 336.6017C299.7357 335.3797 300.8492 334.7989 301.9654 334.5642 302.6177 334.4272 303.3717 334.5579 303.9375 334.8213 304.1762 334.9324 304.2853 335.1073 304.4945 335.2306 304.7958 335.6436 304.9254 336.2139 304.9458 336.6445 305.5958 335.9619 306.2526 335.264 307.1619 335.029 308.5571 334.6685 308.7465 334.7308 309.966 335.2927 311.671 336.5198 310.4087 337.847 309.2516 338.5117 310.3019 338.8482 310.3299 339.9231 309.6184 340.5135L307.4014 341.1434 305.7463 340.3823C303.2243 339.9256 302.288 339.3556 299.6569 340.3295 299.6569 340.3295 296.0342 340.6708 296.0963 340.6972" fill="#b16e24" fill-rule="evenodd"/>
<path transform="matrix(1,0,0,-1,0,595.2756)" d="M302.3793 337.6446C303.4182 337.6446 304.2607 337.0056 304.2607 336.2176 304.2607 335.4293 303.4182 334.7904 302.3793 334.7904 301.3401 334.7904 300.4977 335.4293 300.4977 336.2176 300.4977 337.0056 301.3401 337.6446 302.3793 337.6446" fill="#dd731b" fill-rule="evenodd"/>
<path transform="matrix(1,0,0,-1,0,595.2756)" d="M308.4375 337.6188C309.5025 337.6188 310.3656 337.0796 310.3656 336.4146 310.3656 335.7496 309.5025 335.2105 308.4375 335.2105 307.3725 335.2105 306.5091 335.7496 306.5091 336.4146 306.5091 337.0796 307.3725 337.6188 308.4375 337.6188" fill="#dd731b" fill-rule="evenodd"/>
</g>
</svg>
