<svg xmlns="http://www.w3.org/2000/svg" xmlns:xlink="http://www.w3.org/1999/xlink" version="1.1" width="841.8898pt" height="595.2756pt" viewBox="0 0 841.8898 595.2756">
<g id="layer_1" data-name="">
<text fill="#ffffff" xml:space="preserve" transform="matrix(1.21803 0 -0 1 0 595.2756)" font-size="41.395" font-family="BlackMagic" font-style="italic"><tspan y="-293.6716" x="179.978 210.11356 227.78879 246.91329 275.10328 293.0687 312.19319 328.83396 347.95845">Champaran</tspan></text>
<text fill="#ffffff" xml:space="preserve" transform="matrix(1.21803 0 -0 1 0 595.2756)" font-size="41.395" font-family="TimesNewRomanPSMT"><tspan y="-293.6716" x="366.4188">&#x2019;</tspan></text>
<text fill="#ffffff" xml:space="preserve" transform="matrix(1.21803 0 -0 1 0 595.2756)" font-size="41.395" font-family="BlackMagic" font-style="italic"><tspan y="-293.6716" x="380.2031 393.86344">s </tspan></text>
<text fill-opacity="0" xml:space="preserve" transform="matrix(1.1036304 0 -0 .90610048 0 595.2756)" font-size="45.68478" font-family="BlackMagic" font-style="italic"><tspan y="-324.10493" x="198.63417 231.8927 251.39963 272.506 303.61735 323.44456 344.5509 362.9162 384.02259">Champaran</tspan></text>
<text fill-opacity="0" xml:space="preserve" transform="matrix(1.1036304 0 -0 .90610048 0 595.2756)" font-size="45.68478" font-family="TimesNewRomanPSMT"><tspan y="-324.10493" x="404.3959">&#x2019;</tspan></text>
<text fill-opacity="0" xml:space="preserve" transform="matrix(1.1036304 0 -0 .90610048 0 595.2756)" font-size="45.68478" font-family="BlackMagic" font-style="italic"><tspan y="-324.10493" x="419.60868 434.68467">s </tspan></text>
<text fill="#ffffff" xml:space="preserve" transform="matrix(1.21803 0 -0 1 0 595.2756)" font-size="41.395" font-family="BlackMagic" font-style="italic"><tspan y="-293.6716" x="404.2124 434.34797 452.14784 472.43138 481.53828 499.2124">Chulha</tspan></text>
<text fill-opacity="0" xml:space="preserve" transform="matrix(1.1036304 0 -0 .90610048 0 595.2756)" font-size="45.68478" font-family="BlackMagic" font-style="italic"><tspan y="-324.10493" x="446.1123 479.37083 499.0153 521.4009 531.45156 550.9572">Chulha</tspan></text>
<text fill="#e6370d" xml:space="preserve" transform="matrix(1.1036304 0 -0 .90610048 0 595.2756)" font-size="45.68478" font-family="BlackMagic" font-style="italic"><tspan y="-324.10493" x="198.6404 231.89891 251.40586 272.51225 303.62358 323.45079 344.55714 362.92243 384.0288">Champaran</tspan></text>
<text fill="#e6370d" xml:space="preserve" transform="matrix(1.1036304 0 -0 .90610048 0 595.2756)" font-size="45.68478" font-family="TimesNewRomanPSMT"><tspan y="-324.10493" x="404.40214">&#x2019;</tspan></text>
<text fill="#e6370d" xml:space="preserve" transform="matrix(1.1036304 0 -0 .90610048 0 595.2756)" font-size="45.68478" font-family="BlackMagic" font-style="italic"><tspan y="-324.10493" x="419.6149 434.6909">s </tspan></text>
<text fill="#e6370d" xml:space="preserve" transform="matrix(1.1036304 0 -0 .90610048 0 595.2756)" font-size="45.68478" font-family="BlackMagic" font-style="italic"><tspan y="-324.10493" x="446.11186 479.3704 499.01487 521.4004 531.4511 550.9567">Chulha</tspan></text>
<path transform="matrix(1,0,0,-1,0,595.2756)" stroke-width="1.9998" stroke-linecap="butt" stroke-miterlimit="22.925585" stroke-linejoin="miter" fill="none" stroke="#e6370d" d="M215.473 285.8939H330.6427"/>
<path transform="matrix(1,0,0,-1,0,595.2756)" stroke-width="1.9998" stroke-linecap="butt" stroke-miterlimit="22.925585" stroke-linejoin="miter" fill="none" stroke="#e6370d" d="M636.2935 285.8939H349.829"/>
<text fill="#a65b44" xml:space="preserve" transform="matrix(1.2049066 0 -0 .8299398 0 595.2756)" font-size="20.267735" font-family="AMSAakash"><tspan y="-313.9011" x="293.72737 301.83445 307.1446 311.17787 315.21113 326.86509 336.99894 350.80128 354.83454 364.9684 376.62239 376.6426 391.70155 402.64613 406.67939 416.81327 428.2848 432.31809 432.33836 438.23628 442.26957 446.30287 454.81535 458.8486 467.36109 471.39439 481.52827 492.99983 497.03309 497.05335 512.1123 523.0569 527.09017">svaad ka dulha ca/paarana caulha </tspan></text>
</g>
</svg>
